<svg enable-background="new 0 0 283.7079773 309.1765137" height="330.117" viewBox="0 0 283.708 309.177" width="302.923" xmlns="http://www.w3.org/2000/svg"><path d="m100.973 269.482h-19.376v-11.787c0-3.427-.209-5.569-.624-6.413-.413-.855-1.322-1.281-2.734-1.281-1.593 0-2.607.521-3.036 1.554-.428 1.034-.643 3.266-.643 6.698v31.513c0 3.294.215 5.447.643 6.45.429 1.012 1.398 1.511 2.9 1.511 1.443 0 2.381-.503 2.827-1.517.443-1.006.667-3.372.667-7.096v-8.538h19.376v2.646c0 7.016-.545 11.991-1.634 14.93-1.087 2.932-3.496 5.5-7.229 7.711-3.723 2.209-8.319 3.307-13.776 3.307-5.675 0-10.356-.928-14.039-2.801-3.679-1.866-6.116-4.459-7.32-7.759-1.197-3.311-1.795-8.284-1.795-14.93v-19.8c0-4.882.185-8.542.555-10.988.366-2.443 1.466-4.792 3.29-7.053 1.823-2.262 4.359-4.038 7.595-5.337 3.238-1.296 6.954-1.948 11.162-1.948 5.699 0 10.41 1.008 14.125 3.014 3.71 2.002 6.151 4.502 7.316 7.499 1.169 2.994 1.75 7.651 1.75 13.974z" fill="#002b5c"/><path d="m140.489 239.995 11.117 67.738h-19.81l-1.042-12.187h-6.937l-1.113 12.187h-20.086l9.851-67.738zm-10.25 43.557c-.962-7.668-1.94-17.154-2.937-28.456-1.954 12.979-3.188 22.465-3.694 28.456z" fill="#002b5c"/><path d="m187.957 239.994v14.913h-11.544v52.827h-19.382v-52.827h-11.449v-14.913z" fill="#002b5c"/><path d="m227.917 260.509h-17.983v-5.046c0-2.351-.237-3.85-.693-4.493-.459-.644-1.227-.969-2.306-.969-1.167 0-2.047.437-2.65 1.302-.596.868-.896 2.188-.896 3.951 0 2.271.334 3.976 1.004 5.126.631 1.15 2.454 2.527 5.461 4.14 8.629 4.646 14.056 8.458 16.295 11.447 2.239 2.983 3.359 7.804 3.359 14.447 0 4.831-.627 8.392-1.862 10.678-1.245 2.295-3.647 4.214-7.204 5.759-3.552 1.55-7.703 2.325-12.42 2.325-5.184 0-9.603-.891-13.268-2.682-3.662-1.787-6.064-4.062-7.199-6.827-1.134-2.768-1.701-6.689-1.701-11.774v-4.439h17.979v8.269c0 2.554.256 4.179.766 4.915.502.732 1.402 1.09 2.691 1.09 1.299 0 2.252-.461 2.885-1.385.627-.923.945-2.29.945-4.112 0-3.995-.596-6.615-1.791-7.845-1.218-1.229-4.241-3.276-9.059-6.144-4.82-2.895-8.017-4.997-9.578-6.31-1.565-1.315-2.866-3.13-3.892-5.447-1.03-2.312-1.544-5.274-1.544-8.874 0-5.197.73-8.988 2.189-11.388 1.456-2.405 3.811-4.282 7.066-5.637 3.253-1.356 7.178-2.032 11.778-2.032 5.032 0 9.316.739 12.866 2.22 3.543 1.481 5.888 3.345 7.04 5.595 1.149 2.25 1.722 6.069 1.722 11.462z" fill="#002b5c"/><path d="m5.9 84.444c16.418 73.731 67.849 134.261 135.955 163.225 68.099-28.964 119.533-89.494 135.953-163.225-12.431-7.051-20.821-20.392-20.821-35.701 0-10.301 3.802-19.711 10.074-26.915-39.096-14.122-81.258-21.828-125.221-21.828-43.959 0-86.117 7.701-125.21 21.815 6.28 7.206 10.084 16.62 10.084 26.928 0 15.309-8.39 28.65-20.814 35.701" fill="#fff"/><path d="m261.869 48.743c0-9.75 3.869-18.59 10.142-25.091-1.643-.623-3.294-1.228-4.949-1.824-6.272 7.204-10.076 16.614-10.076 26.915 0 15.309 8.392 28.65 20.821 35.701-16.42 73.731-67.852 134.26-135.951 163.225-68.106-28.965-119.537-89.494-135.955-163.225 12.424-7.051 20.814-20.392 20.814-35.701 0-10.308-3.804-19.722-10.084-26.928-1.654.599-3.309 1.201-4.952 1.824 6.284 6.501 10.153 15.347 10.153 25.104 0 14.878-8.988 27.651-21.832 33.197 16.205 79.303 69.946 144.941 141.856 177.544 71.901-32.603 125.643-98.241 141.852-177.544-12.847-5.546-21.839-18.319-21.839-33.197" fill="#002b5c"/><path d="m45.591 68.727c-1.449-.997-3.981-2.25-3.74-3.059.569-1.893 14.106-1.94 16.614 7.899 2.06 8.084 4.211 18.357 8.857 20.03 4.893 1.761 7.81 0 9.927-1.466 0 0 7.533-6.332 13.939-6.455 5.641-.107 9.656 1.628 14.541 4.233 0 0 9.41 5.858 16.026 5.64 6.62-.217 10.415-4.015 13.565-6.075 3.143-2.062 11.731-7.315 17.246-4.665 2.713 1.302.543 5.317-.542 7.268-.732 1.322-3.606 7.335 1.304 9.438 6.681 2.865 25.06-15.839 40.248-15.839 6.411 0 13.935 6.455 13.935 6.455 2.115 1.466 5.045 3.255 9.927 1.466 4.629-1.697 7.107-12.259 8.793-19.772 2.279-10.155 15.679-9.931 15.827-8.138.076.874-1.939 1.944-3.436 2.84-1.601.96-1.694 1.373 1.443 2.368 7.031 2.228 13.86 4.736 20.269 7.298-6.368-8.125-10.177-18.346-10.177-29.449 0-11.04 3.768-21.21 10.069-29.317-37.158-12.595-76.973-19.426-118.385-19.426-41.408 0-81.221 6.825-118.371 19.415 6.306 8.108 10.076 18.284 10.076 29.328 0 11.072-3.787 21.273-10.127 29.387 6.493-2.618 13.386-5.141 20.288-7.236 3.279-.995 2.941-1.442 1.884-2.168" fill="#002b5c"/><path d="m173.526 181.999c-2.273 2.618-10.764 15.658-14.517 20.116-3.819 4.528-9.866 8.902-17.182 8.902-7.319 0-13.367-4.374-17.186-8.902-3.752-4.458-12.245-17.498-14.517-20.116-4.544-5.24-11.455-5.051-23.468-2.114-7.122 1.744-13.957 4.067-20.144 6.508 20.977 22.831 46.583 41.348 75.354 54.013 28.76-12.659 54.36-31.167 75.331-53.989-6.207-2.452-13.062-4.782-20.203-6.532-12.013-2.937-18.923-3.126-23.468 2.114" fill="#002b5c"/><path d="m217.099 104.3c-5.956-1.673-9.636-2.741-14.112-3.477-3.659-.601-6.66 1.621-7.453 4.939-1.151 4.831-4.476 11.901-13.291 13.369-12.558 2.092-15.594-8.289-18.728-7.292 0 0 4.484-4.155 11.479-8.245-.424 1.08-.728 2.286-.728 3.56 0 4.614 3.875 8.356 3.875 8.356s3.869-3.742 3.869-8.356c0-2.456-1.096-4.658-2.123-6.187 7.609-4.161 15.152-5.04 15.152-5.04s-8.291-4.626-22.667 3.053c-3.901 2.086-8.579 4.708-14.805 10.166-1.477 1.298-6.644 5.249-5.871 10.893.447 3.275 4.318 5.552 2.364 7.974-1.712 2.117-4.915-1.212-12.233-1.212-7.322 0-10.525 3.329-12.235 1.212-1.954-2.422 1.914-4.699 2.364-7.974.773-5.644-4.394-9.595-5.871-10.893-6.226-5.458-10.904-8.08-14.805-10.166-14.377-7.679-22.667-3.053-22.667-3.053s7.543.879 15.149 5.04c-1.024 1.529-2.12 3.731-2.12 6.187 0 4.614 3.868 8.356 3.868 8.356s3.876-3.742 3.876-8.356c0-1.274-.304-2.48-.732-3.56 6.996 4.09 11.483 8.245 11.483 8.245-3.137-.997-6.17 9.384-18.728 7.292-8.816-1.468-12.14-8.538-13.291-13.369-.793-3.318-3.794-5.54-7.458-4.939-4.478.736-8.157 1.804-14.116 3.477-16.736 4.693-31.346 10.473-42.517 15.502 5.41 13.098 12.013 25.57 19.681 37.288 3.113-1.449 6.046-2.726 8.453-3.61 7.055-2.597 15.179-6.261 28.447-.123 14.067 6.501 25.331 19.141 25.331 19.141.792-.497.553-2.295-.218-3.78-1.36-2.618-4.419-5.641-6.099-7.325-8.611-8.609-.721-9.532 2.394-9.504 5.458.047 11.098 2.032 11.098 2.032-8.417-8.428-32.958-8.788-32.958-8.788 17.434-4.771 38.861 5.496 38.861 5.496-17.28-15.365-55.044-11.681-55.044-11.681 28.16-7.761 53.693 5.248 53.693 5.248-13.165-11.696-35.665-12.484-35.665-12.484 24.179-2.698 41.251 9.244 46.582 16.153 4.211 5.462 5.278 7.302 5.651 8.002.413.773 2.166 4.015.215 6.293-1.952 2.275-6.295 1.845-6.295 1.845s-1.298 5.317-.975 7.376c0 0-2.495-1.628-2.928-7.376 0 0-3.47-.543-6.291-2.278-2.822-1.733-7.274-4.555-9.442-2.493-2.168 2.058.325 5.313 1.412 6.941 1.085 1.628 14.967 25.58 17.195 28.807 2.631 3.824 7.156 8.018 14.702 8.018 7.544 0 12.071-4.194 14.702-8.018 2.226-3.227 16.107-27.179 17.19-28.807 1.088-1.628 3.583-4.883 1.413-6.941-2.166-2.062-6.618.76-9.441 2.493-2.82 1.735-6.29 2.278-6.29 2.278-.433 5.748-2.928 7.376-2.928 7.376.323-2.059-.975-7.376-.975-7.376s-4.343.43-6.295-1.845c-1.953-2.278-.198-5.52.215-6.293.37-.7 1.438-2.54 5.651-8.002 5.331-6.909 22.403-18.851 46.579-16.153 0 0-22.499.788-35.664 12.484 0 0 25.537-13.009 53.688-5.248 0 0-37.759-3.684-55.038 11.681 0 0 21.428-10.267 38.853-5.496 0 0-24.532.36-32.95 8.788 0 0 5.641-1.985 11.098-2.032 3.116-.028 11.006.895 2.394 9.504-1.681 1.684-4.738 4.707-6.099 7.325-.77 1.485-1.014 3.283-.217 3.78 0 0 11.264-12.64 25.324-19.141 13.268-6.138 21.393-2.474 28.448.123 2.422.891 5.375 2.176 8.517 3.64 7.666-11.72 14.275-24.189 19.685-37.285-11.18-5.036-25.817-10.831-42.588-15.535m-68.6 83.679 2.252 2.282s1.709-2.74 1.791-7.216c0 0 1.903 3.989 1.408 7.457-.08.571-.267 1.979-1.682 2.42-1.408.441-4.826 1.692-10.359 1.692s-8.952-1.251-10.362-1.692c-1.412-.441-1.599-1.849-1.679-2.42-.495-3.468 1.41-7.457 1.41-7.457.08 4.476 1.789 7.216 1.789 7.216l2.252-2.282 1.978 2.878 2.605-2.497 2.007 2.814 2.006-2.814 2.605 2.497zm-.067-41.324c-2.125 1.681-4.607 3.789-6.721 3.789-2.11 0-4.592-2.108-6.719-3.789-.777-.65-.633-1.544 1.3-1.841 1.313-.202 3.036-.338 5.419-.338 2.387 0 4.105.134 5.425.336 1.927.299 2.073 1.193 1.296 1.843" fill="#002b5c"/><g fill="#fff"><path d="m68.09 48.037c-1.83.467-4.842 3.068-10.241 4.452-9.217 2.36-15.423-1.091-17.492-9.169-2.039-7.955 2.075-14.717 12.224-17.315 3.576-.915 6.344-.911 7.927-1.318.488-.123 1.278-.415 2.331-.865l-.075 6.801c-3.18-.926-6.317-1.014-9.242-.265-5.886 1.507-8.371 5.666-6.859 11.569 1.395 5.441 4.844 7.591 10.041 6.261 4.508-1.154 6.484-3.402 5.733-6.332l-.577-2.26-5.52 1.414c-1.182.302-2.02.741-2.872 1.804l.03-3.44c.034-1.882.407-2.288 2.435-2.809l11.289-2.892c-.51.887-.338 1.559-.09 2.521l2.99 11.679c-.986.028-1.668.071-2.032.164"/><path d="m74.628 43.35-2.7-16.678c-.374-2.304-1.214-3.567-2.775-4.015l25.819-4.183c-.228.433-.297.792-.247 1.091.082.513 1.027 2.153 2.42 5.255-3.053-1.3-6.02-1.257-9.372-.714l-9.806 1.586.962 5.931 10.84-1.756c1.447-.235 2.426-.743 3.199-1.219l-1.488 3.918c-.387 1.027-1.214 1.684-2.331 1.867l-9.516 1.539 1.036 6.398 10.344-1.674c4.095-.666 7.193-2.259 9.109-4.584-.777 3.847-1.406 6.007-1.3 6.646.051.34.275.657.635 1.038l-26.192 4.239c1.346-.872 1.738-2.381 1.363-4.685"/><path d="m104.174 38.838-1.249-16.848c-.17-2.327-.897-3.66-2.413-4.243l26.084-1.929c-.263.411-.364.764-.342 1.065.036.517.837 2.235 1.959 5.445-2.935-1.561-5.89-1.774-9.279-1.522l-9.907.73.447 5.991 10.95-.809c1.464-.11 2.484-.53 3.294-.939l-1.822 3.774c-.473.99-1.356 1.574-2.484 1.66l-9.615.71.48 6.463 10.448-.773c4.14-.306 7.361-1.63 9.473-3.778-1.109 3.767-1.921 5.862-1.871 6.508.024.344.215.678.54 1.087l-26.458 1.957c1.414-.753 1.937-2.222 1.765-4.549"/><path d="m131.858 15.523 10.431.17c-1.477.624-2.257 2.123-2.291 4.368l-.273 16.896 7.082.114c3.981.065 7.096-.706 9.815-2.909-1.442 3.65-2.48 5.665-2.493 6.313-.006.344.2.695.485 1.13l-23.174-.377c1.477-.665 2.127-2.08 2.168-4.37l.272-16.894c.036-2.333-.569-3.726-2.022-4.441"/><path d="m167.229 43.012c-9.318-.693-14.204-6.213-13.606-14.228.605-8.144 6.538-13.335 15.608-12.661 9.322.693 14.259 6.086 13.63 14.534-.577 7.757-6.56 13.031-15.632 12.355m9.182-13.225c.398-5.343-2.265-8.575-7.193-8.941-5.436-.405-8.734 2.687-9.171 8.545-.39 5.257 2.269 8.489 7.201 8.855 5.391.402 8.732-2.685 9.163-8.459"/><path d="m190.858 40.336c-.342 2.353-.101 3.748 1.386 4.779l-9.72-1.588c1.6-.44 2.409-1.751 2.792-4.097l2.698-16.504c.385-2.345.034-3.847-1.341-4.773l12.034 1.968c-.213.271-.331.473-.351.6-.026.168.041.532.177.993l6.461 20.717 2.579-16.306c.383-2.344-.082-3.91-1.425-4.786l9.474 1.548c-2.105.665-2.383 2.108-2.697 4.026-.009.043-.024.127-.037.213l-3.046 18.635c-.147.896-.177 1.591.224 2.271l-9.882-1.616c.261-.308.385-.551.413-.722.028-.17-.051-.447-.189-.906l-7.193-21.451z"/><path d="m237.16 53.592c-1.828-.465-5.718.375-11.12-1.001-9.218-2.347-13.014-8.351-10.955-16.433 2.025-7.955 8.871-11.918 19.027-9.337 3.573.911 6.006 2.241 7.588 2.644.487.127 1.32.25 2.461.36l-3.326 5.931c-2.349-2.338-5.059-3.916-7.983-4.661-5.89-1.501-10.062.962-11.565 6.865-1.387 5.445.609 8.984 5.81 10.308 4.511 1.148 7.322.123 8.069-2.807l.575-2.263-5.524-1.406c-1.178-.299-2.125-.316-3.384.209l1.672-3.007c.937-1.634 1.458-1.815 3.488-1.294l11.294 2.872c-.874.536-1.044 1.205-1.287 2.168l-2.976 11.685c-.88-.448-1.498-.74-1.864-.833"/></g></svg>