<svg enable-background="new 0 0 52.9509888 45.4462891" height="45.446" viewBox="0 0 52.951 45.446" width="52.951" xmlns="http://www.w3.org/2000/svg"><g fill="#f47920"><path d="m25.759 15.177-.676.938c-.379.541-1.003.867-1.666.867h-6.104l3.156-4.41c.384-.524.998-.837 1.646-.837h14.449l8.399-11.735h-21.683c-8.367 0-15.149 6.783-15.149 15.149 0 8.367 6.782 15.148 15.149 15.148l10.824-15.123z"/><path d="m52.951 40.534c0-1.13-.612-1.631-1.667-1.928-2.447-.686-3.504-.982-3.689-1.037-.112-.037-.204-.093-.204-.241v-1.594c0-.111.074-.185.186-.185h2.483c.111 0 .185.074.185.185v1.038h2.632v-1.632c0-1.129-.908-2.038-2.039-2.038h-4.077c-1.13 0-2.039.909-2.039 2.038v2.762c0 1.13.63 1.612 1.723 1.928 2.299.649 3.281.926 3.597 1.02.148.036.24.11.24.24v1.724c0 .111-.073.185-.185.185h-2.595c-.111 0-.185-.074-.185-.185v-1.057h-2.632v1.65c0 1.13.908 2.039 2.039 2.039h4.189c1.13 0 2.038-.909 2.038-2.039zm-17.994-4.985h3.187v9.897h2.687v-9.897h3.188v-2.447h-9.062zm-.943-2.447h-2.595v7.228l-4.114-7.228h-2.595v12.344h2.595v-7.192l4.114 7.192h2.595zm-15.391 3.41 1.113 4.115h-2.224zm1.354-3.41h-2.707l-4.04 12.344h2.743l.741-2.447h3.8l.778 2.447h2.743zm-7.425 0h-2.687v12.344h2.687zm-8.493 7.951h1.742v1.761c0 .111-.074.185-.185.185h-2.743c-.111 0-.186-.074-.186-.185v-7.08c0-.111.075-.185.186-.185h2.724c.111 0 .186.074.186.185v1.26h2.631v-1.854c0-1.129-.907-2.038-2.038-2.038h-4.338c-1.13 0-2.038.909-2.038 2.038v8.267c0 1.13.908 2.039 2.038 2.039h4.356c1.131 0 2.039-.909 2.039-2.039v-4.689h-4.374z"/></g></svg>