<svg enable-background="new 0 0 557.6 631.4" height="336.505" viewBox="0 0 557.6 631.4" width="297.173" xmlns="http://www.w3.org/2000/svg"><path d="m503.5 311.4-27.5-23c9.7-26.6 11.7-51.2 12.6-61.3-25.6-10.6-43.1-18-74.9-27.7l-19.6-5.7c5.1 6.3 10.3 12.8 15.7 19.6l1.6 2-4.2 46.4-.3 2.8-2.6 1c-3.3 1.3-6.7 2.6-10 3.9-2.1-1.7-4.3-3.4-6.4-5.2.6-.4 1-.7 1.4-1 4-1.6 8.1-3.2 12.1-4.8l.3-.1v-.4c.9-11.6 1.9-23.8 3-37.5l.2-2.3-.2-.2c-9.8-11.7-18.8-22.5-27.3-32.9-.3-.4-.6-.7-.9-1.1-1.1-1.3-2.1-2.6-3.2-3.9-.3-.3-.5-.6-.8-.9-.1-.2-.3-.4-.4-.5-1-1.2-2-2.5-3-3.7-.4-.4-.7-.9-1.1-1.3-2.7-3.3-5.3-6.5-7.8-9.6-.3-.4-.7-.8-1-1.2-.9-1.2-1.9-2.3-2.8-3.5-.4-.5-.8-1-1.2-1.5-.9-1.1-1.8-2.2-2.7-3.4-.3-.4-.7-.9-1-1.3-1.2-1.5-2.4-3.1-3.6-4.6 2.9-5.1 5.8-10.3 8.7-15.4l.2-.4-2.5-2.3c-11.2-10.5-16.3-13.3-23.3-17 3.7-3.2 14.4-13.4 21.3-26.3 11.1-21 12.6-39.6 7.8-61.8-1.7-7.5-3.5-11.9-4.6-11.8 0 0-.2-.1-.6.3-3.5 4.5-7.1 8.9-10.7 13.4-3.5 5.1-7 10.1-10.5 15.2-3 2.2-11.4 8.5-21.3 19.3l.7-4.6-10.5 16.3c-6.1 8-11.9 17.3-16.2 27.7l-3 .6h-.2l-4.4 1 2.5 2.2c-3.5-.1-11.1-.2-11.1-.2l-1.4 3.6c-3.9-.2-11.1-2-11.1-2l-.9 2.7c-5.8-6.7-15.7-17.6-29.6-26.8-1.1-.7-2.2-1.4-3.3-2.1-1-.6-1.9-1.2-2.9-1.7-.7-.4-1.4-.8-2.1-1.2l-23.2-14.2.3 3.4c-17.8-6.1-36.9-8.8-57.2-8.8-8.9 0-17 .1-26.3 1.4-1.8.2-4.2.5-4.7 2.3s.2 3.6 1.7 4.6c6.9 4.8 13.8 9.6 20.7 14.4 1.5 2 5.2 6.8 7 10.8 7.2 15.6 22.7 41.2 83.7 64.5-2.5 6-4.1 11.2-5.2 16.1-.8 3.5-1.3 6.9-1.8 10.4-1.5-2.5-3.1-5.2-4.1-6.8v.1.2c0 .1 0 .2-.1.4-.1.3-.1.7-.2 1.1v.1c0 .2-.1.4-.1.6 0 .1 0 .2-.1.3v.2c-1.6 7.7-6.2 29.1-10.3 51.4l-90 66.4 22-18.2 54.9-45.4c-2.1 1.6-1.8 1.3 5.2-4.3l7.7-43.1c-6.3 1-12.6 2-19 3.3-39.8 10.7-79.7 23.9-111.8 36.6v.2c-2 .8-4 1.6-6 2.4 2.1.2 4.1.3 6.2.5 1 10.9 2.7 30.6 11 55.1l-32.8 28.3h-36.6v245.3l13 9.5c26.7-15.3 95.9-38.7 95.9-38.7l-.1 35 10.7 7.5h87.2c26.9 26.2 50.7 46.2 52.1 47.2h16l51.6-45.7 2-1.6 89.3.2 10.9-7.5v-35.4c45 10.8 97.2 39.1 97.2 39.1l12.4-8.3v-246.7z" fill="#fff"/><path d="m273.8 121.1c.1.1.1.1.2.1 0 0-.1 0-.2-.1z" fill="none"/><path d="m310.7 103c.1 0 .2.1.3.1 1.8.6 4.6 1.6 8.1 3.1 3.5-2.7 11.6-10.5 19.1-21 12.8-17.8 19.1-36.9 14.7-57.3l-.1-.3c0-.2-.5-1.6-.8-2.3-1.4 1.4-2.9 3.2-4.1 4.7l-1.2 1.5c-3.4 4.7-6.9 9.3-10.3 13.9-.1.1-.3.3-.4.5-.1.1-.2.3-.4.6-2.6 4.8-25.8 47.1-24.9 56.5z" fill="none"/><path d="m161.8 269.2c-6.7 3.9-25.8 14.9-38 21.9 23.2-6.6 46.2-13.3 68.8-20 .7-5.9 1.6-12.7 2.8-19.8-10.1 6.2-20.4 12.5-30.8 18.8.1-7.1-2.8-.9-2.8-.9z" fill="#c4d1e5"/><path d="m343.4 84c12.5-18.2 16.6-37.7 12.2-57.9 0 0 0-.1 0-.2-.5-1.7-.9-2.4-1.1-2.7-.6.4-1.5 1.1-2.4 2 .2.7.8 2.1.8 2.3l.1.3c4.4 20.4-1.9 39.6-14.7 57.3-7.5 10.4-15.6 18.3-19.1 21 .6.3 1.3.6 1.9.9 2.2-1.5 13.1-9.6 22.3-23z" fill="#c4d1e5"/><path d="m335 150.5c14.1 18.5 30.2 35.9 45.3 54.8 4.7 5.6 8.6 11.1 13.4 16.8l.9-.3.6-1.7c-19.2-25.2-35.8-47.7-50.9-68.6l-2.7-3.8s2.9-9.1 4.3-13.6c-21.9-19.7-40.3-23.8-40.5-23.8-3.6-.8-7.6-1.3-11.8-1.3-.1 0-.1 0-.2 0-2.3 0-4.3.1-5.5.3-1.2.1-2 .2-2 .2l-.3.1-.7.1c-6.8 1.6-15.5 3.2-22.4 4.7 4.7 3 6.5 3.5 11.3 6.5v.1c.1 0 .1.1.2.1 1.1.5 2 1 2.6 1.6 1.4.9 1.8 1 3 1.9l1.5.2c-3.1-4.5-10.8-12.5 9.3-15.4 6.2-1.4 41.5 13.2 47 27z" fill="#c4d1e5"/><path d="m127.1 65.4c15.4 1.5 61.4 4.1 94.9 27.6 2.8 1.7 20.5 13.2 31.6 24.3h.4c-14.2-17.7-50.4-52.7-113-52.7-5.5 0-11.2.3-16.9.8z" fill="#c4d1e5"/><path d="m222 218c.4.9 1.1 2.1 1.6 2.9l.5-.2c.2.2.2.3.4.6s.5.7.8 1.1c.9 1.3 1.6 2.1 1.7 2.2l.1.1s.1.1.1.1c4.7 5.7 14.6 15.3 29 16.3 1.5.2 2.9.3 4.3.3 3.3 0 6.4-.7 9.3-1.8-11.1-.8-15.5-25.1-16.9-35l-.7-.2c-2.5 26.9-29.7 19.6-23.1-46.3-7.8 13.1-11.8 25.7-11.7 37.7v.1l-1.5 6.7c0 .2-.1.5-.2.8h-.7c.3 4 1.1 7.6 2.3 10.9 0 0 3.3 8.7 6.3 11.4-.7-1.1-1-1.8-1-1.8-.3-1.8-.5-3.6-.8-5.5z" fill="#c4d1e5"/><path d="m336.1 45.9c-.5.6-1.1 1.2-1.9 2-2.9 2.4-5.9 5-8.8 7.9-10.1 9.7-23.8 25.3-32.4 44.8h.7 1.9.3c.3-.6.7-1.3 1.2-2 5.7-9.6 18.6-30.9 27-36.7 0 .1-19.5 29.5-20.4 39.4h.1c1.3.2 2.5.4 3.6.7 0 0 1.2.3 3.4 1-.9-9.3 22.3-51.7 24.9-56.5.2-.3.3-.4.4-.6z" fill="#c4d1e5"/><path d="m377 271.2c-2.3 1.4-4.6 2.5-6.7 3.6 14 6.4 28.2 12.9 42.5 19.2l5.1 2.3c.2.1.5.2.7.3-13.1-7.9-26.8-16.3-41.6-25.4z" fill="#c4d1e5"/><path d="m203.5 240.8c.1-.1.2-.1.3-.2z" fill="#c4d1e5"/><path d="m341.5 196.5c-2.9-4-5.7-7.9-8.5-11.8 6.2 13.7 20.7 38.3 27.3 50.8l8.7 2.3-10.9-18.3c-4.2-6-12.7-17.3-16.6-23z" fill="#c4d1e5"/><path d="m368.1 173.5c.3.4.7.9 1.1 1.3-.4-.4-.8-.9-1.1-1.3z" fill="none"/><path d="m359.3 162.7c.3.4.7.8 1 1.2-.3-.4-.7-.8-1-1.2z" fill="none"/><path d="m372.6 179c-.1-.2-.3-.4-.4-.5.1.2.2.3.4.5z" fill="none"/><path d="m224.2 79.7c-1-.6-1.9-1.2-2.9-1.7 1 .5 2 1.1 2.9 1.7z" fill="none"/><path d="m351.6 153c.3.4.7.9 1 1.3-.3-.4-.7-.8-1-1.3z" fill="none"/><path d="m355.3 157.7c.4.5.8 1 1.2 1.5-.4-.5-.8-1-1.2-1.5z" fill="none"/><path d="m224.2 79.7c1.1.7 2.2 1.4 3.3 2.1-1.1-.7-2.2-1.4-3.3-2.1z" fill="#c4d1e5"/><path d="m221.3 78-2.1-1.2c.7.4 1.4.8 2.1 1.2z" fill="#c4d1e5"/><path d="m356.5 159.2c.9 1.2 1.9 2.3 2.8 3.5-.9-1.2-1.9-2.4-2.8-3.5z" fill="#c4d1e5"/><path d="m360.3 163.9c2.6 3.2 5.2 6.4 7.8 9.6-2.7-3.2-5.3-6.4-7.8-9.6z" fill="#c4d1e5"/><path d="m369.2 174.8c1 1.2 2 2.4 3 3.7-1.1-1.3-2.1-2.5-3-3.7z" fill="#c4d1e5"/><path d="m352.6 154.3c.9 1.1 1.8 2.2 2.7 3.4-.9-1.1-1.8-2.3-2.7-3.4z" fill="#c4d1e5"/><path d="m347.9 148.4c1.2 1.5 2.4 3 3.6 4.6-1.2-1.5-2.4-3-3.6-4.6z" fill="#c4d1e5"/><path d="m209.4 178.1c0-.1 0-.2.1-.3-.1.1-.1.2-.1.3z" fill="#c4d1e5"/><path d="m209.6 177.3c0-.1 0-.1 0 0z" fill="#c4d1e5"/><path d="m373.4 180c1.1 1.3 2.1 2.6 3.2 3.9-1.1-1.3-2.2-2.6-3.2-3.9z" fill="#c4d1e5"/><path d="m510.5 303.2s12.5-44.2 13-67.7l-11.4-26s-77.2-20.7-128.3-28.6c-9.4-11.8-18.2-22.8-26.2-33.4l7.4-13.3 1.7-3.1c-10.7-11.3-23.8-20.3-23.8-20.3 3.9-3.7 7.5-8.1 11.2-13.3 15.5-21.5 19.5-48 14.2-72.7l-.1-.3c-6.2-21.5-10-24.5-13.2-24.5 0 0-1.8-.2-3.5 1.7-6.3 8.1-12.7 16.1-18.9 23.9-2.6 3.4-5.2 6.8-7.9 10.1-2.1 1.6-7.1 5.8-13.3 12.1l.2-4.2-11 16.1c-7.3 8.8-14.8 19.6-20.6 31.9l-2 4.5-11-2.4-3.2 6.8-3.4-4.3c-5.6-5.9-14.6-14.4-26.7-22.6-4-2.7-8.1-5.1-12.3-7.4-14.1-8.8-29.1-14.8-29.1-14.8l.3 2.6c-15.3-4.8-31.5-7.3-48.5-7.5-.8 0-1.6 0-2.5 0-8.1 0-16.5.5-25.1 1.6l-3.3.3c-5.3.6-14.3 2.1-21.4 6.3 0 0-2.2 1.8-2.1 2.8-.7 2.8 0 3.8 8.4 11 3.9 3.4 9.9 8.2 16.2 12l2.7 2.2c2.7 2.2 5.4 4.4 8.1 6.5 2.2 2.9 4 5.7 4.8 7.5 7.3 16 23.4 39.8 79.4 63.1l-1.3 7.5-4.9-5-.5 1.9-1.6 9.1c-9.9 1.7-89.4 16-156.5 38.5l-11.7 26s7.9 46.3 13.3 64.3h-46.1v258.1l25.9 17.7s51.8-26.4 84.6-36.9l-.1 27.4 16.4 11.4h78.3s40.5 38.6 57.8 51.8h26.5s51.1-45.4 58.6-51.9l82.4-.2 16.1-11.3v-28.2s41.4 12 86.5 38l24.7-17.6v-257.2zm37.6 254.9-12.4 8.3s-52.2-28.3-97.2-39.1v35.4l-10.9 7.5-89.3-.2-2 1.6-51.6 45.7h-16c-1.4-1.1-25.3-21.1-52.1-47.2h-87.2l-10.7-7.5.1-35s-69.2 23.3-95.9 38.7l-13-9.5v-245.4h36.7l32.8-28.3c-8.2-24.5-10-44.2-11-55.1-2.1-.2-4.2-.4-6.2-.5 2-.8 4-1.6 6-2.4 0-.1 0-.1 0-.2 32.1-12.7 72-25.8 111.8-36.5 6.3-1.3 12.7-2.4 19-3.3l-7.7 43.1c-7 5.6-7.3 5.9-5.2 4.3l-55.1 45.4-22 18.2 90-66.4c3.6-19.5 7.6-38.3 9.6-47.8.3-1.4.5-2.6.8-3.6 0-.1 0-.2 0-.2 0-.1 0-.2.1-.3 0-.2.1-.4.1-.6v-.1c.1-.5.2-.8.2-1.1 0-.1.1-.3.1-.4 0-.1 0-.1 0-.2v-.1c1 1.7 2.6 4.3 4.1 6.8.4-3.6 1-7 1.8-10.4 1.1-5 2.7-10.1 5.2-16.1-61.1-23.3-76.6-48.9-83.7-64.5-1.9-4-5.5-8.9-7-10.8-6.9-4.8-13.8-9.6-20.7-14.4-1.5-1-2.1-2.9-1.7-4.6.5-1.8 2.9-2.1 4.7-2.3 9.3-1.3 17.4-1.4 26.3-1.4 20.3 0 39.4 2.7 57.2 8.8l-.3-3.4 23.5 13.7 2.1 1.2c1 .6 1.9 1.1 2.9 1.7 1.1.7 2.2 1.4 3.3 2.1 13.9 9.2 23.8 20.1 29.6 26.8l.9-2.7s7.2 1.8 11.1 2l1.4-3.6s7.5.2 11.1.2l-2.5-2.2 4.4-1h.2l3-.6c4.3-10.3 10.1-19.7 16.2-27.7l10.5-16.3-.7 4.6c9.9-10.8 18.3-17.1 21.3-19.3 3.5-5 7-10.1 10.5-15.2 3.6-4.5 7.1-8.9 10.7-13.4.4-.3.6-.3.6-.3 1.1-.1 2.8 4.3 4.6 11.8 4.8 22.2 3.4 40.8-7.8 61.8-6.8 12.9-17.6 23.2-21.3 26.3 7 3.7 12.1 6.5 23.3 17l2.5 2.3-.2.4c-2.9 5.2-5.8 10.3-8.7 15.4 1.2 1.5 2.4 3 3.6 4.6.3.4.7.9 1 1.3.9 1.1 1.8 2.2 2.7 3.4.4.5.8 1 1.2 1.5.9 1.2 1.9 2.3 2.8 3.5.3.4.7.8 1 1.2 2.6 3.2 5.2 6.4 7.8 9.6.3.4.7.9 1.1 1.3 1 1.2 2 2.4 3 3.7.1.2.3.4.4.5.3.3.5.6.8.9 1.1 1.3 2.1 2.6 3.2 3.9.3.4.6.7.9 1.1 1.2 1.5 2.4 2.9 3.6 4.4.2.3.4.5.6.8 7.3 8.8 14.9 18 23 27.7l.2.2-.2 2.3c-1.1 13.7-2.1 26-3 37.5v.4l-.3.1c-4 1.6-8.1 3.2-12.1 4.8-.3.2-.8.6-1.4 1 2.1 1.7 4.3 3.4 6.4 5.2 3.3-1.3 6.6-2.6 10-3.9l2.6-1 .3-2.8 4.2-46.4-1.6-2c-5.4-6.7-10.6-13.3-15.7-19.6l19.6 5.7c31.9 9.7 49.3 17.1 74.9 27.7-.9 10.1-2.9 34.7-12.6 61.3l27.4 23.1h44.6v247.1z" fill="#c4d1e5"/><path d="m231.3 295.1c4.6-8 26-42.6 58-43.3 11.6 4.4 15.6 19.8 16.7 24.8h.6c2.2-10.2 3.2-16.9 3.5-20.9-.2-.1-.4-.2-.7-.3-5.6-3.2-11.3-4.7-15.4-5.4-.4-.1-.8-.1-1.2-.2-2.7-.4-4.4-.5-4.4-.5l.1-.3 1.8-4.1-12 2.8-15.1 3.5.9-3.7c-14.6-2.4-15.5-2.8-25-7.2h-.1l-.7-.3h-.1c-.5-.2-.9-.5-1.3-.7-2.1 18.3-4.3 36.9-6.7 56.1z" fill="#c4d1e5"/><path d="m321.5 252.8v.5s.1-.2 0-.5z" fill="#fcfcfc"/><path d="m276.7 122.8c-.6-.6-1.5-1.1-2.6-1.6.8.6 1.7 1.1 2.6 1.6z" fill="#f7f7f7"/><g fill="#1a3b8e"><path d="m154.8 516.4c-1 7.7-2 15.3-3.1 22.7-1.2-7.2-2.3-14.3-3.5-21.3-4.6 1.1-9.2 2.3-13.8 3.5v37.1h10.2c0-6.9-.1-13.9-.1-20.8 1.2 6.8 2.3 13.7 3.5 20.8h7.8c1-7.4 2.1-14.9 3.1-22.6.1 7.5.2 15.1.2 22.6h10.2c-.2-15-.4-30-.6-45-4.6 1-9.3 2-13.9 3z"/><path d="m189.7 550.7c-.1-4.6-.1-9.2-.2-13.8 2.1-.1 4.1-.3 6.2-.4 0-2.7-.1-5.3-.1-8-2.1.2-4.1.3-6.2.5-.1-3.6-.1-7.2-.2-10.8 2.3-.3 4.5-.5 6.8-.8 0-2.7-.1-5.3-.1-8-5.9.8-11.7 1.6-17.5 2.5.2 15.5.4 31.1.7 46.6h17.6c0-2.7-.1-5.3-.1-8-2.4.1-4.6.1-6.9.2z"/><path d="m223.7 550.1c-2.3 0-4.6.1-6.9.1-.2-14.3-.4-28.7-.5-43.1-3.6.3-7.2.7-10.7 1.1.2 16.8.5 33.6.7 50.4h17.6c-.2-2.9-.2-5.7-.2-8.5z"/><path d="m257.7 508.9c-1.5-1.4-2.9-2.7-4.4-4.1-6.9.2-13.8.6-20.6 1 .2 17.6.3 35.2.5 52.7h20.4c1.4-1.4 2.9-2.8 4.3-4.2 0-7.3-.1-14.7-.1-22-.8-.8-1.6-1.7-2.4-2.5.8-.8 1.6-1.7 2.4-2.5 0-6.2 0-12.3-.1-18.4zm-14.1 5c.7 0 1.5-.1 2.2-.1.3.4.7.8 1 1.3 0 3.3 0 6.6.1 9.9-.3.3-.7.6-1 .9-.7 0-1.5 0-2.2.1 0-4.1 0-8.1-.1-12.1zm2.5 36c-.7 0-1.5 0-2.2 0 0-5.1-.1-10.2-.1-15.2.7 0 1.5 0 2.2-.1.3.4.7.8 1 1.2 0 4.4.1 8.8.1 13.2-.3.3-.6.6-1 .9z"/><path d="m271.9 504.4c-1.4 1.4-2.9 2.9-4.3 4.3 0 15.2.1 30.4.1 45.7 1.4 1.4 2.8 2.8 4.2 4.3h16.2c1.4-1.4 2.9-2.8 4.3-4.2.1-15.2.1-30.4.2-45.6-1.4-1.4-2.9-2.9-4.3-4.3-5.5-.3-11-.3-16.4-.2zm9.8 44.5c-.3.3-.7.6-1 .9-.4 0-.8 0-1.2 0-.4-.3-.7-.6-1.1-.9 0-11.6 0-23.2 0-34.9.4-.3.7-.6 1.1-.9h1.2c.3.3.7.6 1 .9z"/><path d="m302.5 504.7c-.1 16.5-.2 33.1-.3 49.6 1.4 1.4 2.8 2.8 4.2 4.2h16.2c1.4-1.4 2.9-2.8 4.3-4.1.2-16.1.4-32.3.5-48.4-3.6-.3-7.2-.5-10.8-.7-.1 14.6-.3 29.2-.4 43.7-.3.3-.7.5-1 .8-.4 0-.8 0-1.1 0-.4-.3-.7-.6-1.1-.8.1-14.6.2-29.3.4-43.9-3.7-.1-7.3-.2-10.9-.4z"/><path d="m337.3 506.8c-.2 17.3-.4 34.5-.7 51.8h10.7c.1-7.3.2-14.6.3-22 .7 0 1.5.1 2.2.1.3.3.7.6 1 .8-.1 7-.2 14-.3 21h10.7c.1-7.6.2-15.2.3-22.8-.9-.9-1.8-1.7-2.8-2.6.9-.7 1.9-1.4 2.8-2.1.1-5.9.2-11.8.3-17.8-1.4-1.5-2.8-2.9-4.2-4.4-6.6-.7-13.5-1.4-20.3-2zm13.7 21c-.3.2-.7.5-1 .7-.7 0-1.5-.1-2.2-.1.1-4.1.1-8.2.2-12.3.7.1 1.5.1 2.2.2.3.3.7.6 1 .9-.1 3.5-.1 7.1-.2 10.6z"/><path d="m386.2 532c-1.5-6.4-3-12.9-4.5-19.6-3.3-.6-6.6-1.1-9.8-1.6-.2 15.9-.5 31.9-.7 47.8h10c.1-6.4.2-12.7.3-19.1 1.5 6.5 3.1 12.8 4.6 19.1h9.8c.2-14.5.4-29 .5-43.5-3.3-.7-6.6-1.3-9.9-1.9-.2 6.3-.3 12.6-.3 18.8z"/><path d="m405.6 558.7h17.6c0-2 0-4 0-6-2.3-.1-4.5-.2-6.8-.3 0-3.7 0-7.4.1-11.1 2 .2 4.1.5 6.1.7 0-2 0-4.1 0-6.1-2-.3-4-.7-6.1-1 0-2.9 0-5.8 0-8.7 2.2.5 4.5 1 6.7 1.5 0-2 0-4 0-6-5.7-1.6-11.4-3-17.2-4.3-.2 13.7-.3 27.5-.4 41.3z"/><path d="m312.6 177.1c-16.7 10.2-30.3 6.3-33.5 5.2l-.2.3c7.3 7.4 9.4 17.7 9.9 21.5l.5.1c1.2-2.9 5.3-8 9.8-12.9h-6.5l14.5-8.3c2.6-2.7 4.7-4.7 5.6-5.6z"/><path d="m413.7 199.4c31.9 9.7 49.3 17.1 74.9 27.7-.9 10.1-2.9 34.7-12.6 61.3 6.5 5.7 13.1 11.3 20.3 17.1 13.7-40.5 13.2-67.7 14-69.3-3.1-6.1-6.3-12.2-9.9-18.3-31.1-10-53.8-16.5-92.7-25z"/><path d="m192.8 278.8c1.4-4 4-12.9 6.3-21.3 1.4-5.2 2.9-10.9 4.5-16.7 3.9-14.8 7.8-30.5 10.5-41 .2 1.1.3 2.2.6 3.3h.4.7c.1-.3.1-.5.2-.8l1.5-6.7v-.1c-.1-12 3.9-24.7 11.7-37.7.7-1.1 1.4-2.3 2.1-3.4l.1-.2-.8-6.8-.3-.1c-69.3-25.6-81.1-51.5-85-60.1-2.5-5.4-7.5-11.8-8.5-13.1-.2-.3-.5-.6-.9-.8-2.9-2-5.7-4-8.5-6-1-.7-2-1.4-3-2.1 5.7-.5 11.4-.8 16.9-.8 62.6 0 98.7 35 113 52.7h.4.3.1c5 .4 14 1.8 19 3.9v-.1c-4.8-3-6.5-3.5-11.3-6.5 6.8-1.6 15.5-3.2 22.4-4.7l.7-.1.3-.1c.1 0 .8-.1 2-.2s3.2-.2 5.5-.3h.2c4.2 0 8.2.4 11.8 1.3.2 0 18.6 4.1 40.5 23.8-1.4 4.4-4.3 13.6-4.3 13.6l2.7 3.8c15 20.9 31.7 43.3 50.9 68.6l-.6 1.7c-.3.1-.6.2-.9.3-4.2 1.3-10.9 3.2-14.8 3.5-.1 0-.1 0-.2 0-2.2 0-2.3-.4-6.1-2.5-1.3-.7-2.7-1.5-4-2.2l-3.1-1.8-34.2-38.1.1 2.1c.4.5.8 1.1 1.2 1.6 2.8 4 5.6 7.8 8.5 11.8 3.9 5.7 12.4 17 16.6 23l10.9 18.3 17.9 6.9c-1.6 4.8-2.4 7.9-4 12.8l-10.7 6.8c-1.3.9-2.6 1.6-4 2.3-6.9 3-7.2 2.7-7.2 2.7-1.1.3-1.7.4-2.8.5l-.4-.3-22.2-16.4-8.2-6.3-1.6-1.2c-1.1 1.1-2.1 2.1-3 3-.3.3-.7.7-1 1-.1 1.3-.1 2.5-.1 3.2v.1.5c-11.5-7.5-33.8-18-33.8-18-1-4 .9-7.9 1.7-9.3-.2-.2-.3-.4-.5-.6l-.6-1.2c-.7 1-8 11.1-18.8 15.2-2.9 1.1-6 1.8-9.3 1.8-1.4 0-2.8-.1-4.3-.3-14.4-1-24.3-10.6-29-16.3 0 0-.1-.1-.1-.1l-.1-.1c-.1-.1-.7-.8-1.7-2.2-.3-.4-.6-.8-.8-1.1s-.2-.3-.4-.6l-.5.2c-.5-.9-1.1-2-1.6-2.9l-.2.2c.3 1.8.5 3.6.8 5.5 0 0 .3.7 1 1.8.5.8 1.3 1.9 2.3 3.2 3.2 4 6.5 7.8 11.3 10.5.4.2.9.5 1.3.7h.1l.7.3h.1c9.5 4.4 10.4 4.8 25 7.2l-.9 3.7 15.1-3.5 12-2.8-1.8 4.1-.1.3s1.7.1 4.4.5c.4.1.8.1 1.2.2 4 .7 9.7 2.3 15.4 5.4.2.1.4.2.7.3 1.8.8 3.4 1.7 4.7 2.6 1.2 3.7 2.5 8 2.6 8.2l1.1 4.9 1.8.9c.2.1 19.9 6.9 33.8 6.9.9 0 1.7 0 2.5-.1 1.3-.1 2.8-.4 4.4-.8 2.8-.7 6-1.9 9.4-3.6 2.1-1 4.4-2.2 6.7-3.6 14.7 9.1 28.5 17.5 41.6 25.4 6.6 4 13 7.9 19.4 11.6l.2.1 3.2-1.3-.8-.6c-7-5.5-14-11.2-21-16.8-8.3-6.6-16.8-13.4-25.3-20.3-2.1-1.7-4.3-3.4-6.4-5.2.6-.4 1-.7 1.4-1 4-1.6 8.1-3.2 12.1-4.8l.3-.1v-.4c.9-11.6 1.9-23.8 3-37.5l.2-2.3-.2-.2c-21.9-26.1-40.2-48.4-56.9-69.4 2.9-5.1 5.8-10.3 8.7-15.4l.2-.4-2.5-2.3c-11.2-10.5-16.3-13.3-23.3-17 3.7-3.2 14.4-13.4 21.3-26.3 11.1-21 12.6-39.6 7.8-61.8-1.7-7.5-3.5-11.9-4.6-11.8 0 0-.2-.1-.6.3-3.5 4.5-7.1 8.9-10.7 13.4-3.5 5.1-7 10.1-10.5 15.2-3 2.2-11.4 8.5-21.3 19.3l.7-4.6-10.5 16.3c-6.1 8-11.9 17.3-16.2 27.7l-3 .6h-.2l-4.4 1 2.5 2.2c-3.5-.1-11.1-.2-11.1-.2l-1.4 3.6c-3.9-.2-11.1-2-11.1-2l-.9 2.7c-5.8-6.7-15.7-17.6-29.6-26.8-2-1.3-4.1-2.6-6.2-3.8l-2.1-1.2-23.3-13.8.3 3.4c-17.8-6.1-36.9-8.8-57.2-8.8-8.9 0-17 .1-26.3 1.4-1.8.2-4.2.5-4.7 2.3s.2 3.6 1.7 4.6c6.9 4.8 13.8 9.6 20.7 14.4 1.5 2 5.2 6.8 7 10.8 7.2 15.6 22.7 41.2 83.7 64.5-4.3 10.3-6 17.9-7 26.6-1.5-2.5-3.1-5.2-4.1-6.8.1-.1-5.8 26.4-10.9 54.3l-90 66.4h5.8c1.9-1 5.1-2.8 8.9-5 12.2-6.9 31.4-18 38-21.9 0 0 3-6.2 2.7.9 10.4-6.3 20.6-12.6 30.8-18.8-1.1 7.1-2.1 13.9-2.8 19.8-.2 2.2-.7 6-.9 7.9zm126.3-172.6c-3.5-1.5-6.3-2.6-8.1-3.1-.1 0-.2-.1-.3-.1-2.2-.7-3.4-1-3.4-1-1.1-.3-2.3-.5-3.6-.7 0 0 0 0-.1 0 .9-9.9 20.4-39.4 20.4-39.4-8.3 5.8-21.3 27.1-27 36.7-.4.7-.8 1.4-1.2 2-.1 0-.2 0-.3 0-.7 0-1.3 0-1.9 0-.2 0-.5 0-.7 0 8.6-19.5 22.3-35.1 32.4-44.8 2.9-2.8 5.9-5.5 8.8-7.9.8-.8 1.4-1.4 1.9-2 .1-.2.3-.3.4-.5 3.4-4.6 6.9-9.3 10.3-13.9l1.3-1.5c1.2-1.6 2.8-3.3 4.1-4.7.9-.9 1.7-1.6 2.4-2 .2.3.6.9 1.1 2.7v.2c4.5 20.2.4 39.7-12.2 57.9-9.2 13.4-20.1 21.5-22.3 23.1-.7-.4-1.3-.7-2-1zm71.7 148.3 2.7-5.6.3-.6.4-.8 2.1-4.2 3.3-6.9-1.7 17-8 2.9zm-39.3 16c-13.7 0-26.7-4-28.1-5-.5-1.5-.4-5.1-.4-8.1h.2c2.1.5 4.1.9 6 1.4 14.5 3.8 22.6 8.3 26.9 10.9l.6.3c-1.9.6-5.2.5-5.2.5z"/><path d="m289.3 142.9 2.6 7.3-4.5-3.9c-6.5-5.3-14.2-9.6-22.9-12.8-2.6.2-4.9.5-6.4.7 4.3 2 8.3 4.5 11.8 7.6 2.5 2.3 7.9 7.8 4.5 10.9-1.4.7-2.3.3-3.2-.1l-.4.4c.4.4 1.5 1.1 2 1.4 2.5 1.8 5.2 4.4 7.3 6.6-.3-3 1.6-4.5 4.1-5.6-1-2-2.6-3.3-4-4.7 2.6.9 5.7 3.5 8.1 5.6-1.5.8-2.5 1-3.3 2-6.5 8 11.6 15.7 14.2 5.5 1.4.4 2.8.8 4.3 1-.4.6-2.4 1.2-3.2.8.7 7.6-8 11.1-15.9 10.6l.2.4c6.8 2.9 19-2.6 23.8-7.5.8-.8 1.5-2.3 2.5-2.8.6-.3 2.3.6 3.5 1 2.8-1.5 11.8-6.3 17.8-9.6l-2.6.1c-8 2.1-17.4 2.9-23.2 1.3-6.5-2.2-15.4-14.3-16.8-16.2zm6.9 20.1c-.7 1.1-1.5 2.3-3.7 2.2 1.3-.8 1.1-2.7 1.5-4.1 2.1.9 2.2 1.9 2.2 1.9z"/><path d="m85 404.8c-5.7-25.8-11.4-52.3-17.1-79.8-12 0-24.1 0-36.1 0v215.4c11.9-5.7 23.8-11 35.8-15.7.1-27.5.2-55 .3-82.5 5.8 26.1 11.5 51.4 17.2 75.9 11.8-4.2 23.7-7.9 35.6-11.2.4-60.7.8-121.4 1.3-182-12.2 0-24.4 0-36.6 0-.1 26.7-.2 53.3-.4 79.9z"/><path d="m152.2 324.9c-5.2 4.6-10.4 9.2-15.5 14-.4 50-.7 100.1-1.1 150.1 5.1 3.5 10.2 6.9 15.4 10.4 19.8-4.3 39.6-7.6 59.5-9.9 5.3-4.9 10.6-9.7 15.9-14.4.2-45.8.4-91.6.6-137.4-5.2-4.2-10.4-8.5-15.6-12.8-19.8 0-39.5 0-59.2 0zm34.7 137.9c-1.2 1-2.5 2.1-3.7 3.1-1.4.2-2.8.4-4.2.6-1.3-.7-2.6-1.4-3.9-2.1.2-36.4.5-72.8.7-109.1 1.3-.9 2.6-1.9 3.9-2.8 1.4 0 2.8-.1 4.2-.1 1.2.9 2.4 1.7 3.7 2.5-.3 36-.5 71.9-.7 107.9z"/><path d="m332.2 412.2c-3.4-2.8-6.9-5.6-10.3-8.3 3.4-2.4 6.8-4.9 10.2-7.3-.1-19.6-.2-39.2-.2-58.9-5.2-4.3-10.5-8.6-15.7-12.8-24.9 0-49.7 0-74.6 0-.2 54-.3 107.9-.5 161.9 13.2-.8 26.5-1.2 39.7-1.2 0-23.2 0-46.4 0-69.5h8.2c1.2.9 2.5 1.7 3.7 2.6 0 22.4 0 44.7.1 67.1 13.3.3 26.5 1 39.7 2.1-.1-25.3-.2-50.5-.3-75.7zm-43.2-22.3c-2.7 0-5.4 0-8.1 0 0-12.9 0-25.9 0-38.8h8.1c1.2.8 2.4 1.7 3.7 2.5v33.8c-1.2.8-2.4 1.7-3.7 2.5z"/><path d="m338.6 324.9c0 8.9.1 17.8.1 26.6 8.3.1 16.6.3 24.9.5.3 46.5.6 93 .8 139.6 13.2 1.9 26.4 4.2 39.5 7-.3-48.5-.7-97-1-145.4 8.3.3 16.6.6 24.9 1-.1-9.7-.1-19.5-.2-29.2-29.7-.1-59.3-.1-89-.1z"/><path d="m487.3 324.9c.1 25.7.2 51.5.3 77.2-4-.6-8-1.2-12-1.7-.1-25.2-.3-50.4-.4-75.5-13 0-26 0-39 0 .4 60.6.8 121.3 1.3 182.1 13 3.6 25.9 7.7 38.7 12.3-.2-29.1-.3-58.2-.4-87.2 4 .8 8 1.6 11.9 2.5.1 29.7.2 59.5.4 89.2 12.8 5 25.5 10.5 38.2 16.6 0-71.8 0-143.6 0-215.4-13-.1-26-.1-39-.1z"/><path d="m285.1 602.5-5 3.5-39-35.9h-24.6c28.6 28.2 50.7 46.1 52.1 47.2h16l53.6-47.3h-9z"/><path d="m79.2 283.1c-8.2-24.5-10-44.2-11-55.1-2.1-.2-4.2-.4-6.2-.5 2-.8 4-1.6 6-2.4 0-.1 0-.1 0-.2 32.1-12.7 72-25.8 111.8-36.5 1.3-1.8 2.6-3.5 3.9-5.2-44.9 8.9-91.3 20.7-127.6 32.4-3.6 6.1-6.8 12.3-10 18.3.8 1.7 0 25.4 13 66.2 7.1-5.6 13.6-11.3 20.1-17z"/><path d="m154.5 92.1c43.6 44.4 67.8 47.4 78.5 45.5-2.7-1.8-9.2-4.6-11.9-6.4h8.2c-1.3-1.5-2.7-3-4-4.5 3.6 1 7.1 1.9 10.7 2.8-6.1-7.1-14.4-13-23.4-18l-26.9-9.5 3.2-.9c-16.3-5.9-29.8-8.6-33.2-9.3z"/></g></svg>