<svg enable-background="new 0 0 203.0302887 196.1940308" height="310.858" viewBox="0 0 203.03 196.194" width="321.69" xmlns="http://www.w3.org/2000/svg" xmlns:xlink="http://www.w3.org/1999/xlink"><clipPath id="a"><path d="m0 0h203.03v196.194h-203.03z"/></clipPath><clipPath id="b"><path d="m27.926 33.938c1.655 30.598 14.973 79.417 73.598 124.605 58.625-45.188 71.944-94.007 73.656-124.605z"/></clipPath><path clip-path="url(#a)" d="m180.72 160.015c0 4.046-3.282 7.33-7.329 7.33s-7.329-3.284-7.329-7.33c0-4.049 3.282-7.331 7.329-7.331s7.329 3.282 7.329 7.331" fill="#fff"/><path clip-path="url(#a)" d="m183.261 86.968s.885 10.559 1.336 17.501c1.901-1.608 3.849-3.256 3.849-3.256 10.521-8.867 10.521-8.867 12.581-7.456l2.003 1.375-.797 2.298c-9.233 26.493-21.433 45.256-30.047 56.331-.641.824-15.709 20.11-20.991 19.217l-2.271-.385-.465-2.859.106.704c-.871-2.226-9.97-13.432-11.29-14.88l-2.068-2.26 2.131-2.204c28.298-27.803 39.746-65.127 39.86-65.501 0 0 .812-2.448 1.163-4.329 1.887 1.04 4.63 1.559 4.9 5.704" fill="#fff"/><path clip-path="url(#a)" d="m171.914 162.296h.776v-1.74h.614c.413 0 .699.05.865.141.276.17.415.506.415 1.015v.351l.015.139.011.051.011.043h.731l-.026-.052-.041-.231-.014-.327v-.322l-.238-.686c-.162-.232-.416-.378-.76-.434l.636-.214c.293-.182.437-.475.437-.868 0-.555-.229-.926-.683-1.116-.26-.105-.66-.158-1.204-.158h-1.545zm2.217-2.378c-.166.065-.411.097-.74.097h-.701v-1.597h.662c.432 0 .743.055.939.161.196.113.293.328.293.65 0 .339-.152.566-.453.689m2.247-2.649c-.782-.782-1.73-1.172-2.846-1.172-1.106 0-2.049.39-2.827 1.172-.784.784-1.18 1.729-1.18 2.834 0 1.116.392 2.065 1.17 2.849.779.791 1.725 1.185 2.837 1.185 1.116 0 2.064-.394 2.846-1.185.785-.788 1.179-1.736 1.179-2.849 0-1.108-.394-2.054-1.179-2.834m-.398.387c.671.679 1.01 1.493 1.01 2.447 0 .962-.339 1.783-1.01 2.465-.672.675-1.491 1.013-2.448 1.013-.958 0-1.775-.338-2.443-1.013-.668-.682-1.004-1.503-1.004-2.465 0-.954.338-1.768 1.008-2.447.677-.675 1.487-1.017 2.439-1.017.957 0 1.772.342 2.448 1.017"/><g fill="#fff"><path clip-path="url(#a)" d="m159.15 150.266-23.944 3.032 12.898 21.477 24.054-4.052-11.1-20.472z"/><path clip-path="url(#a)" d="m19.772 86.968s-.883 10.559-1.335 17.501c-1.9-1.608-3.849-3.256-3.849-3.256-10.521-8.867-10.521-8.867-12.581-7.456l-2.007 1.375.801 2.298c9.233 26.493 21.436 45.256 30.05 56.331.639.824 15.706 20.11 20.988 19.217l2.272-.385.464-2.859-.104.704c.867-2.226 9.971-13.432 11.288-14.88l2.064-2.26-2.124-2.204c-28.302-27.803-39.75-65.127-39.863-65.501 0 0-.815-2.448-1.163-4.329-1.887 1.04-4.628 1.559-4.901 5.704"/><path clip-path="url(#a)" d="m41.843 151.931-12.941 17.328 23.738 3.93 15.184-19.891-25.048-2.896z"/><path clip-path="url(#a)" d="m157.137 151.028c-23.705 17.266-46.323 18.737-54.946 18.569l-.671.21-.669-.21c-8.621.168-31.239-1.303-54.941-18.569l-2.589-1.885-14.418 20.116 1.842 1.906c.991 1.025 24.763 25.029 70.775 25.029 46.013 0 69.788-24.004 70.776-25.029l1.844-1.904-14.418-20.118z"/><path clip-path="url(#a)" d="m172.738.001h-144.831l-.654 2.306c-.24.848-22.936 85.33 72.328 158.754l1.939 1.494 1.94-1.494c95.271-73.42 72.575-157.906 72.334-158.754l-.66-2.306h-2.396z"/></g><path clip-path="url(#a)" d="m181.804 110.96-1.597-24.455s-10.94 38.067-40.199 66.812l10.716 17.384c1.423-1.368 30.64-23.133 48.477-74.319z"/><path clip-path="url(#a)" d="m139.894 153.302.051-.048c14.618-14.365 24.663-31.06 31.053-44.162 6.391-13.105 9.116-22.59 9.122-22.612l.176.018 1.584 24.28 17.508-14.68-.104.311c-17.84 51.205-47.084 72.994-48.498 74.353l-.083.079zm10.848 17.259c2.196-1.938 30.684-23.701 48.267-73.902l-17.15 14.369-.135.111-1.575-24.129c-1.377 4.484-12.712 39.448-40.028 66.319zm31.062-59.603.087-.006z"/><path clip-path="url(#a)" d="m159.173 153.442 7.943 14.645-16.301 1.828-10.3-16.344z" fill="#fff"/><path clip-path="url(#a)" d="m140.389 153.499 18.782-.128v.071l.064-.035 7.993 14.737-16.474 1.808zm.25.139 10.166 16.204 16.195-1.816-7.871-14.514z"/><path clip-path="url(#a)" d="m21.197 110.96 1.596-24.455s11.42 38.108 40.676 66.856c-.077-.013-12.072 14.398-12.072 16.373 0 1.976-29.758-22.166-47.595-73.352z" fill="#ed1b2f"/><path clip-path="url(#a)" d="m3.717 96.41-.107-.303 17.507 14.668 1.586-24.277.174-.02c.013.022 2.852 9.521 9.363 22.633 6.508 13.115 16.672 29.82 31.29 44.185l-.006.006.023.015.002.002-.082.061.05.051c-.004.005-.014.015-.026.029-.024.026-.061.066-.107.119-.091.105-.225.259-.392.458-.337.397-.811.967-1.379 1.657-1.136 1.381-2.641 3.243-4.143 5.166-3.004 3.829-6.004 7.972-5.984 8.873 0 .117-.11.199-.217.199-2.233-.044-30.356-24.246-47.552-73.522m47.552 73.342c.039-.012.027 0 .039-.019.067-2.001 10.813-15.038 12.048-16.359-27.35-26.901-39.098-61.952-40.506-66.379l-1.564 23.97-.013.174-17.278-14.477c17.136 49.013 45.296 73.136 47.274 73.09m-30.073-58.792.058-.072z"/><path clip-path="url(#a)" d="m43.918 153.321h19.451v.179h-19.451z"/><path clip-path="url(#a)" d="m44.558 153.583-8.832 14.504 14.828.572 12.332-15.02z" fill="#fff"/><path clip-path="url(#a)" d="m101.52 172.777c0-.196-27.787 2.449-57.482-19.181l-11.008 15.362s23.295 24.06 68.49 24.06c45.196 0 68.492-24.06 68.492-24.06l-11.006-15.362c-29.696 21.63-57.486 18.985-57.486 19.181" fill="#fff"/><path clip-path="url(#a)" d="m32.967 169.019-.053-.056 11.104-15.493.073.051c24.747 18.028 48.164 19.179 55.252 19.179 1.04 0 1.724-.026 2.021-.026.079 0 .125 0 .168.008v.001c.007-.002.013-.005.019-.009.032-.002.07-.004.123-.004.297 0 .982.03 2.022.03 7.087 0 30.51-1.151 55.257-19.179l.07-.053 11.104 15.495-.051.056c-.01.01-23.326 24.088-68.555 24.088-45.228 0-68.546-24.078-68.554-24.088m17.402 11.889c11.461 6.009 28.57 12.02 51.152 12.02 22.581 0 39.689-6.011 51.15-12.02 10.853-5.689 16.628-11.36 17.225-11.96l-10.91-15.228c-24.765 18.005-48.192 19.156-55.29 19.156-1.044 0-1.735-.028-2.022-.028-.072 0-.116.004-.116.004l-.026-.075h-.023l-.02.08-.017-.002c-.021 0-.057-.003-.108-.003-.29 0-.981.024-2.021.024-7.1 0-30.523-1.154-55.285-19.157l-10.911 15.229c.608.603 6.377 6.276 17.222 11.96"/><path clip-path="url(#a)" d="m129.92 183.853c2.589-.792 2.301-3.381 1.666-5.74-.646-2.383-1.798-4.683-4.781-3.77l-2.631.804 2.93 9.568z"/><path clip-path="url(#a)" d="m105.831 182.126c.122 2.774.561 5.443 3.487 5.343 2.916-.102 3.185-2.8 3.099-5.57-.064-2.292-.52-4.979-3.439-4.872-2.973.102-3.227 2.805-3.147 5.099"/><path clip-path="url(#a)" d="m95.717 186.019c.712-.856.887-3.292.913-3.989.08-2.293-.183-4.998-3.156-5.1-2.923-.101-3.365 2.577-3.446 4.872-.066 2.775.182 5.464 3.103 5.568.737.026 1.586-.239 2.025-.65l1.09.972.58-.673z"/><path clip-path="url(#a)" d="m30.31 3.177s-23.454 82.413 71.21 155.369c94.666-72.956 71.218-155.369 71.218-155.369z" fill="#fff"/><path clip-path="url(#a)" d="m101.465 158.617c-63.324-48.801-73.824-101.846-73.82-131.638 0-14.766 2.577-23.822 2.58-23.827l.017-.065h142.562l.02.065c0 .005 2.573 9.057 2.573 23.817.003 29.792-10.495 82.843-73.822 131.648l-.056.041zm-73.641-131.638c.002 29.742 10.471 82.696 73.695 131.453 63.229-48.76 73.699-101.721 73.699-131.463 0-14.03-2.32-22.866-2.551-23.703h-142.289c-.222.837-2.554 9.678-2.554 23.713m2.486-23.713v-.089z"/><path clip-path="url(#a)" d="m101.465 158.617c-58.648-45.203-71.988-94.046-73.635-124.682l.179-.009c1.647 30.585 14.949 79.344 73.511 124.506 58.561-45.162 71.868-93.921 73.566-124.506l.178.009c-1.698 30.636-15.042 79.479-73.69 124.682l-.056.042z"/><path clip-path="url(#a)" d="m89.1 33.931h24.91v114.382l-12.489 10.234-12.421-10.208z"/><path clip-path="url(#a)" d="m89.087 148.339v-114.407h.012v-.013l24.922.013-.005 114.387-12.505 10.235zm.019-.009 12.405 10.207 12.486-10.224.011-114.369h-24.897z"/><path clip-path="url(#a)" d="m175.121 33.931c1.01-18.813-2.384-30.755-2.384-30.755h-142.428s-3.4 11.942-2.39 30.755z" fill="#ed1b2f"/><path clip-path="url(#a)" d="m27.834 34.021-.006-.084c-.131-2.435-.186-4.754-.186-6.946 0-14.772 2.58-23.834 2.582-23.839l.018-.065h142.563l.019.065c0 .005 2.573 9.061 2.573 23.827 0 2.197-.056 4.518-.186 6.958l-.005.084zm147.287-.089v-.09zm-.085-.09c.127-2.404.182-4.696.182-6.863 0-14.035-2.321-22.875-2.551-23.713h-142.288c-.223.838-2.558 9.683-2.558 23.725 0 2.164.054 4.45.182 6.851z"/><path clip-path="url(#a)" d="m49.712 168.456c-1.237 2.487-2.147 5.032.458 6.36 2.602 1.324 4.137-.9 5.413-3.365 1.057-2.041 1.957-4.607-.648-5.932-2.65-1.35-4.185.893-5.223 2.937"/><path clip-path="url(#a)" d="m63.564 12.792h2.75v-3.87h-9.793v3.87h2.631v8.134h4.412zm41.495 10.487c-1.678 0-3.042 1.336-3.042 3.009 0 1.677 1.364 3.078 3.042 3.078 1.676 0 3.043-1.401 3.043-3.078 0-1.673-1.367-3.009-3.043-3.009m-50.709-13.284c-1.48-1.395-4.479-2.291-6.638-2.291-4.093 0-7.093 2.754-7.093 6.168 0 3.188 2.292 4.524 5.415 5.615 1.905.632 4.225 1.23 4.225 3.359 0 1.582-1.192 2.972-3.128 2.972-2.032 0-3.739-1.419-4.384-3.003l-3.06 2.539c1.676 2.375 4.124 4.012 7.476 4.012 4.964 0 7.997-2.92 7.997-7.042 0-6.901-9.641-5.454-9.641-8.918 0-1.337 1.453-2.318 2.964-2.318 1.584 0 2.744.653 3.644 1.691zm32.301 7.656-.061-8.541h-4.575v20.256h4.575v-9.108l7.556 9.108h5.881l-9.392-10.907 8.892-9.349h-5.63zm-25.265 5.628c-1.673 0-3.043 1.336-3.043 3.009 0 1.677 1.37 3.078 3.043 3.078 1.675 0 3.048-1.401 3.048-3.078 0-1.673-1.373-3.009-3.048-3.009m69.486 0c-1.676 0-3.042 1.336-3.042 3.009 0 1.677 1.366 3.078 3.042 3.078 1.675 0 3.041-1.401 3.041-3.078 0-1.673-1.366-3.009-3.041-3.009m34.955 0c-1.672 0-3.043 1.336-3.043 3.009 0 1.677 1.371 3.078 3.043 3.078 1.674 0 3.042-1.401 3.042-3.078 0-1.673-1.368-3.009-3.042-3.009m-6.302-13.638c-1.487-.738-3.18-1.158-4.903-1.158-6.446 0-10.849 4.972-10.849 10.596 0 5.474 4.58 10.287 10.761 10.287 1.783 0 3.386-.501 4.991-1.184v-4.604c-1.196 1.237-3.033 2.103-4.872 2.103-3.999 0-6.448-3.341-6.448-6.683 0-3.414 2.363-6.833 6.478-6.833 1.836 0 3.646.79 4.842 2.102zm-30.944 2.792v-3.462h-11.815v20.395h4.643v-8.981h6.729v-3.463h-6.729v-4.489z" fill="#fff"/><path clip-path="url(#a)" d="m43.543 170.552 2.573-3.962 2.794 1.817.545-.838-2.794-1.817 1.784-2.755 3.013 1.955.545-.838-3.943-2.557-5.447 8.39z"/><path clip-path="url(#a)" d="m54.546 170.952c-1.322 2.577-2.284 3.81-3.925 2.974-1.641-.838-1.205-2.342.1-4.922.996-1.991 2.192-3.393 3.711-2.62 1.57.804 1.14 2.59.114 4.568" fill="#fff"/><path clip-path="url(#a)" d="m57.453 173.476 1.798.722c1.206.489 1.259 1.432.884 2.359-.249.62-.612 1.81-.63 2.495l1.197.482.087-.21-.125-.726c.183-.731.395-1.436.638-2.145.35-1.295.209-1.803-.945-2.394l.009-.028c1.135.284 2.116-.223 2.6-1.297.922-2.113-.11-3.119-2.051-3.907l-2.387-.965-3.751 9.277 1.026.417z"/><path clip-path="url(#a)" d="m59.178 169.208 1.448.584c.692.279 1.927.82 1.305 2.428-.625 1.63-1.99 1.165-2.481.978l-1.621-.651z" fill="#fff"/><path clip-path="url(#a)" d="m64.555 171.375 2.401.97-3.375 8.352 1.026.413 3.374-8.349 2.4.968.375-.926-5.826-2.351z"/><path clip-path="url(#a)" d="m65.498 177.268h10.005v1.107h-10.005z" transform="matrix(.309 -.951 .951 .309 -120.405 189.903)"/><path clip-path="url(#a)" d="m72.202 181.185c-.369 1.747.609 2.84 2.385 3.218 1.778.379 3.113-.222 3.486-1.972l1.58-7.423-1.084-.233-1.496 7.036c-.151.77-.542 1.982-2.279 1.615-1.733-.367-1.605-1.638-1.426-2.403l1.496-7.035-1.086-.231z"/><path clip-path="url(#a)" d="m86.392 179.131c.496-1.821-.404-2.98-2.192-3.356-1.593-.342-2.949.474-3.294 2.091-.209.969-.138 1.8.689 2.468.46.381 1.265.841 1.755 1.167.914.587 1.51.727 1.196 2.213-.246 1.149-1.135 1.546-2.233 1.316-1.632-.347-1.709-1.321-1.35-2.755l-1.083-.231c-.097.523-.278 1.303-.17 1.828.288 1.403 1.379 1.92 2.343 2.126 1.878.399 3.272-.438 3.665-2.289.277-1.293.078-2.019-1.631-3.106-.478-.307-.948-.609-1.428-.914-.574-.371-.785-.849-.644-1.53.16-.757.54-1.712 2.121-1.378 1.083.234 1.464 1.116 1.173 2.119z"/><path clip-path="url(#a)" d="m94.355 186.039c-.412.278-.772.335-1.214.331-1.709-.006-2.073-1.86-1.981-4.089.116-2.891.462-4.414 2.305-4.352 1.839.066 2.08 1.612 2.003 4.503-.022 1.066-.311 2.473-.554 2.852l-.904-.779-.615.713z" fill="#fff"/><path clip-path="url(#a)" d="m98.31 184.958c-.064 1.785 1.09 2.695 2.906 2.756 1.815.067 3.033-.761 3.093-2.549l.264-7.586-1.106-.037-.251 7.187c-.013.788-.189 2.048-1.965 1.986-1.775-.06-1.865-1.333-1.826-2.117l.257-7.19-1.109-.037z"/><path clip-path="url(#a)" d="m111.272 181.964c.09 2.896-.15 4.438-1.993 4.5-1.839.066-2.185-1.456-2.297-4.352-.093-2.224.272-4.025 1.977-4.084 1.762-.063 2.253 1.708 2.313 3.936" fill="#fff"/><path clip-path="url(#a)" d="m118.658 186.176-.572-4.687 3.307-.407-.119-.989-3.314.402-.397-3.255 3.559-.436-.12-.995-4.661.575 1.218 9.93z"/><path clip-path="url(#a)" d="m124.748 185.018-2.086-9.792-1.081.233 2.083 9.788z"/><path clip-path="url(#a)" d="m125.527 175.776 1.695-.515c1.707-.522 2.461.837 3.204 2.996.977 2.828.697 4.181-.862 4.657l-1.698.521z" fill="#fff"/><path clip-path="url(#a)" d="m139.56 180.961-.291-.956-3.753 1.146-1.08-3.534 3.497-1.069-.291-.959-3.498 1.071-.971-3.165 3.731-1.138-.295-.958-4.785 1.463 2.929 9.569z"/><path clip-path="url(#a)" d="m145.936 178.3-.373-.93-3.785 1.534-3.375-8.352-1.026.413 3.748 9.277z"/><path clip-path="url(#a)" d="m145.118 167.981h1.111v10.008h-1.111z" transform="matrix(.891 -.454 .454 .891 -62.665 85.009)"/><path clip-path="url(#a)" d="m149.443 174.001c.811 1.592 2.266 1.824 3.885 1 1.615-.824 2.278-2.136 1.463-3.73l-3.444-6.764-.988.502 3.267 6.409c.37.696.826 1.888-.754 2.691-1.583.807-2.275-.261-2.625-.971l-3.264-6.405-.985.502z"/><path clip-path="url(#a)" d="m158.301 163.228c-.907-1.651-2.359-1.861-3.911-.892-1.381.863-1.79 2.395-.912 3.801.518.832 1.149 1.386 2.208 1.293.6-.047 1.494-.273 2.073-.385 1.068-.207 1.592-.522 2.4.767.619.995.261 1.901-.695 2.494-1.413.884-2.143.239-2.884-1.045l-.942.586c.298.447.711 1.132 1.15 1.437 1.182.808 2.326.424 3.163-.106 1.628-1.012 2.051-2.583 1.045-4.189-.696-1.119-1.346-1.503-3.33-1.096-.557.111-1.106.216-1.662.331-.674.134-1.158-.066-1.527-.654-.409-.655-.801-1.607.571-2.464.936-.586 1.83-.213 2.314.71z"/><path clip-path="url(#a)" d="m154.299 159.517.053-.152 3.037 1.014-.052.152zm-108.728.862 3.037-1.014.051.152-3.037 1.014z"/><path clip-path="url(#b)" d="m174.972 62.147-7.624 24.02h-132.324l-8.61-24.02z"/><path clip-path="url(#b)" d="m35.014 86.171-8.601-24.036h148.558v.012l.011.002-7.634 24.029zm.009-.017 132.314.01 7.617-24.005-148.53-.016z"/></svg>