<svg height="322.554" viewBox="0 0 371.005 385.998" width="310.026" xmlns="http://www.w3.org/2000/svg"><path d="m0 0c.083.037.072.092.014.155-.005-.051-.009-.104-.014-.155" fill="#0e1e2d" transform="matrix(6.25 0 0 -6.25 348.44075 199.4275)"/><path d="m0 0 .058.577.16-.177c.022-.024.089-.098.07-.191-.009-.039-.035-.095-.119-.132zm-26.078-29.302-.941.734c-.889.038-2.078.361-2.351.447l-.531.166.879 2.405c-5.328.551-10.403 2.548-14.688 5.778-4.4 3.319-7.776 7.776-9.764 12.891-.175.451.095 1.138.35 1.393.042.042.077.077.306.198-.339.106-.655.319-.928.625-.271.303-.497.671-.671 1.093-.145.351-.264.727-.364 1.149-.059.249-.114.521-.17.834l-.092.57c-.022.147-.041.292-.059.444l-.055.528c-.014.156-.026.311-.037.471l-.027.519c-.007.171-.012.338-.014.515l.006.59c.02.328.064.793.069.845l.016.163.105.125c.09.109.905 1.057 1.829 1.057.084 0 .214-.01.398-.031-.136.656-.173 1.504-.077 1.845l.304 1.077.064-.091c.195 1.275.483 2.54.857 3.765-.035.676.098 1.667.272 2.013l.504 1.004.176-.397c.558 1.313 1.224 2.589 1.984 3.797.083.776.778 2.009 1.092 2.295l.83.755.018-.353c.824 1.008 1.725 1.961 2.68 2.836.012.062.023.116.034.162.183.774 1.191 1.988 1.59 2.233l.956.587-.136-.997c1.192.858 2.458 1.62 3.768 2.269.058.103.107.184.148.246.418.635 1.724 1.395 2.164 1.484l1.1.225-.355-.672c1.008.351 2.042.643 3.078.87.691 1.18 2.183 2.049 4.104 2.387l.58.102.001-.017c.116.012.231.022.339.03l.55.042v-.016l.055.002c.13.005.226.004.333-.001l.072-.002v.005l.111.002.393-.022v-.01l.07-.006c.091-.007.183-.015.273-.024l.001.006.116-.009.38-.056v-.011l.085-.015c1.932-.341 3.428-1.216 4.113-2.405 1.045-.232 2.085-.53 3.098-.887l-.374.707 1.101-.225c.44-.089 1.746-.849 2.163-1.484.049-.075.109-.174.18-.303 1.271-.636 2.499-1.38 3.657-2.213l-.122.889.955-.588c.382-.235 1.348-1.398 1.522-2.138.007-.027.013-.055.019-.087 1.012-.919 1.961-1.924 2.824-2.989l.023.445.829-.754c.332-.301 1.065-1.623 1.099-2.383.001-.018.002-.037.002-.056.741-1.196 1.391-2.455 1.934-3.747l.219.491.504-1.004c.185-.37.339-1.483.252-2.223.353-1.19.624-2.416.809-3.651l.133.191.302-1.081c.09-.322.061-1.113-.059-1.753.443-.015 1.005-.085 1.392-.314.32-.19.787-.646.839-.698l.144-.141.085-1.206-.005-.643-.02-.542-.04-.584-.041-.443-.071-.588-.062-.416-.118-.645c-.001-.002-.064-.304-.099-.453-.099-.42-.218-.796-.364-1.15-.176-.423-.401-.791-.67-1.092-.264-.296-.57-.505-.898-.616.212-.115.259-.155.298-.189.477-.414.503-.945.368-1.304-1.978-5.177-5.372-9.685-9.814-13.039-4.327-3.266-9.456-5.269-14.842-5.799l.877-2.417-.583-.168c-.893-.264-1.736-.411-2.506-.438z" fill="#0e1e2d" transform="matrix(6.25 0 0 -6.25 347.6595 200.51)"/><g fill="#b9bebf"><path d="m0 0s-1.318 1.713-1.614 2.236c-.295.522-.371 1.889-.284 2.198 0 0 1.612-2.301 1.804-2.847.192-.546.094-1.587.094-1.587" transform="matrix(6.25 0 0 -6.25 32.15575 191.2725)"/><path d="m0 0c.351.496.557 1.885.557 1.885s-1.928-1.607-2.287-2.289c-.166-.316-.191-1.567-.191-1.567s1.569 1.475 1.921 1.971" transform="matrix(6.25 0 0 -6.25 45.81825 174.76375)"/><path d="m0 0s-.68.949-.98 1.654c-.33.771.516 2.694.516 2.694s.594-1.387.599-1.899c.006-.511-.135-2.449-.135-2.449" transform="matrix(6.25 0 0 -6.25 32.6145 179.01875)"/><path d="m0 0s.783.717 1.187 1.355c.443.697.227 2.341.227 2.341s-1.157-1.17-1.239-1.672c-.084-.503-.175-2.024-.175-2.024" transform="matrix(6.25 0 0 -6.25 34.637 173.86125)"/><path d="m0 0s-.965 1.934-1.156 2.503c-.189.57-.001 1.926.143 2.213 0 0 1.141-2.567 1.225-3.14.084-.573-.212-1.576-.212-1.576" transform="matrix(6.25 0 0 -6.25 35.75075 151.35)"/><path d="m0 0c.44.42.909 1.743.909 1.743s-2.201-1.207-2.684-1.809c-.224-.277-.488-1.501-.488-1.501s1.823 1.147 2.263 1.567" transform="matrix(6.25 0 0 -6.25 52.32575 137.76375)"/><path d="m0 0s-.486 1.062-.645 1.811c-.175.82 1.022 2.546 1.022 2.546s.317-1.476.224-1.979c-.092-.503-.601-2.378-.601-2.378" transform="matrix(6.25 0 0 -6.25 38.55325 139.41125)"/><path d="m0 0s.906.554 1.425 1.102c.567.6.671 2.255.671 2.255s-1.359-.927-1.537-1.405c-.179-.477-.559-1.952-.559-1.952" transform="matrix(6.25 0 0 -6.25 41.52575 134.735)"/><path d="m0 0s-.208 2.151-.181 2.751c.026.6.688 1.798.925 2.014 0 0 .146-2.805.019-3.37s-.763-1.395-.763-1.395" transform="matrix(6.25 0 0 -6.25 47.5095 110.76)"/><path d="m0 0c.561.234 1.473 1.301 1.473 1.301s-2.487-.338-3.154-.726c-.309-.178-.994-1.226-.994-1.226s2.114.417 2.675.651" transform="matrix(6.25 0 0 -6.25 67.85575 104.01875)"/><path d="m0 0s-.073 1.165.047 1.922c.13.828 1.867 2.01 1.867 2.01s-.233-1.492-.5-1.928-1.414-2.004-1.414-2.004" transform="matrix(6.25 0 0 -6.25 54.40575 100.62)"/><path d="m0 0s1.045.192 1.726.518c.744.357 1.434 1.864 1.434 1.864s-1.601-.377-1.938-.76c-.338-.381-1.222-1.622-1.222-1.622" transform="matrix(6.25 0 0 -6.25 58.85575 97.32125)"/><path d="m0 0s.204 2.266.349 2.881 1.063 1.726 1.352 1.903c0 0-.398-2.931-.64-3.49-.241-.56-1.061-1.294-1.061-1.294" transform="matrix(6.25 0 0 -6.25 73.23825 76.03875)"/><path d="m0 0c.626.133 1.777 1.059 1.777 1.059s-2.639.135-3.404-.136c-.354-.124-1.267-1.074-1.267-1.074s2.267.018 2.894.151" transform="matrix(6.25 0 0 -6.25 95.5995 73.04)"/><path d="m0 0s.152 1.219.425 1.979c.295.831 2.322 1.714 2.322 1.714s-.531-1.497-.893-1.896c-.361-.4-1.854-1.797-1.854-1.797" transform="matrix(6.25 0 0 -6.25 82.3495 66.8975)"/><path d="m0 0s1.118-.005 1.886.199c.84.224 1.848 1.648 1.848 1.648s-1.729-.078-2.153-.407-1.581-1.44-1.581-1.44" transform="matrix(6.25 0 0 -6.25 87.597 64.35625)"/><path d="m0 0s.923 1.954 1.253 2.456c.33.501 1.512 1.192 1.826 1.256 0 0-1.311-2.484-1.71-2.905-.398-.42-1.369-.807-1.369-.807" transform="matrix(6.25 0 0 -6.25 106.667 47.3325)"/><path d="m0 0c.602-.086 1.932.364 1.932.364s-2.31.983-3.081.991c-.357.005-1.481-.545-1.481-.545s2.028-.723 2.63-.81" transform="matrix(6.25 0 0 -6.25 127.5895 51.9625)"/><path d="m0 0s.533 1.038 1.024 1.626c.536.646 2.632.771 2.632.771s-.962-1.162-1.416-1.4c-.452-.238-2.24-.997-2.24-.997" transform="matrix(6.25 0 0 -6.25 117.78325 42.155)"/><path d="m0 0s.994-.37 1.747-.438c.822-.075 2.187.866 2.187.866s-1.569.496-2.054.34c-.486-.155-1.88-.768-1.88-.768" transform="matrix(6.25 0 0 -6.25 123.2945 41.6025)"/><path d="m0 0s1.318 1.713 1.614 2.236c.295.522.371 1.889.284 2.198 0 0-1.612-2.301-1.804-2.847-.192-.546-.094-1.587-.094-1.587" transform="matrix(6.25 0 0 -6.25 338.492 191.2725)"/><path d="m0 0c-.351.496-.558 1.885-.558 1.885s1.929-1.607 2.288-2.289c.167-.316.191-1.567.191-1.567s-1.569 1.475-1.921 1.971" transform="matrix(6.25 0 0 -6.25 324.827 174.76375)"/><path d="m0 0s.68.949.98 1.654c.329.771-.515 2.694-.515 2.694s-.595-1.387-.599-1.899c-.007-.511.134-2.449.134-2.449" transform="matrix(6.25 0 0 -6.25 338.0295 179.01875)"/><path d="m0 0s-.783.717-1.187 1.355c-.442.697-.227 2.341-.227 2.341s1.157-1.17 1.24-1.672c.084-.503.174-2.024.174-2.024" transform="matrix(6.25 0 0 -6.25 336.007 173.86125)"/><path d="m0 0s.966 1.934 1.155 2.503c.19.57.003 1.926-.141 2.213 0 0-1.142-2.567-1.226-3.14-.085-.573.212-1.576.212-1.576" transform="matrix(6.25 0 0 -6.25 334.89575 151.35)"/><path d="m0 0c-.44.42-.908 1.743-.908 1.743s2.2-1.207 2.684-1.809c.223-.277.487-1.501.487-1.501s-1.823 1.147-2.263 1.567" transform="matrix(6.25 0 0 -6.25 318.31825 137.76375)"/><path d="m0 0s.485 1.062.645 1.811c.176.82-1.022 2.546-1.022 2.546s-.318-1.476-.224-1.979c.092-.503.601-2.378.601-2.378" transform="matrix(6.25 0 0 -6.25 332.09325 139.41125)"/><path d="m0 0s-.906.554-1.425 1.102c-.567.6-.671 2.255-.671 2.255s1.359-.927 1.537-1.405c.179-.477.559-1.952.559-1.952" transform="matrix(6.25 0 0 -6.25 329.1195 134.735)"/><path d="m0 0s.208 2.151.181 2.751-.688 1.798-.925 2.014c0 0-.146-2.805-.019-3.37s.763-1.395.763-1.395" transform="matrix(6.25 0 0 -6.25 323.13575 110.76)"/><path d="m0 0c-.56.234-1.472 1.301-1.472 1.301s2.486-.338 3.153-.726c.309-.178.994-1.226.994-1.226s-2.113.417-2.675.651" transform="matrix(6.25 0 0 -6.25 302.787 104.01875)"/><path d="m0 0s.073 1.165-.047 1.922c-.13.828-1.867 2.01-1.867 2.01s.232-1.492.5-1.928c.267-.436 1.414-2.004 1.414-2.004" transform="matrix(6.25 0 0 -6.25 316.24075 100.62)"/><path d="m0 0s-1.044.192-1.725.518c-.744.357-1.435 1.864-1.435 1.864s1.601-.377 1.938-.76c.338-.381 1.222-1.622 1.222-1.622" transform="matrix(6.25 0 0 -6.25 311.787 97.32125)"/><path d="m0 0s-.194 2.152-.332 2.737c-.138.584-1.01 1.639-1.283 1.808 0 0 .377-2.784.607-3.316.229-.531 1.008-1.229 1.008-1.229" transform="matrix(6.25 0 0 -6.25 296.46575 75.23375)"/><path d="m0 0c-.594.126-1.688 1.005-1.688 1.005s2.507.13 3.233-.128c.337-.118 1.205-1.021 1.205-1.021s-2.154.018-2.75.144" transform="matrix(6.25 0 0 -6.25 275.22075 72.38375)"/><path d="m0 0s-.144 1.158-.403 1.88c-.281.79-2.207 1.628-2.207 1.628s.505-1.422.85-1.801c.342-.38 1.76-1.707 1.76-1.707" transform="matrix(6.25 0 0 -6.25 287.807 66.54875)"/><path d="m0 0s-1.062-.005-1.792.189c-.798.212-1.756 1.566-1.756 1.566s1.643-.074 2.046-.387 1.502-1.368 1.502-1.368" transform="matrix(6.25 0 0 -6.25 282.8245 64.13375)"/><path d="m0 0s-.923 1.954-1.253 2.456c-.33.501-1.512 1.192-1.826 1.256 0 0 1.311-2.484 1.71-2.905.398-.42 1.369-.807 1.369-.807" transform="matrix(6.25 0 0 -6.25 263.98075 47.3325)"/><path d="m0 0c-.602-.086-1.931.364-1.931.364s2.309.983 3.08.991c.357.005 1.482-.545 1.482-.545s-2.029-.723-2.631-.81" transform="matrix(6.25 0 0 -6.25 243.05575 51.9625)"/><path d="m0 0s-.533 1.038-1.025 1.626c-.535.646-2.632.771-2.632.771s.963-1.162 1.417-1.4c.452-.238 2.24-.997 2.24-.997" transform="matrix(6.25 0 0 -6.25 252.8645 42.155)"/><path d="m0 0s-.995-.37-1.747-.438c-.823-.075-2.187.866-2.187.866s1.568.496 2.054.34c.485-.155 1.88-.768 1.88-.768" transform="matrix(6.25 0 0 -6.25 247.35325 41.6025)"/><path d="m0 0-.048-.691c-.008-.108-.101-.189-.209-.182-.099.007-.175.086-.182.182l-.054.765c-.11.013-.224.022-.336.031l-.051-1.125c-.005-.113-.101-.201-.215-.196-.106.005-.19.091-.196.196l-.051 1.151c-.082.003-.163.008-.246.008-.069 0-.136-.005-.204-.006l-.047-1.153c-.004-.116-.103-.207-.219-.202-.11.004-.197.094-.202.202l-.046 1.129c-.128-.01-.255-.021-.38-.036l-.056-.764c-.007-.106-.099-.186-.205-.178-.096.007-.171.084-.178.178l-.049.691c-2.348-.413-4.064-1.718-4.064-3.266 0-1.882 2.53-3.406 5.65-3.406s5.649 1.524 5.649 3.406c0 1.547-1.714 2.852-4.061 3.266" transform="matrix(6.25 0 0 -6.25 195.212 6.59)"/></g><path d="m0 0c-.386.264-.5.537-.532.712-.005.051-.005.1-.005.14-.027.965.147 4.299.147 4.299s-1.351.217-2.557.805l-.079-5.059s.003-.006.003-.012c-.003-.012-.004-.021-.004-.033-.001-.04-.002-.089-.006-.14-.032-.175-.148-.448-.53-.712-.476-.323-.52-.516-.473-1.189.043-.671.306-.983.846-.962.038 0 .08.002.132.002v-.002s.547.008 1.276.01c.731-.002 1.275-.01 1.275-.01v.002c.052 0 .098-.002.131-.002.542-.021.806.291.85.962.044.673.001.866-.474 1.189m9.748 8.867c-.585.406-.973-.048-1.052-.163 0 0-2.111-4.559-7.338-4.332 0 0-.043.007-.109 0-.468.03-1.132.085-1.223.151l-.08-2.304s.538-.058 1.063-.089c.059-.008.127-.011.203-.011.52-.019 5.715-.362 8.783 5.662 0 0 .339.68-.247 1.086m-2.631 7.266s.059.539-.951 2.606c0 0-.294.713-1.129.938-.638.174-1.459.376-1.459.376s-.759.407-1.603.602l.005.01s-1.056.264-2.041.282l-.035-2.286s.269.1 1.312.073c.497-.048 1.387-.058 2.649-1.009 1.531-1.15 2.086-2.04 2.086-2.04s.448-.673.855-.539c.401.137.311.987.311.987m-14.059-3.812c.164-1.41 1.851-5.503 5.841-6.578s6.812.897 7.645 2.107c0 0 .716.694.113 1.232-.607.537-1.099-.133-1.122-.112-.024.023-4.215-3.16-7.464-.694-3.251 2.465-2.36 6.435-2.035 7.22 0 0 .29.844.642 1.285l.021 3.263s-2.722-1.577-3.477-4.9h.002c-.264-.966-.318-1.48-.166-2.823m3.472-9.636.033 2.739c-.284.09-.66.321-1.038.594-.052.043-.103.087-.161.129-1.204.852-4.532 3.766-3.389 9.245 1.142 5.478 7.462 7.497 11.465 6.285 4-1.21 4.672-3.963 5.042-4.604.229-.397.505-.839 1.009-.773.504.068.303 1.143.303 1.143l-.978 3.556s-.226.957-1.305 1.329c-.89.309-1.145.429-1.713.714 0 0-6.426 4.398-13.654-1.332 0 0-2.557-2.284-3.296-4.939 0 0-.397-1.459-.418-2-.036-.784-.085-1.766.081-2.876.161-1.046 1.072-5.936 5.823-8.457v-.006c.084-.041.164-.079.242-.119.204-.101.408-.201.625-.291 0 0 .089-.05.217-.081.843-.326 1.112-.256 1.112-.256m2.991 18.671s-1.536.046-2.367-.716l-.044-10.529s.851-1.523 2.509-2.107l-.045 3.607s-.156.695.741.649c.897-.045.732-.112 1.45-.955.518-.608 1.039-.575 1.335-.464.462.172.646.488.52 1.018-.255 1.071-.973 3.158-.973 3.158s-.103.771-.862.698c-.729-.071-.733-.563-.733-.563s.048-.65-.757-.627c-.811.021-.742.829-.742.829l-.032 6.002zm-2.509 4.448v-1.095s1.165.393 2.47.393c0 0-.263.772 1.941.649 2.208-.123 2.511-.229 3.728-1.147.151-.102.764-.846 1.444-.644.712.211.283.803.283.803l-1.442 2.43s-.257.509-.969.593c-.629.078-1.197.086-2.124.099l-5.441.019s-.602.03-.623-.908c-.022-.97.469-.875.733-1.192" fill="#fff" transform="matrix(6.25 0 0 -6.25 185.27325 257.38125)"/><path d="m0 0c-.088-.088-.163-.141-.272-.191-.105-.047-.246-.074-.384-.045-.14.029-.251.105-.329.181-.079.08-.132.155-.18.241-.087.148-.152.341-.166.527-.014.19.016.376.072.542.114.335.309.6.513.834.207.234.43.441.661.632.461.384.956.711 1.433 1.029.46.32.953.661 1.435.975 1.937 1.272 3.925 2.44 5.622 3.923 1.681 1.472 3.12 3.29 3.576 5.397.116.524.178 1.049.159 1.57-.017.523-.102 1.045-.245 1.557-.074.258-.155.508-.255.746-.101.244-.215.485-.339.7-.118.209-.278.416-.359.469-.016.01-.022.009.005-.003.024-.011.093-.022.151-.01.126.035.106.062.07.003-.193-.329-.618-.438-.946-.244-.329.194-.438.618-.244.947.013.023.028.046.044.067l.039.05c.07.091.151.186.269.281.118.093.277.188.479.23.198.046.417.02.577-.038.164-.058.282-.137.381-.213.372-.312.525-.605.691-.894.156-.29.28-.576.39-.869.114-.298.201-.6.277-.9.15-.604.233-1.231.233-1.863.003-.634-.091-1.262-.244-1.859-.306-1.2-.874-2.318-1.604-3.285-.718-.966-1.577-1.816-2.489-2.566-1.836-1.504-3.889-2.62-5.842-3.82-.495-.302-.961-.603-1.457-.926-.493-.308-.971-.604-1.41-.946-.429-.336-.849-.733-1.01-1.165-.076-.215-.069-.407.038-.601.046-.093.117-.144.119-.136.004-.001.012-.002.038.009.022.008.067.041.081.055l.004.006c.107.117.289.125.407.018.117-.107.125-.289.018-.407-.002-.002-.005-.005-.007-.008" fill="#b9bebf" transform="matrix(6.25 0 0 -6.25 205.4145 301.43875)"/><path d="m0 0c.013-.014.058-.047.08-.055.027-.012.035-.01.038-.009.002-.009.073.043.119.136.107.194.114.386.039.6-.161.433-.582.83-1.011 1.165-.438.342-.916.639-1.409.946-.497.324-.963.625-1.458.927-1.953 1.2-4.006 2.315-5.841 3.819-.912.751-1.771 1.601-2.489 2.567-.73.966-1.298 2.084-1.604 3.285-.153.597-.247 1.225-.245 1.859 0 .631.084 1.258.234 1.863.075.299.162.602.276.9.111.292.235.578.39.868.166.289.32.583.691.894.1.077.217.156.382.213.159.059.378.084.577.039.202-.042.361-.138.478-.231.118-.094.2-.189.27-.28l.036-.048c.233-.303.175-.737-.127-.969-.303-.233-.738-.176-.97.127-.017.021-.034.047-.047.069-.035.059-.055.033.07-.002.058-.013.127-.001.151.009.028.012.021.014.006.003-.081-.052-.241-.259-.359-.469-.124-.214-.239-.455-.339-.699-.1-.238-.181-.489-.255-.746-.143-.512-.229-1.035-.245-1.558-.019-.52.042-1.045.159-1.569.456-2.108 1.895-3.926 3.575-5.398 1.697-1.483 3.685-2.65 5.623-3.922.481-.315.974-.655 1.435-.976.476-.318.971-.645 1.432-1.028.231-.191.454-.399.661-.632.204-.235.399-.499.514-.834.056-.166.086-.353.072-.542-.015-.187-.079-.379-.166-.528-.049-.085-.102-.16-.18-.24-.078-.077-.19-.153-.329-.181-.139-.03-.279-.002-.384.044-.11.051-.185.103-.272.192-.112.113-.11.295.003.407s.295.11.407-.003c.002-.003.005-.005.007-.007z" fill="#b9bebf" transform="matrix(6.25 0 0 -6.25 164.9495 298.9925)"/><path d="m0 0-.907.413.365-.922z" fill="#fff" transform="matrix(6.25 0 0 -6.25 301.412 293.6825)"/><path d="m0 0-.39.196-.309-.605.352-.176c.217-.109.504-.243.652.046.137.266-.087.43-.305.539" fill="#fff" transform="matrix(6.25 0 0 -6.25 114.7245 315.24875)"/><path d="m0 0c.136.208-.03.391-.206.504l-.381.246-.349-.533.406-.262c.172-.11.398-.156.53.045" fill="#fff" transform="matrix(6.25 0 0 -6.25 101.372 310.0775)"/><path d="m0 0c-.299.26-5.09 2.405-5.09 2.405.095-.385.005-.611-.03-.697-3.495-8.575-11.91-14.622-21.742-14.622-9.771 0-18.144 5.972-21.678 14.464-.096.23-.179.509-.144.754 0 0-4.82-2.194-4.971-2.345-.15-.15-.309-.624-.23-.826 4.204-10.819 14.718-18.488 27.023-18.488 12.363 0 22.918 7.742 27.082 18.642.022.057.145.396-.22.713" fill="#fff" transform="matrix(6.25 0 0 -6.25 353.31575 236.8775)"/><path d="m0 0-.284-.334.519-.433.255.301c.158.187.357.435.109.642-.228.191-.441.011-.599-.176" fill="#fff" transform="matrix(6.25 0 0 -6.25 306.76325 276.71375)"/><path d="m0 0c-.026-.019-.055-.027-.084-.027-.043 0-.085.019-.113.056-.046.062-.033.149.029.196.007.005.229.181.571.685.022.134.042.269.061.404-.213-.262-.345-.363-.355-.371-.025-.019-.054-.028-.083-.028-.043 0-.085.02-.113.057-.047.062-.033.15.028.196.007.005.238.189.593.717.015.146.028.294.04.441-.302-.414-.496-.563-.509-.572-.026-.018-.054-.027-.084-.027-.043 0-.085.019-.112.056-.046.062-.034.15.028.196.007.006.292.231.714.905.01.176.016.351.02.525-.346-.622-.592-.843-.605-.855-.028-.023-.06-.034-.093-.034-.039 0-.078.016-.106.048-.05.058-.045.146.014.197.009.009.351.327.795 1.271-.009.302-.076.978-.076.978s-.023-.107-.093-.283c-.164-.414-.584-1.21-1.551-1.893-.785-.554-1.742-.972-3.279-1.157-1.578-.191-3.822-.25-4.964-1.53-.251-.282-.47-.648-.577-1.011-.083-.284-.045-.837.341-.924.423-.094.899.175 1.221.459.764.674 1.429.727 2.326.336.843-.368 1.87-.814 2.716-1.174.464-.198.931-.447 1.402-.509.401-.052.824.12 1.179.518.248.277.434.599.576.942.143.346.252.704.338 1.068.034.144.065.291.094.438-.173-.205-.281-.287-.289-.294" fill="#fff" transform="matrix(6.25 0 0 -6.25 361.2595 213.6675)"/><path d="m0 0s-.719.215-1.701 1.313c.443.05 1.003.335 1.429.748.43.415.866.593 1.181.379.366-.247-.261-1.264-.458-1.633s-.451-.807-.451-.807" fill="#b9bebf" transform="matrix(6.25 0 0 -6.25 313.072 236.785)"/><path d="m0 0c-.106.363-.326.729-.577 1.011-1.142 1.28-3.386 1.339-4.964 1.529-1.537.186-2.494.604-3.279 1.158-.966.682-1.386 1.479-1.551 1.893-.07.176-.093.283-.093.283s-.05-.509-.069-.841c.368-.706.634-.949.638-.952.057-.052.063-.14.012-.198-.028-.031-.067-.048-.105-.048-.033 0-.066.012-.092.035-.012.01-.192.171-.458.603.002-.163.006-.326.013-.49.345-.51.57-.686.573-.688.062-.047.074-.135.028-.196-.028-.037-.07-.057-.113-.057-.029 0-.058.01-.083.028-.011.008-.152.116-.378.4.01-.15.022-.3.035-.451.285-.393.464-.534.467-.536.061-.047.074-.134.027-.196-.027-.037-.069-.056-.112-.056-.028 0-.058.009-.083.028-.008.006-.097.074-.245.24.017-.142.036-.283.056-.424.285-.393.464-.533.466-.535.062-.047.074-.134.028-.196-.028-.036-.07-.056-.113-.056-.028 0-.058.009-.083.028-.008.005-.082.063-.207.199.048-.27.102-.537.163-.799.086-.364.195-.722.338-1.068.142-.343.328-.665.576-.942.354-.398.779-.571 1.179-.517.47.061.938.31 1.402.508.846.36 1.874.806 2.716 1.174.897.391 1.562.338 2.326-.336.321-.284.798-.553 1.221-.459.385.087.424.641.341.924" fill="#fff" transform="matrix(6.25 0 0 -6.25 71.61825 219.345)"/><path d="m0 0s.07-.63.448-1.155c.263-.365.731-.778.731-.778s-.327 1.429-.093 2.457c-.561-.046-.848-.217-1.086-.524" fill="#b9bebf" transform="matrix(6.25 0 0 -6.25 8.297 180.59875)"/><path d="m0 0s-.07-.63-.448-1.155c-.263-.365-.731-.778-.731-.778s.327 1.429.093 2.457c.561-.046.848-.217 1.086-.524" fill="#b9bebf" transform="matrix(6.25 0 0 -6.25 362.732 180.59875)"/><path d="m0 0s.72.215 1.701 1.313c-.443.05-1.003.335-1.429.748-.429.416-.866.593-1.181.379-.365-.247.261-1.264.458-1.633s.451-.807.451-.807" fill="#b9bebf" transform="matrix(6.25 0 0 -6.25 57.9045 237.0875)"/><path d="m0 0-.429-2.49.732-.571.672.578-.341 2.476c-.046-.001-.092-.003-.139-.003-.166 0-.33.007-.495.01" fill="#b9bebf" transform="matrix(6.25 0 0 -6.25 182.6695 360.205)"/><path d="m0 0c.287.026.57.064.85.112l-.607 2.386c-.222-.009-.445-.012-.669-.016z" fill="#b9bebf" transform="matrix(6.25 0 0 -6.25 191.972 375.70875)"/><path d="m0 0c.263.057.522.123.778.198l-.801 2.149c-.211-.016-.423-.025-.635-.036z" fill="#b9bebf" transform="matrix(6.25 0 0 -6.25 199.982 374.39625)"/><path d="m0 0c.262-.052.528-.093.797-.126l.479 2.485c-.223.007-.446.017-.668.029z" fill="#b9bebf" transform="matrix(6.25 0 0 -6.25 172.22325 374.90125)"/><path d="m0 0c.244-.077.493-.143.744-.202l.657 2.319c-.208.014-.416.028-.623.046z" fill="#b9bebf" transform="matrix(6.25 0 0 -6.25 165.0795 373.08125)"/><path d="m0 0c.225-.118.412-.301.536-.526.091-.166.148-.354.18-.54.025-.146.039-.295.044-.443.017-.483-.072-.977-.287-1.444-.212-.458-.523-.839-.892-1.135-.138-.111-.284-.214-.438-.303-.307-.177-.652-.284-1.009-.227-.279.044-.626.196-.69.502-.017.079 0 .182.034.255.055.119.16.197.279.223.087.021.177.017.264-.024.117-.054.195-.158.225-.277.466-.132.974.089 1.185.546.124.267.119.559.016.809-.02.047-.042.093-.069.138.04.005.075.014.112.024.275.076.514.269.642.547.208.449.058.969-.33 1.246-.113-.074-.262-.093-.394-.032-.098.046-.166.125-.206.217-.043.101-.043.22.006.326.118.255.422.267.646.183.05-.018.099-.04.146-.065" fill="#b9bebf" transform="matrix(6.25 0 0 -6.25 101.94075 109.45)"/><path d="m0 0c.143-.21.221-.46.224-.716.002-.19-.037-.382-.097-.562-.046-.14-.105-.278-.171-.411-.213-.433-.524-.827-.935-1.136-.403-.304-.857-.492-1.322-.579-.175-.032-.352-.055-.53-.06-.355-.011-.709.058-.996.276-.225.171-.459.469-.371.77.023.077.086.16.151.208.105.079.233.099.352.065.086-.022.163-.069.22-.146.078-.103.098-.232.067-.351.348-.336.901-.381 1.303-.079.234.177.368.437.396.706.004.051.007.101.005.153.037-.014.073-.022.109-.031.279-.063.581-.006.825.178.396.298.509.827.298 1.254-.134-.011-.274.042-.362.159-.064.086-.087.188-.079.288.01.109.066.214.16.285.223.169.498.035.655-.144.035-.04.068-.083.098-.127" fill="#b9bebf" transform="matrix(6.25 0 0 -6.25 137.19575 75.9875)"/><path d="m0 0c-.226-.118-.413-.301-.536-.526-.091-.166-.148-.354-.18-.54-.025-.146-.039-.295-.044-.443-.017-.483.071-.977.287-1.444.212-.458.523-.839.891-1.135.139-.111.285-.214.439-.303.307-.177.652-.284 1.009-.227.279.044.625.196.69.502.017.079 0 .182-.034.255-.055.119-.16.197-.28.223-.086.021-.176.017-.263-.024-.117-.054-.195-.158-.225-.277-.465-.132-.974.089-1.185.546-.124.267-.119.559-.016.809.021.047.042.093.069.138-.04.005-.075.014-.112.024-.275.076-.514.269-.642.547-.208.449-.058.969.33 1.246.113-.074.262-.093.394-.032.097.046.166.125.206.217.043.101.043.22-.006.326-.118.255-.422.267-.646.183-.05-.018-.099-.04-.146-.065" fill="#b9bebf" transform="matrix(6.25 0 0 -6.25 270.27325 109.45)"/><path d="m0 0c-.143-.21-.222-.46-.224-.716-.002-.19.037-.382.097-.562.047-.14.105-.278.171-.411.213-.433.525-.827.935-1.136.403-.304.857-.492 1.322-.579.175-.032.352-.055.53-.06.355-.011.709.058.996.276.225.171.459.469.371.77-.023.077-.086.16-.151.208-.105.079-.234.099-.351.065-.087-.022-.164-.069-.221-.146-.078-.103-.098-.232-.067-.351-.349-.336-.901-.381-1.303-.079-.234.177-.368.437-.396.706-.004.051-.008.101-.005.153-.037-.014-.073-.022-.109-.031-.279-.063-.581-.006-.825.178-.396.298-.509.827-.298 1.254.134-.011.275.042.362.159.064.086.087.188.079.288-.01.109-.066.214-.16.285-.223.169-.498.035-.655-.144-.035-.04-.068-.083-.098-.127" fill="#b9bebf" transform="matrix(6.25 0 0 -6.25 235.01825 75.9875)"/><path d="m0 0c.089.014.148.017.178.009.03-.008.059-.04.087-.095l.256-.503c.013-.025.013-.051 0-.079s-.038-.051-.075-.071c-.039-.019-.07-.025-.093-.016-.024.008-.052.026-.085.054-.029.027-.058.04-.087.037-.029-.002-.068-.016-.118-.042l-1.621-.826c-.094-.048-.146-.095-.156-.14l-.005-.043c-.013-.057-.037-.096-.074-.114-.077-.039-.137-.015-.182.073l-.261.511c-.043.085-.027.147.05.187.028.014.05.019.067.016s.04-.011.07-.025l.037-.019c.042-.02.11-.005.205.043l1.456.742-1.568-.251c-.083-.011-.136-.018-.161-.019-.024-.001-.048.005-.074.02-.025.014-.049.044-.071.087-.033.064-.048.112-.045.143.002.032.028.075.078.13l1.135 1.177-1.422-.724c-.048-.032-.082-.057-.101-.073-.016-.017-.027-.033-.032-.049-.006-.016-.008-.032-.008-.049s0-.034-.001-.051c.002-.058-.022-.101-.073-.126-.07-.036-.136.007-.199.131l-.119.233c-.062.121-.057.199.012.234.053.027.101.024.144-.009.033-.025.057-.042.073-.051.017-.009.04-.01.071-.004.025.005.064.018.119.038l1.608.82c.03.015.052.03.068.046.054.047.076.103.067.168-.004.043-.002.076.004.1.007.023.028.044.065.062.077.039.141.007.194-.096l.267-.524c.028-.056.031-.102.007-.138s-.076-.091-.157-.165l-1.011-.987z" fill="#0e1e2d" transform="matrix(6.25 0 0 -6.25 50.262 253.5225)"/><path d="m0 0c-.115-.077-.189-.138-.223-.183-.034-.044-.042-.095-.024-.152.019-.057.068-.147.148-.269.059-.086.114-.148.166-.186s.128-.06.228-.066c.072 0 .129-.002.17-.006s.071-.022.091-.051c.016-.023.02-.051.012-.083s-.026-.057-.053-.076c-.056-.038-.163-.084-.322-.14-.074-.027-.126-.037-.154-.029s-.062.04-.1.097l-.827 1.225c-.055.082-.047.147.025.196.025.017.047.025.063.023.017-.002.042-.009.076-.02l.039-.015c.044-.013.11.01.198.069l1.492 1.006c.092.062.14.117.144.163l-.004.038c.004.063.024.107.061.131.036.025.071.031.106.017.034-.013.062-.035.084-.067l.787-1.168c.048-.071.066-.127.054-.167-.024-.056-.114-.137-.268-.241-.089-.06-.154-.06-.194 0-.022.033-.018.092.014.177.037.094.045.175.022.242-.018.065-.066.155-.142.268-.074.109-.129.172-.167.19-.044.03-.089.03-.134 0l-.576-.389.254-.377c.034-.05.064-.08.09-.091s.059-.02.099-.025c.039-.006.066-.02.081-.041.04-.06-.011-.138-.154-.235-.086-.058-.155-.096-.207-.115-.051-.017-.089-.008-.114.029-.016.023-.019.054-.011.094s.012.073.011.099c0 .026-.017.063-.05.113l-.255.377z" fill="#0e1e2d" transform="matrix(6.25 0 0 -6.25 46.69575 270.2075)"/><path d="m0 0c.016.014.044.043.084.09.025.044.027.097.004.158-.008.059.009.106.051.141.059.05.134.022.223-.083l.169-.2c.087-.104.101-.181.041-.231-.042-.036-.091-.045-.146-.027-.058.032-.109.038-.154.018-.021-.007-.057-.028-.106-.062l-1.559-1.316c-.086-.073-.148-.111-.186-.116-.037-.005-.084.026-.141.093-.047.055-.066.105-.057.151.009.042.061.184.159.426l.629 1.766-1.206-1.018c-.04-.042-.067-.074-.081-.094-.013-.02-.02-.038-.021-.055-.002-.016-.001-.033.003-.05.005-.016.008-.033.011-.049.015-.057.001-.104-.043-.14-.059-.051-.134-.023-.223.083l-.169.2c-.087.103-.101.18-.041.23.045.038.093.046.142.024.037-.017.065-.028.083-.033.018-.004.041-.001.07.012.023.011.058.032.107.065l1.271 1.073c.03.026.061.052.091.078.031.027.055.052.074.078.018.025.031.051.036.079.006.027.002.059-.01.094-.013.042-.019.075-.019.099.001.024.017.049.049.075.066.056.136.04.211-.049l.264-.314c.039-.045.061-.078.067-.099.007-.02.003-.062-.009-.123-.02-.087-.048-.184-.084-.294-.035-.109-.071-.212-.105-.309-.035-.098-.084-.232-.146-.404l-.285-.77z" fill="#0e1e2d" transform="matrix(6.25 0 0 -6.25 67.407 280.89625)"/><path d="m0 0c.105-.189.159-.346.159-.47.003-.207-.075-.392-.232-.555-.204-.214-.441-.32-.708-.319-.247.003-.467.098-.661.284-.154.148-.26.315-.319.502-.026.106-.033.218-.022.338.011.118.051.214.12.286.038.04.082.065.132.076.051.011.091.001.121-.027.048-.046.055-.119.022-.219-.005-.022-.013-.055-.025-.098-.011-.043-.019-.076-.023-.098-.004-.023-.007-.048-.008-.077s-.001-.057.002-.084c.017-.142.079-.264.184-.365.084-.081.188-.127.31-.139s.232.032.329.133c.093.098.123.203.089.315-.02.09-.082.212-.185.364-.118.188-.186.35-.204.487-.02.236.056.442.226.621.089.091.194.163.315.215.122.052.242.077.36.075.213-.004.409-.092.589-.265.176-.169.291-.37.345-.605.01-.056.003-.101-.02-.135-.028-.052-.1-.139-.216-.261-.072-.074-.135-.085-.19-.033-.023.023-.028.063-.012.121.015.057.035.128.06.213.024.085.028.169.013.251s-.064.162-.145.24c-.07.068-.155.105-.255.111-.101.007-.19-.031-.269-.113-.082-.086-.118-.171-.107-.256.01-.085.046-.183.105-.296z" fill="#0e1e2d" transform="matrix(6.25 0 0 -6.25 73.84325 292.52375)"/><path d="m0 0c.133-.171.209-.317.229-.44.033-.204-.015-.399-.145-.584-.17-.242-.388-.383-.653-.422-.244-.035-.476.026-.696.18-.174.123-.305.272-.391.448-.042.101-.066.211-.073.33s.018.22.075.301c.032.045.072.077.12.095.048.019.089.016.123-.008.054-.038.073-.11.055-.213-.002-.023-.005-.056-.01-.1-.005-.045-.007-.078-.008-.101s0-.049.004-.077c.003-.029.008-.057.014-.083.039-.138.118-.249.238-.333.095-.067.205-.097.327-.09.123.007.225.067.305.181.078.111.091.219.04.325-.033.086-.113.197-.237.332-.146.167-.237.317-.276.45-.055.23-.012.446.13.648.073.104.166.191.278.261.113.07.228.112.345.128.211.028.418-.029.622-.173.199-.14.344-.321.433-.544.017-.055.018-.101.001-.137-.02-.056-.078-.153-.175-.291-.06-.085-.12-.105-.182-.061-.027.018-.037.057-.031.116.007.06.016.133.027.221.011.087.003.171-.025.25s-.087.151-.18.215c-.079.056-.169.08-.269.071s-.183-.059-.248-.152c-.069-.097-.091-.187-.068-.27.024-.082.074-.174.15-.277z" fill="#0e1e2d" transform="matrix(6.25 0 0 -6.25 91.982 307.09875)"/><path d="m0 0 .015.055.185.978-.789-.699zm-1.564-.495c-.064.036-.107.07-.128.101-.021.032-.019.07.007.116.017.029.052.052.107.068.054.006.101.027.141.061l.302.31c.207.215.544.522 1.011.921.147.13.305.258.473.384.052.037.093.055.125.053s.074-.018.128-.048c.072-.041.115-.082.129-.123.015-.041.014-.111-.004-.209l-.354-1.875-.101-.389c-.007-.034-.01-.057-.008-.071s.01-.041.024-.08c.022-.042.022-.083 0-.121-.042-.075-.108-.087-.197-.037l-.443.252c-.109.061-.143.128-.102.2.02.036.057.057.111.06.053.004.086.017.099.04.032.055.081.226.148.511l.017.061-.734.417c-.011-.013-.047-.05-.11-.112-.062-.062-.113-.116-.153-.16-.041-.045-.07-.082-.086-.112-.019-.032-.027-.06-.025-.083.002-.024.009-.05.023-.079.013-.028.021-.053.026-.074.003-.021-.002-.045-.018-.072-.024-.044-.057-.063-.098-.058s-.095.026-.164.066z" fill="#0e1e2d" transform="matrix(6.25 0 0 -6.25 102.90325 317.5725)"/><path d="m0 0c.008.019.02.059.036.118.003.051-.019.098-.066.143-.032.05-.038.1-.016.149.032.071.111.079.238.023l.239-.105c.124-.055.17-.118.138-.19-.022-.05-.062-.08-.12-.088-.066.004-.114-.013-.146-.051-.016-.016-.039-.05-.068-.103l-.825-1.865c-.046-.103-.084-.165-.116-.186s-.088-.014-.168.022c-.066.029-.105.066-.117.11-.011.042-.026.192-.044.453l-.208 1.863-.638-1.443c-.018-.056-.028-.096-.032-.121-.002-.023-.001-.042.005-.058s.014-.03.025-.043.022-.027.032-.04c.038-.044.046-.093.022-.145-.031-.071-.11-.079-.237-.023l-.239.106c-.124.054-.17.118-.138.189.024.054.063.082.117.083.041.002.071.004.089.008.018.003.038.017.058.041.016.019.038.054.067.105l.673 1.521c.016.038.032.074.048.111.015.037.026.071.032.102s.005.06-.002.087-.024.054-.051.08c-.03.032-.05.059-.059.081-.01.021-.006.051.01.089.035.079.105.095.211.048l.376-.166c.054-.024.089-.044.103-.06.015-.016.03-.054.046-.115.02-.086.038-.187.053-.301.016-.113.029-.222.041-.324.011-.103.026-.245.045-.427l.082-.817z" fill="#0e1e2d" transform="matrix(6.25 0 0 -6.25 123.0045 319.85)"/><path d="m0 0 .004.057-.01.995-.637-.84zm-1.436-.792c-.071.024-.119.048-.146.075-.027.026-.032.064-.016.115.011.031.041.06.091.087.053.016.095.045.127.088l.236.362c.16.252.43.619.81 1.102.119.156.249.312.389.469.043.047.081.072.112.077.032.004.076-.003.134-.022.079-.026.13-.058.152-.096.022-.037.034-.106.036-.206l.021-1.907-.023-.401c0-.035.002-.059.007-.072.004-.013.017-.038.038-.073.03-.038.039-.077.025-.119-.027-.082-.089-.107-.186-.075l-.484.16c-.119.039-.166.098-.14.176.013.04.046.067.097.081.052.014.082.033.09.058.02.061.035.238.044.531l.006.063-.802.264c-.008-.014-.037-.058-.086-.131-.048-.073-.088-.135-.119-.187-.031-.051-.052-.093-.063-.126-.011-.035-.014-.064-.007-.087.006-.023.019-.047.037-.072.019-.026.032-.049.04-.068.008-.02.007-.044-.002-.074-.016-.047-.045-.073-.085-.076-.041-.004-.099.007-.174.032z" fill="#0e1e2d" transform="matrix(6.25 0 0 -6.25 132.8195 330.5625)"/><path d="m0 0c.023.115.019.187-.012.217l-.025.023c-.042.048-.058.093-.05.136.017.085.074.117.171.098l.562-.111c.039-.008.071-.025.096-.051s.033-.061.025-.105c-.009-.044-.041-.08-.097-.107l-.037-.011c-.041-.021-.073-.087-.094-.196l-.35-1.765c-.021-.104-.016-.174.014-.209l.029-.031c.041-.047.058-.091.05-.129-.017-.085-.074-.118-.171-.098l-.562.111c-.097.019-.137.071-.12.156.006.03.015.051.028.061s.036.023.068.039l.033.019c.04.015.071.078.092.188z" fill="#0e1e2d" transform="matrix(6.25 0 0 -6.25 151.4645 328.5875)"/><path d="m0 0c.003.021.003.062.001.123-.012.05-.047.089-.105.119-.045.038-.065.084-.058.137.01.078.083.108.22.091l.26-.032c.134-.017.197-.064.187-.142-.007-.054-.037-.094-.089-.119-.064-.015-.106-.045-.126-.091-.01-.019-.022-.059-.035-.118l-.252-2.024c-.014-.112-.033-.182-.057-.211s-.08-.039-.167-.028c-.072.009-.12.033-.144.073-.023.036-.08.176-.173.42l-.736 1.724-.195-1.566c-.001-.059 0-.1.004-.125.004-.022.012-.04.022-.054.01-.013.022-.025.036-.034s.028-.019.041-.029c.05-.031.071-.075.064-.132-.009-.078-.083-.108-.22-.091l-.26.033c-.134.016-.196.063-.187.141.008.059.037.096.089.113.039.014.066.025.083.033.016.009.031.027.043.056.01.023.021.063.035.12l.205 1.651c.004.04.009.08.014.12.004.04.004.075.001.107-.004.031-.012.059-.027.083-.014.023-.038.044-.072.061-.038.022-.064.042-.08.06s-.021.048-.016.089c.011.085.074.121.189.107l.407-.051c.059-.007.098-.017.116-.027.019-.011.044-.043.078-.097.043-.077.089-.168.137-.272.048-.105.092-.205.132-.3.041-.095.096-.226.167-.395l.314-.759z" fill="#0e1e2d" transform="matrix(6.25 0 0 -6.25 169.092 331.29)"/><path d="m0 0c-.097.092-.206.138-.328.135-.218-.004-.39-.126-.517-.366-.112-.216-.165-.474-.159-.774.006-.297.063-.55.173-.761.119-.24.306-.358.56-.353.196.004.367.104.514.3.017.024.035.048.054.073.02.026.04.047.061.064.022.017.044.026.07.026.028.001.053-.012.073-.038.021-.027.032-.058.033-.095.002-.08-.03-.162-.095-.246-.066-.083-.137-.153-.212-.21-.171-.135-.371-.204-.6-.208-.213-.004-.411.049-.595.161s-.331.272-.442.48c-.112.208-.17.447-.175.716-.004.205.025.399.088.582s.151.343.264.481c.112.137.243.245.392.323.149.079.305.119.467.122.267.006.503-.074.707-.239.053-.034.087-.074.101-.121.021-.067.034-.204.037-.413.001-.043-.01-.079-.034-.107-.023-.028-.054-.042-.091-.043-.036-.001-.063.014-.08.042-.018.029-.042.078-.072.146-.059.153-.124.26-.194.323" fill="#0e1e2d" transform="matrix(6.25 0 0 -6.25 192.637 331.2825)"/><path d="m0 0c-.022.181-.062.356-.121.525-.058.169-.14.306-.245.413s-.232.151-.379.134c-.213-.026-.358-.182-.437-.468-.055-.206-.066-.447-.034-.724.021-.177.062-.351.12-.522.059-.171.141-.312.245-.423.104-.11.228-.156.372-.139.149.018.262.089.341.215.078.125.126.276.144.451.018.175.016.355-.006.538m-1.338-1.184c-.254.241-.405.569-.455.984-.024.202-.016.394.023.576.04.182.106.344.199.486s.207.255.342.34c.134.086.282.138.444.157.164.02.322.004.477-.047.155-.051.294-.132.419-.245s.229-.253.311-.421c.082-.167.135-.355.16-.563.032-.27.007-.521-.076-.752-.083-.232-.21-.419-.381-.564-.171-.144-.364-.229-.58-.254-.15-.018-.303-.001-.46.052-.156.053-.297.137-.423.251" fill="#0e1e2d" transform="matrix(6.25 0 0 -6.25 210.377 336.0975)"/><path d="m0 0c.173.042.32.126.443.25.123.125.163.283.12.475-.034.151-.098.256-.194.313s-.206.072-.332.044c-.109-.024-.176-.064-.2-.12-.025-.043-.023-.127.005-.251zm.214-.937c.023-.104.055-.166.097-.187l.039-.016c.053-.025.083-.058.093-.099.018-.085-.021-.138-.117-.159l-.56-.124c-.096-.022-.154.01-.173.094-.006.03-.006.053.002.067.008.015.023.036.046.063l.023.03c.03.03.033.101.009.21l-.39 1.75c-.025.115-.058.18-.098.194l-.034.018c-.033.015-.056.029-.069.038-.013.01-.023.03-.029.06-.019.084.02.137.116.158l1.046.239c.216.048.386.05.511.006.093-.032.175-.091.247-.177.073-.086.122-.187.147-.302.067-.298-.03-.568-.29-.811.193-.166.396-.435.609-.804.039-.061.069-.104.09-.127.022-.023.055-.044.1-.066.034-.014.057-.026.069-.034s.021-.027.028-.056c.016-.073-.028-.12-.13-.144l-.575-.127c-.054-.012-.098-.015-.134-.008s-.059.037-.071.088c-.008.037.005.077.039.118.035.042.048.08.041.114-.02.086-.094.217-.224.392s-.24.303-.328.383l-.277-.125z" fill="#0e1e2d" transform="matrix(6.25 0 0 -6.25 221.3745 333.70875)"/><path d="m0 0c.164.084.293.196.389.334.095.139.112.303.051.493-.048.152-.125.259-.231.32-.105.061-.218.073-.338.034-.092-.029-.146-.07-.164-.123-.017-.044-.008-.12.026-.226zm.262-.816c.024-.054.043-.091.056-.112.019-.026.037-.042.052-.046.016-.005.045-.011.089-.018.054-.009.09-.04.108-.094.024-.075-.029-.133-.158-.174l-.536-.172c-.094-.031-.155-.005-.181.077-.009.029-.011.05-.006.064s.018.037.037.069l.025.034c.027.033.024.103-.011.21l-.549 1.713c-.036.112-.075.173-.117.184l-.037.006c-.057.025-.092.057-.104.096-.027.083.007.139.101.169l.885.284c.227.073.422.088.587.046.115-.03.214-.087.299-.169s.148-.19.191-.321c.051-.16.057-.314.017-.462-.039-.149-.11-.283-.211-.403-.084-.098-.184-.18-.302-.248-.117-.067-.253-.132-.408-.193z" fill="#0e1e2d" transform="matrix(6.25 0 0 -6.25 237.00075 330.36375)"/><path d="m0 0c-.073.167-.162.323-.267.468-.104.145-.222.253-.354.325-.131.072-.265.078-.401.019-.196-.086-.291-.277-.284-.573.007-.214.065-.449.176-.703.071-.164.16-.319.266-.466.105-.147.224-.258.355-.334s.263-.085.397-.027c.137.06.225.161.264.304.039.142.041.3.008.474-.033.173-.086.344-.16.513m-.941-1.518c-.312.157-.552.427-.719.81-.081.187-.129.373-.143.559-.015.185.002.359.05.522.049.163.125.305.23.425.104.12.231.213.38.278.151.065.308.096.47.092.163-.004.32-.042.473-.114.151-.072.291-.177.418-.313.126-.137.232-.302.315-.494.109-.249.156-.497.144-.742-.013-.246-.081-.462-.203-.65-.122-.187-.282-.324-.482-.41-.138-.061-.29-.088-.455-.082-.166.005-.325.045-.478.119" fill="#0e1e2d" transform="matrix(6.25 0 0 -6.25 257.4595 322.25375)"/><path d="m0 0c.153.091.269.214.35.369s.073.318-.024.489c-.077.135-.169.216-.277.243s-.218.009-.33-.055c-.098-.055-.15-.113-.157-.174-.01-.048.016-.128.079-.239zm.478-.833c.053-.093.102-.143.148-.15l.042-.004c.058-.009.097-.032.118-.068.042-.075.021-.137-.065-.186l-.499-.283c-.086-.049-.15-.036-.193.039-.015.027-.021.049-.018.065.003.017.012.041.025.075l.013.035c.021.037.003.106-.053.203l-.884 1.56c-.058.102-.108.154-.151.156l-.037.007c-.037.006-.063.011-.078.016-.015.006-.03.022-.045.049-.043.075-.021.137.065.186l.93.534c.192.109.355.161.487.155.097-.003.194-.035.288-.097.094-.06.171-.143.229-.246.151-.265.137-.551-.04-.86.233-.102.506-.299.817-.591.056-.047.097-.078.124-.094s.065-.027.114-.033c.038-.005.063-.009.077-.014.013-.004.027-.019.043-.045.036-.065.009-.123-.083-.175l-.512-.291c-.048-.027-.09-.042-.126-.046s-.067.017-.094.064c-.018.033-.018.074.003.124s.023.09.005.121c-.043.077-.152.179-.328.309-.175.129-.317.219-.426.269l-.227-.2z" fill="#0e1e2d" transform="matrix(6.25 0 0 -6.25 267.3095 316.76625)"/><path d="m0 0c.079-.114.142-.187.187-.22s.096-.04.153-.021c.057.02.145.071.265.153.086.06.147.116.184.169s.058.129.062.229c-.002.073-.001.129.003.17s.02.072.049.092c.023.017.051.021.083.013.032-.007.058-.024.077-.051.038-.055.087-.161.145-.319.029-.074.04-.125.033-.154-.008-.028-.04-.062-.096-.101l-1.21-.849c-.081-.057-.146-.05-.196.021-.018.025-.026.046-.024.063.002.016.008.041.018.076l.014.039c.013.044-.011.111-.072.197l-1.033 1.473c-.064.092-.119.139-.165.142l-.039-.005c-.062.003-.106.022-.131.058-.026.036-.032.072-.02.106.013.035.035.063.067.085l1.153.809c.07.049.126.068.167.056.056-.023.137-.111.245-.264.061-.087.063-.152.003-.193-.032-.023-.091-.02-.177.011-.095.035-.175.041-.242.018-.065-.02-.154-.069-.266-.148-.107-.075-.17-.132-.187-.17-.029-.045-.028-.09.003-.134l.399-.569.372.261c.049.035.08.065.09.092.011.026.018.059.023.099.006.039.018.067.039.082.06.041.139-.009.238-.15.06-.086.099-.154.118-.205.02-.05.011-.089-.026-.115-.023-.015-.054-.02-.094-.012-.04.007-.073.01-.099.009-.026 0-.063-.018-.112-.052l-.372-.261z" fill="#0e1e2d" transform="matrix(6.25 0 0 -6.25 283.5645 312.1875)"/><path d="m0 0c.193.097.352.143.476.139.207-.007.388-.092.545-.256.204-.213.3-.454.287-.722-.014-.246-.118-.462-.312-.648-.154-.147-.326-.246-.515-.297-.107-.021-.22-.023-.338-.007-.119.017-.212.061-.28.133-.039.039-.062.085-.071.135-.009.051.002.091.032.119.048.047.122.051.22.013.021-.006.053-.016.096-.029s.075-.022.098-.028c.021-.005.047-.009.076-.011s.057-.003.084-.002c.142.011.267.068.372.169.085.08.136.182.153.304.017.121-.023.232-.119.333-.093.098-.197.132-.31.103-.091-.016-.216-.073-.373-.169-.192-.11-.357-.171-.494-.183-.237-.009-.44.075-.611.254-.088.091-.155.2-.202.324-.046.124-.066.244-.059.363.013.212.11.404.29.576.177.169.383.275.619.318.057.008.102-.001.134-.025.052-.03.135-.106.252-.228.071-.075.08-.138.025-.19-.024-.023-.064-.026-.121-.007-.056.017-.127.04-.211.069-.084.027-.167.035-.25.024-.083-.012-.165-.057-.247-.135-.07-.067-.11-.15-.121-.25s.023-.191.101-.273c.083-.086.166-.126.251-.119s.185.038.301.093z" fill="#0e1e2d" transform="matrix(6.25 0 0 -6.25 300.192 290.3275)"/><path d="m0 0-.052.025-.925.366.538-.907zm.193-1.629c-.048-.056-.09-.092-.124-.107-.035-.015-.072-.006-.112.029-.026.022-.041.061-.047.117.004.055-.007.105-.034.151l-.247.355c-.173.243-.411.631-.715 1.165-.1.169-.196.348-.289.536-.027.058-.036.103-.028.133.007.031.031.07.071.117.053.063.102.098.145.104.043.007.111-.008.204-.044l1.776-.698.362-.173c.033-.013.055-.021.069-.021.014-.001.042.002.082.008.047.014.086.007.12-.022.066-.056.065-.123-.001-.2l-.33-.388c-.081-.096-.153-.117-.216-.064-.032.027-.044.067-.038.121.006.053 0 .088-.02.105-.049.042-.208.122-.475.241l-.056.028-.548-.643c.011-.013.04-.056.09-.128.049-.073.092-.133.128-.181.036-.049.067-.084.093-.106.029-.024.054-.037.078-.04.023-.002.05 0 .081.008s.057.011.078.011.044-.01.067-.03c.038-.032.052-.068.039-.107-.012-.04-.044-.089-.095-.149z" fill="#0e1e2d" transform="matrix(6.25 0 0 -6.25 312.5745 281.58625)"/><path d="m0 0c-.018.012-.054.031-.11.056-.049.013-.1-.001-.153-.039-.054-.024-.104-.021-.149.01-.065.044-.059.123.019.238l.146.217c.075.112.145.146.21.103.046-.031.068-.076.066-.134-.015-.064-.007-.115.024-.152.014-.019.043-.048.09-.086l1.693-1.138c.093-.063.147-.112.162-.147.015-.034-.001-.089-.05-.161-.041-.06-.084-.092-.13-.096-.042-.004-.194.008-.453.036l-1.871.121 1.309-.881c.052-.027.09-.045.114-.053.022-.006.041-.008.058-.005.016.003.032.009.047.017.015.009.029.017.044.024.05.031.099.03.147-.002.065-.044.058-.123-.019-.238l-.146-.217c-.075-.112-.145-.146-.21-.103-.05.033-.07.077-.062.13.006.041.009.07.008.089 0 .019-.01.04-.03.064-.016.019-.047.047-.091.085l-1.381.928c-.034.022-.067.044-.1.067-.034.022-.066.038-.095.049-.03.011-.058.015-.086.014-.028-.003-.057-.015-.088-.037-.037-.024-.066-.038-.09-.044-.023-.006-.051.002-.086.026-.071.048-.075.12-.01.216l.229.34c.033.05.059.08.077.092s.058.02.121.025c.089.005.191.005.306 0 .114-.005.223-.01.326-.017s.246-.017.428-.03l.819-.062z" fill="#0e1e2d" transform="matrix(6.25 0 0 -6.25 318.46575 262.17875)"/><path d="m0 0c-.163.082-.331.145-.504.19-.173.044-.333.052-.48.024-.147-.029-.254-.109-.321-.242-.096-.191-.047-.399.148-.622.142-.161.336-.303.584-.429.16-.08.327-.143.502-.189.175-.045.338-.055.487-.03.15.026.257.104.323.234.067.133.07.267.009.402-.062.134-.161.258-.297.369-.136.112-.286.21-.451.293m.247-1.769c-.341-.079-.698-.024-1.072.164-.181.092-.337.205-.467.338-.13.134-.228.279-.295.435-.066.156-.098.313-.095.473.004.159.042.311.116.457.073.147.174.27.302.371s.274.172.437.214.337.05.522.026c.185-.024.37-.084.558-.178.242-.123.437-.282.584-.48.147-.197.234-.406.259-.628.026-.222-.01-.43-.108-.624-.068-.135-.168-.253-.299-.354-.13-.101-.278-.173-.442-.214" fill="#0e1e2d" transform="matrix(6.25 0 0 -6.25 331.42325 250.34625)"/><path d="m0 0c0 .036.008.069.023.099.016.029.036.044.061.044h.06c.052 0 .09.017.114.053.018.025.026.076.026.154v1.185c0 .057-.005.095-.016.117-.018.017-.044.026-.077.026h-.17c-.045 0-.072.005-.081.016-.006.011-.008.082-.008.212.003.012.046.023.13.033.083.009.157.027.222.053.082.031.151.072.208.124.057.051.106.077.149.077.074 0 .111-.059.111-.175v-1.668c0-.07.01-.12.029-.149.024-.039.052-.058.085-.058h.065c.065 0 .097-.048.097-.143 0-.103-.031-.154-.093-.154h-.842c-.062 0-.093.051-.093.154" fill="#0e1e2d" transform="matrix(6.25 0 0 -6.25 163.08825 33.51625)"/><path d="m0 0c0 .078-.029.136-.088.175-.058.039-.135.058-.232.058-.24-.006-.361-.092-.361-.26 0-.086.051-.152.153-.2.102-.047.173-.071.213-.071.034 0 .094.026.182.078.087.052.132.125.133.22m-.519-.643c-.008 0-.043-.02-.106-.059-.062-.038-.119-.092-.172-.159-.052-.067-.08-.147-.083-.239 0-.118.044-.211.13-.277.086-.067.195-.1.325-.1.119.006.219.036.301.089.081.053.127.133.136.24 0 .175-.066.299-.199.373s-.243.118-.332.132m-.281.132c-.016 0-.053.017-.112.051-.06.033-.115.088-.167.164-.052.075-.078.172-.078.291.012.212.095.358.251.438.155.079.336.12.544.12.212-.003.388-.052.529-.146.14-.095.211-.229.211-.402-.004-.249-.123-.405-.357-.468.124-.033.228-.098.31-.197.083-.099.128-.224.136-.376 0-.282-.072-.483-.215-.603s-.363-.183-.661-.188c-.274 0-.482.063-.622.191-.14.127-.21.304-.21.531.004.113.026.21.068.289.041.079.088.14.141.183s.102.075.148.094.074.028.084.028" fill="#0e1e2d" transform="matrix(6.25 0 0 -6.25 179.637 23.19125)"/><path d="m0 0c-.124-.003-.221-.048-.29-.137-.07-.089-.105-.194-.105-.314s.035-.225.105-.314c.069-.089.166-.135.29-.138.127.003.224.047.293.132.068.085.102.187.102.304 0 .078-.015.153-.046.225-.032.072-.077.131-.137.175-.06.045-.13.067-.212.067m.463.956c-.007-.005-.049-.017-.127-.037-.079-.021-.159-.054-.242-.099-.082-.046-.162-.116-.239-.209-.094-.111-.158-.254-.191-.431.004.005.02.02.048.048.028.027.075.051.139.073.065.023.15.034.255.034.221 0 .399-.071.534-.212.134-.141.201-.355.201-.643-.011-.239-.097-.419-.255-.54-.159-.122-.36-.182-.604-.182-.179 0-.333.042-.461.126-.127.084-.224.199-.29.344-.065.146-.098.307-.098.485 0 .03.003.076.008.138.026.269.093.491.201.667s.229.307.363.393c.135.086.26.145.376.176.117.031.212.048.284.05.042 0 .076-.01.1-.03s.036-.044.036-.071c0-.032-.013-.059-.038-.08" fill="#0e1e2d" transform="matrix(6.25 0 0 -6.25 190.31575 26.84625)"/><path d="m0 0c0 .071-.014.106-.043.106-.064 0-.182-.111-.352-.334-.157-.205-.235-.372-.235-.5.012-.02.046-.031.103-.031h.527zm.463-1.04v-.139c0-.07.01-.12.03-.149.022-.039.052-.058.089-.058h.059c.029 0 .052-.013.07-.038.019-.025.028-.058.028-.1 0-.106-.031-.159-.094-.159h-.837c-.057 0-.085.046-.085.137 0 .107.03.16.089.16h.047c.051 0 .091.017.119.053.015.025.022.076.022.154v.139h-.897c-.063 0-.099.016-.11.047-.009.024-.014.051-.014.08 0 .098.042.23.125.398s.192.339.326.515c.1.131.208.247.324.348.115.101.224.179.326.234.102.054.181.082.238.082.097 0 .145-.046.145-.138v-1.285h.259c.053 0 .082-.046.085-.138 0-.096-.027-.143-.081-.143z" fill="#0e1e2d" transform="matrix(6.25 0 0 -6.25 203.997 23.96)"/></svg>