<svg height="34" viewBox="0 0 30 34" width="30" xmlns="http://www.w3.org/2000/svg"><g fill="none"><path d="m29.515 17.43c-.137-.15-.322-.246-.52-.274.17-.343.314-.76.397-1.27.055-.315-.083-.637-.343-.823-.043-.034-.09-.055-.14-.075.063-.247.104-.5.118-.782.02-.323-.144-.625-.426-.79-.006-.007-.02-.007-.027-.013.048-.234.076-.48.07-.748 0-.323-.187-.618-.475-.755-.07-.035-.144-.055-.22-.07-.006-.13-.02-.267-.048-.404-.054-.315-.28-.576-.59-.672-.048-.014-.09-.02-.137-.028-.014-.247-.07-.508-.158-.775-.096-.288-.343-.5-.638-.562v-.425c-.488-.44-4.777-4.118-11.25-4.118-6.518 0-10.725 3.637-11.247 4.118v.418c-.315.05-.583.27-.68.57-.088.268-.136.53-.157.776-.048.007-.09.014-.137.028-.31.096-.536.357-.59.672-.022.137-.042.275-.05.405-.075.015-.15.035-.22.07-.287.144-.472.432-.472.755 0 .267.02.514.068.748-.007.006-.02.006-.027.013-.283.158-.447.467-.427.79.014.274.055.535.117.782-.048.02-.096.048-.137.075-.26.186-.398.508-.343.824.082.508.226.926.398 1.27-.2.027-.385.116-.522.274-.213.24-.274.584-.158.88.138.336.29.63.453.885-.102.055-.19.137-.26.233-.192.26-.22.604-.075.892.213.412.44.748.686 1.03-.067.054-.13.123-.184.198-.18.268-.185.618-.02.893.274.467.562.838.864 1.133-.062.062-.117.137-.158.22-.137.288-.103.638.096.892.446.576.906.98 1.36 1.276-.138.118-.24.276-.29.454-.075.316.035.645.282.85.494.413.968.7 1.414.9-.185.15-.31.37-.323.618-.02.322.145.624.427.79.74.424 1.42.644 2.03.74-.143.178-.212.405-.184.638.04.323.254.59.563.7.748.26 1.413.37 1.997.37.466 0 .885-.068 1.255-.178.07.096.145.165.227.213 1.317.68 2.717.995 4.42.995 1.7 0 3.1-.316 4.42-.995.08-.04.15-.11.218-.2.357.104.762.166 1.222.166.583 0 1.25-.102 1.997-.37.302-.11.522-.377.563-.7.027-.233-.04-.46-.186-.638.61-.096 1.29-.316 2.03-.74.282-.16.447-.468.426-.79-.013-.247-.13-.467-.322-.618.453-.2.926-.487 1.413-.9.247-.205.357-.534.282-.85-.042-.178-.145-.336-.29-.453.453-.287.913-.7 1.36-1.275.198-.254.233-.597.095-.892-.04-.083-.096-.158-.157-.22.302-.295.59-.666.864-1.132.165-.28.15-.624-.02-.892-.048-.075-.117-.144-.186-.2.24-.28.474-.616.687-1.028.144-.288.116-.63-.076-.892-.068-.096-.158-.172-.26-.233.164-.254.315-.543.452-.886.13-.303.068-.64-.145-.88z" fill="#fff"/><path d="m10.188 28.706c-.02.062-.042.13-.053.2.02-.07.032-.13.053-.2zm.023-.144c-.01.032-.02.063-.02.106.01-.043.02-.074.02-.106zm-.01 2.443c-.022-.07-.044-.137-.065-.213.02.076.043.144.064.213zm.12.5c.01.022.022.043.022.064-.01-.022-.01-.043-.02-.064zm-.13-.43c.01.047.032.088.053.13-.02-.042-.042-.09-.053-.13zm.048.198c.02.048.042.096.074.144-.032-.048-.053-.096-.074-.144zm9.85-2.616c-.012-.032-.023-.063-.023-.095.01.032.01.063.022.095zm.065.248c-.022-.068-.032-.13-.053-.2.02.07.03.132.053.2zm-.06 2.1c.02-.07.042-.137.063-.213-.02.076-.042.144-.063.213zm-.165.575c.01-.02.02-.053.032-.074-.01.032-.02.053-.032.074zm.055-.163c.02-.048.053-.096.074-.144-.02.048-.042.096-.074.144zm.07-.213c.02-.04.03-.082.052-.13-.022.04-.043.09-.053.13z" fill="#fff"/><path d="m10.053 29.852c0-.02.007-.46.082-.947.035-.213.076-.39.13-.55-3.045-2.153-6.375-5.447-6.375-9.565v-9.217c-.226.048-.418.206-.494.433-.103.315-.15.624-.144.912-.09-.013-.185-.007-.274.02-.234.07-.412.27-.453.516-.035.192-.048.384-.048.562-.11-.007-.227.014-.33.062-.22.11-.363.336-.363.577 0 .33.04.617.102.864-.054.013-.11.034-.157.06-.214.125-.344.358-.324.605.02.35.082.66.165.926-.095.015-.184.056-.267.11-.2.145-.302.392-.26.633.11.665.322 1.166.583 1.55-.028-.013-.062-.02-.096-.034-.24-.07-.494.006-.66.19-.164.187-.212.447-.123.674.172.425.37.768.584 1.057-.164.028-.315.117-.418.255-.144.2-.172.46-.055.68.254.486.53.87.824 1.172-.137.05-.253.138-.336.26-.137.207-.144.475-.02.688.315.535.652.94 1.002 1.242-.124.06-.227.164-.29.295-.108.22-.08.487.077.68.494.63 1.036 1.097 1.626 1.406-.014 0-.02 0-.035.007-.24.055-.432.24-.487.48s.027.494.213.652c.598.5 1.215.85 1.84 1.043-.096.014-.186.035-.275.076-.226.096-.377.315-.39.562-.015.248.11.48.328.604.968.55 1.82.755 2.54.77-.11.033-.206.074-.302.136-.205.137-.315.378-.288.625.028.247.2.453.433.535.72.254 1.365.357 1.92.357.434 0 .81-.062 1.154-.15-.104-.214-.186-.495-.248-.852-.09-.5-.09-.94-.09-.96zm19.311-12.292c-.164-.184-.418-.26-.66-.19-.033.006-.067.02-.095.033.26-.384.473-.885.583-1.55.04-.24-.062-.488-.26-.632-.083-.054-.173-.095-.27-.11.084-.266.145-.568.166-.925.013-.247-.11-.48-.324-.604-.048-.026-.103-.047-.157-.06.067-.248.1-.536.1-.865 0-.247-.143-.474-.362-.577-.103-.048-.22-.07-.33-.062 0-.178-.013-.363-.048-.562-.04-.24-.212-.44-.453-.515-.09-.03-.185-.035-.274-.022.007-.288-.04-.59-.144-.912-.07-.213-.24-.364-.454-.426v9.203c0 4.124-3.328 7.418-6.375 9.573.05.158.097.343.13.55.083.486.083.926.083.946s-.007.46-.082.947c-.06.363-.143.65-.253.864.33.09.7.144 1.12.144.56 0 1.2-.103 1.92-.357.233-.08.398-.287.432-.534.027-.247-.083-.487-.29-.625-.095-.06-.19-.102-.3-.136.727-.014 1.578-.22 2.538-.768.213-.124.344-.357.33-.604s-.165-.467-.398-.563c-.096-.042-.185-.063-.282-.077.57-.178 1.195-.5 1.846-1.043.193-.158.275-.41.213-.652-.055-.24-.247-.425-.487-.48-.007 0-.02 0-.027-.007.535-.28 1.09-.72 1.626-1.406.15-.192.177-.46.074-.68-.06-.13-.164-.226-.288-.294.35-.31.686-.707 1.002-1.242.124-.213.117-.48-.02-.687-.083-.122-.2-.21-.337-.26.29-.3.57-.68.825-1.173.11-.22.09-.487-.055-.68-.103-.137-.254-.226-.42-.253.214-.282.413-.632.585-1.057.082-.22.034-.48-.13-.666z" fill="#000"/><path d="m8.063 27.3c.254-.11.466-.138.63-.145-.342-.288-.685-.59-1.015-.906-.727-.165-1.448.102-2.12.24-1.084.22-1.53.082-1.702.123 2.038 1.716 3.644.92 4.207.686zm-1.647-1.655c.28-.054.508-.034.665 0-.342-.363-.67-.734-.98-1.125-.604-.213-1.263-.124-1.86-.13-1.056-.014-1.448-.227-1.612-.227 1.557 2.01 3.218 1.592 3.788 1.482zm-1.242-1.805c.178-.006.322.007.446.035-.26-.378-.494-.762-.707-1.16-.5-.22-1.07-.22-1.58-.295-.966-.137-1.296-.384-1.447-.405 1.188 2.03 2.752 1.853 3.288 1.826zm-.748-2.024c.02 0 .048 0 .068.007-.15-.364-.274-.74-.37-1.125-.433-.186-.92-.22-1.352-.31-.906-.185-1.2-.432-1.338-.452 1.008 1.97 2.49 1.88 2.992 1.88zm-.556-1.873c.04.006.075.006.11.013-.048-.302-.076-.61-.09-.92-.405-.3-.926-.377-1.386-.514-.79-.24-1.036-.487-1.16-.52.74 1.845 2.073 1.893 2.526 1.94zm-.288-1.915c.123.04.22.09.3.137v-.837c-.307-.446-.822-.63-1.254-.878-.673-.378-.844-.652-.954-.707.302 1.846 1.51 2.155 1.908 2.285zm-.042-1.681c.158.068.268.157.343.226v-.79c-.226-.438-.686-.658-1.05-.92-.562-.397-.693-.657-.782-.712.097 1.66 1.147 2.046 1.49 2.197zm-.013-1.819c.267.137.356.33.356.336v-.638c-.123-.467-.535-.686-.85-.94-.44-.357-.53-.57-.598-.625-.013 1.353.817 1.724 1.092 1.868zm.323-1.188c.013.008.027.02.033.028v-.87c-.096-.11-.2-.207-.295-.31-.33-.37-.377-.57-.432-.63-.2 1.18.474 1.618.693 1.783zm20.827 13.143c-.66-.13-1.36-.392-2.066-.254-.335.32-.678.63-1.035.918.158.014.357.048.59.144.556.234 2.162 1.03 4.214-.693-.173-.028-.612.102-1.703-.117zm-.48-1.983c-.31.397-.64.775-.99 1.14.152-.03.358-.036.612.012.57.11 2.223.53 3.787-1.49-.164 0-.555.214-1.612.228-.584.006-1.215-.083-1.798.11zm1.173-1.812c-.213.405-.453.796-.714 1.173.11-.02.24-.033.392-.02.535.028 2.1.213 3.294-1.825-.15.02-.48.26-1.448.405-.488.07-1.037.076-1.524.268zm.776-2.011c-.096.39-.227.775-.37 1.146h.027c.5 0 1.99.09 2.998-1.887-.143.027-.438.274-1.337.453-.432.08-.892.115-1.317.287zm2.738-2.683c-.124.034-.37.28-1.16.52-.44.132-.94.207-1.345.488-.008.323-.042.64-.09.947.02 0 .04-.007.068-.007.453-.048 1.785-.096 2.526-1.95zm-.33-2.244c-.11.054-.28.33-.953.706-.41.234-.905.412-1.214.817v.865c.068-.04.158-.083.26-.117.4-.122 1.606-.43 1.908-2.27zm-.377-1.606c-.09.062-.22.322-.782.713-.35.248-.77.453-1.01.845v.837c.07-.063.172-.132.303-.193.343-.15 1.393-.536 1.49-2.203zm-1.475.384c.274-.144 1.104-.515 1.098-1.867-.07.056-.165.276-.598.626-.288.233-.65.44-.81.817v.693c.042-.076.138-.18.31-.268zm.37-2.971c-.055.054-.103.26-.432.63-.076.09-.165.172-.254.27v.884c.22-.17.878-.61.686-1.783zm-6.012 18.515c-.28-.18-.562-.39-.857-.584.013.206.013.35.013.364 0 .02-.006.46-.082.947-.014.088-.027.164-.048.246.666.172 1.53.18 2.622-.206-.15-.11-.646-.137-1.648-.768zm2.162-1.702c-.734-.295-1.49-.762-2.367-.638-.282.22-.57.425-.85.624.02.062.033.124.054.192.115.048.246.11.376.192.542.357 2.073 1.49 4.543.076-.173-.07-.66-.007-1.758-.446zm-13.087 2.422c-.082-.487-.082-.926-.082-.947 0-.013 0-.164.02-.39-.308.198-.603.425-.905.61-1.002.624-1.49.66-1.647.762 1.112.39 1.984.377 2.663.2-.02-.07-.034-.152-.048-.235zm.131-2.436c-.275-.192-.556-.398-.83-.61-.9-.152-1.675.33-2.423.63-1.098.44-1.585.378-1.757.454 2.47 1.413 4 .274 4.543-.076.15-.103.294-.165.425-.213.006-.067.02-.13.04-.184z" fill="#a39161"/><g fill="#000"><path d="m13.766 26.75v-19.057c-.995.103-1.9.302-2.725.563v17.704c.523.38 1.03.715 1.518 1.01.39-.096.79-.172 1.208-.22zm8.194-3.266c1.345-1.572 2.024-3.198 2.024-4.86v-7.78c-.213-.186-.913-.777-2.025-1.4v14.04zm-15.675-12.641v7.775c0 1.66.68 3.287 2.025 4.86v-14.043c-1.112.625-1.82 1.222-2.025 1.407zm11.427 16.127c.48-.295.995-.63 1.51-1.01v-17.696c-.824-.26-1.737-.467-2.725-.563v19.05c.425.048.83.124 1.215.22z"/><path d="m15.138 5.092c-6.39 0-10.52 3.57-11.028 4.035v9.642c0 4.034 3.253 7.26 6.238 9.367.103-.234.226-.398.37-.474.508-.26 1.03-.467 1.58-.624-.625-.393-1.29-.846-1.95-1.367-2.82-2.23-4.255-4.598-4.255-7.055v-7.864l.035-.028c.37-.336 3.774-3.3 9.017-3.3 5.188 0 8.64 2.964 9.017 3.3l.035.028v7.864c0 2.457-1.428 4.825-4.248 7.055-.667.52-1.333.98-1.95 1.366.542.156 1.063.362 1.57.623.152.082.276.247.38.48 2.984-2.106 6.237-5.34 6.237-9.374v-9.64c-.5-.425-4.708-4.035-11.05-4.035z"/></g><path d="m27.532 28.898c-.07-.466-.268-.94-.453-1.345-.008-.014-.015-.027-.022-.034l-.164-.248c-.213-.336-.453-.7-.844-.885-.042-.083-.316-.604-.316-.604-.007-.014-.014-.02-.02-.028-.412-.52-.893-.995-1.36-1.455l-.185-.185c-.056-.295-.227-.508-.392-.7-.103-.123-.206-.24-.274-.37-.02-.035-.042-.062-.076-.083-.31-.17-.66-.666-.844-1.064-.007-.006-.165-.28-.31-.52.097.04.193.088.283.13l.205.095c.817.337 1.517.707 2.327 1.14l.246.13.226.144c.138.096.268.178.467.233.164.048.46 0 .562-.267.007-.014.007-.028.013-.04.048-.358-.2-.722-.398-1.024l-.06-.09c0-.007-.242-.343-.242-.343-.48-.693-.974-1.407-1.653-1.977l-.392-.398c-.006-.007-.013-.013-.027-.02-1.077-.776-1.846-1.75-2.656-2.773-.686-.872-1.393-1.764-2.306-2.526l-.012-.014c-1.12-.762-2.1-1.812-3.054-2.82l-1.16-1.2c-.522-.447-.988-.832-1.51-1.127-.034-.027-.377-.364-.377-.364-.645-.598-1.256-1.174-1.256-1.93 0-.15.028-.308.076-.48l.02-.06c.234-.722.475-1.463 1.126-1.923.014-.013.028-.02.042-.034 0 0 .638-.803.672-.837.824-.604 1.922-1.338 3.205-1.66.008 0 .008-.008.015-.008l.144-.165c.033-.11-.022-.2-.05-.24l-.003-.009c-.015-.02-.035-.048-.055-.07-.44-.314-.97-.403-1.43-.45-.918-.12-1.85-.12-2.77-.01-.64-.19-2.65-.69-4.195.105-.55.288-.74.817-.9 1.235-.08.22-.157.425-.267.548-1.236 1.167-1.75 2.505-2.3 3.926 0 0-.247.624-.247.63l-.102.22c-.308.68-.72 1.613-1.194 2.204-.006.013-.048.082-.054.096-.076.17-.26.68-.282.906-.055.494.04.98.192 1.31.172.37.488.687.652.927.46.713.844 1.2 1.263 1.935.81 1.42 1.613 2.855 2.718 4.186l.013.014c.995.98 2.183 1.633 3.54 1.942.55.576.928 1.47 1.353 2.12 0 0 .454.776.475.803.055.09.04.18.04.275 0 .123.035.26-.013.432s-.096.35-.096.542v.014c.007.07.007.137.007.2 0 .418.158.802-.02 1.276-.076.2-.18.44-.302.686.357-.082.728-.137 1.112-.18l.316-.616c.144-.295.364-.535.55-.748.232-.26.43-.487.466-.755.02-.432.06-.975.22-1.47.075-.047.15-.102.233-.21.06-.084.082-.173.082-.262 0-.095-.022-.19-.042-.274-.02-.096-.035-.144-.035-.178s.014-.04.028-.048c.262-.083.57-.048.783.082.124.13.2.288.282.46.075.15.157.31.267.46.055.213.076.446.09.693.027.46.068.94.37 1.324.027.09.04.178.04.267 0 .295-.13.597-.246.85l-.062.152c-.048.11-.103.232-.17.363.32.055.63.123.94.212.198-.343.39-.7.555-1.077.095-.24.115-.494.136-.74.055.095.117.19.172.294.205.35.418.707.706 1.036.26.446.59 1.098.748 1.613.007.028.02.056.042.076.274.29.7.42 1.207.378.79-.117.955.027 1.058.123.055.048.124.11.234.13l1.804.028c.543-.027 1.105-.062 1.675 0l.934.213c.062.014.124 0 .172-.048.04-.034.062-.09.062-.144.034-.007.034-.014.034-.028z" fill="#fff"/><path d="m26.9 27.63c-.26-.372-.514-.92-.995-1.113l-.343-.652c-.473-.59-1.022-1.12-1.564-1.66-.04-.46-.467-.687-.66-1.085-.356-.2-.727-.727-.926-1.153-.15-.274-.377-.638-.535-.906.31 0 .68.228.968.358.906.37 1.66.782 2.58 1.27.268.15.384.295.652.357.09.027.28 0 .336-.15.048-.317-.247-.7-.432-.983-.57-.81-1.09-1.633-1.86-2.278l-.404-.405c-2.052-1.477-3.033-3.693-4.968-5.313-1.58-1.077-2.848-2.662-4.24-4.05-.482-.41-.962-.815-1.49-1.103-.838-.838-2.045-1.654-1.627-2.98.24-.74.495-1.57 1.223-2.078l.686-.858c1.008-.748 2.065-1.393 3.266-1.702.09-.04.027-.103 0-.15-.385-.282-.85-.365-1.34-.42-.918-.116-1.845-.116-2.77 0-1.25-.384-2.897-.535-4.09.076-.736.412-.722 1.345-1.08 1.75-1.4 1.318-1.857 2.868-2.504 4.495-.308.68-.79 1.798-1.33 2.477-.227.536-.516 1.167-.035 2.19.144.3.33.48.487.706 1.66 2.292 2.368 4.22 4.035 6.218 1.008.995 2.195 1.626 3.513 1.908 1.07.864 1.2 2.003 1.92 3 .262.45-.08.89-.074 1.357.033.584.157 1.05-.03 1.544-.06.165-.15.364-.246.577.213-.04.433-.076.652-.103.165-.322.302-.59.378-.733.33-.666.954-1.044.995-1.435.02-.542.08-1.077.246-1.564.09-.055.165-.103.247-.213.165-.22-.24-.666.117-.824.315-.102.707-.067.974.118.288.295.35.686.61.995.18.666-.006 1.482.46 2.025.18.507-.123 1.063-.267 1.413-.04.104-.096.214-.15.33.184.035.37.083.548.13.206-.356.398-.72.577-1.104.144-.37.116-.816.17-1.22.427.568.687 1.234 1.188 1.79.282.48.61 1.14.77 1.66.28.29.706.344 1.05.316 1.166-.17 1.13.22 1.337.254 1.132.165 2.258-.103 3.473.028l.953.22c-.075-.474-.274-.94-.452-1.325zm-15.412-26.533c.124-.13.323-.15.48-.137v.097c-.075.096-.246.233-.418.15-.035-.027-.083-.054-.063-.11zm-.075 1.99c.41-.9.494-.762 1.105-.686.267-.04.425-.213.57-.398l-.042-.055c-.35.08-.693.35-1.07.19-.152-.11-.186-.287-.138-.46.323-.39 1.064-.047 1.455-.356.124-.157-.2-.22-.274-.274-.07-.04-.213.007-.213-.117.144-.11.364-.055.528-.068.275 0 .645-.144.652.09 0 .404-.686.54-.61.822.102.186.288.103.44.042.37-.166.678-.49 1.07-.612.082-.02.13.027.136.096v.055c-1.055.548-2.03 1.31-3.018 2.023-.185.11-.357.213-.577.15-.13-.102 0-.3-.013-.445zm-3.953.74c.184.276-.646.42-.077.537.103.432-.665.55-.953.857.006.055-.014.145.096.117.267-.022.658-.48.727-.248.055.31-.302.343-.48.46-.22.103-.48.226-.59.48-.042.124.15.083.212.055.227-.07.542-.453.632-.322.04.116-.055.233-.138.322-.316.24-.824.192-.975.63-.014.11.185.173.31.118.198-.09.458-.508.568-.343.048.144-.068.288-.192.364-.54.487-1.118.9-1.776 1.105-.083-.116-.014-.267.02-.384.48-1.434 1.12-2.813 1.95-4.104.178-.205.555-.35.747-.096-.006.275-.397.213-.438.46.103.083.24-.007.357-.007zm3.15-2.387c-.16.015-.482-.232-.612.042-.055.158.055.44-.172.48-.13.014-.315.008-.322-.137-.034-.185-.04-.398.075-.555.116-.254.445-.426.81-.364.157.034.315.144.39.343.035.123-.055.164-.17.19zm2.572 8.387-.055-.213c.563.302 1.098.714 1.565 1.2.5.454 1.07 1.195 1.07 1.278-.09.075-.473-.35-.782-.343-.192.047.055.32-.096.383-.206.076-1.2-.384-1.564-.9.054-.02.164-.02.15-.095.05-.082-.384-.233-.322-.384 0 0 .096.082.172.055.178-.173-.33-.358-.042-.496.014-.17-.178-.302-.247-.418.042-.02.11-.028.152-.07zm5.223 8.16c-.2-.165-.37-.378-.61-.44-.104.014-.09.09-.09.13.116.173.57.24.432.44-.31.192-.583-.165-.858-.288-.86-.66-1.675-1.435-2.485-2.156-.206-.2-.37-.467-.31-.515.05-.062.365.13.468.185s.103-.07.103-.07c-.714-.78-2.08-1.33-2.004-2.56.02-.102.103-.198.192-.246.28-.213 2.56.487 3.514 1.05 1.03.555 1.95 1.475 2.614 2.463.007.048.028.096.02.15-.06.097-.205.008-.342-.095-.165-.117-.316-.268-.494-.343l-.055.055c.385.507 1.215.823 1.21 1.544l-.118.013c-.343-.226-.673-.535-1.03-.658-.09.04 0 .115.042.15.357.253.727.507 1.07.802.076.103.096.254.055.385h-.118c-.288-.206-.52-.385-.898-.535-.076.15.096.226.267.343.27.15.866.322.612.63-.474.365-.872-.19-1.187-.438zm5.195 6.547c-.337-.076-.556-.433-.838-.652-.15-.172-.26-.357-.404-.536-.076-.04-.13 0-.13.097-.145.487.802 1.372 1.145 2.08.07.184.192.397.117.59-.185.11-.755-.022-.9-.076-.33-.2-.52-1.037-.953-1.565-.09-.04-.082-.172-.192-.15-.137.122.014.267.02.397.124.3.385.562.364.898l-.172-.02c-.364-.495-.68-1.03-1.092-1.49-.17.13 0 .31 0 .46.15.384.426.707.48 1.125 0 .13-.178.07-.246.055-.687-.638-.9-1.544-1.47-2.27-.088-.008-.116.074-.15.136.117.645.556 1.153.494 1.874-.034.02-.048.075-.096.054-.432-.624-1.105-1.324-.665-2.14.22-.7-.35-1.353-.02-2.025.212-.227.527-.192.822-.15.15-.2.076-.51.364-.632.246-.165.637-.097.878.04.94 1.167 1.722 2.396 2.635 3.57-.007.116.144.246.007.33z" fill="#000"/><path d="m20.134 28.905c-.11-.672-.302-1.09-.583-1.242-1.317-.68-2.717-.995-4.42-.995-1.7 0-3.1.316-4.418.995-.275.15-.467.57-.577 1.242-.082.487-.082.927-.082.947s.007.46.082.947c.11.672.302 1.09.577 1.24 1.317.68 2.717.996 4.42.996 1.7 0 3.1-.315 4.42-.995.273-.15.465-.568.575-1.24.083-.488.083-.927.083-.948.006-.02.006-.46-.076-.947z" fill="#fff"/><g fill="#000"><path d="m14.445 29.97h-.07c-.08 0-.163.06-.163.218v.344c0 .164.09.22.164.22h.07c.08 0 .164-.063.164-.22v-.344c0-.157-.09-.22-.165-.22zm0-1.024h-.07c-.08 0-.163.062-.163.22v.26c0 .165.09.22.164.22h.07c.08 0 .164-.06.164-.22v-.26c0-.165-.09-.22-.165-.22zm1.407 0c-.117 0-.185.04-.185.206v.467c0 .164.068.205.185.205.103 0 .185-.048.185-.206v-.468c0-.165-.07-.206-.185-.206z"/><path d="m19.462 27.828c-1.284-.66-2.663-.968-4.33-.975-1.668 0-3.048.31-4.338.975-.446.247-.556 1.544-.563 2.017.008.474.118 1.77.564 2.018 1.29.666 2.663.974 4.33.974 1.668 0 3.047-.308 4.338-.974.446-.247.555-1.544.562-2.025 0-.466-.11-1.763-.562-2.01zm-.412 3.644-.014.013c-1.16.598-2.395.872-3.898.872s-2.745-.274-3.898-.872l-.014-.006c-.226-.187-.356-1.058-.363-1.62.007-.557.137-1.428.357-1.62l.013-.014c1.16-.597 2.395-.872 3.898-.872 1.504 0 2.746.275 3.9.872l.013.007c.226.185.357 1.056.364 1.62-.007.555-.13 1.427-.357 1.62z"/><path d="m18.87 28.397c-1.104-.562-2.29-.83-3.74-.83-1.44 0-2.627.26-3.732.83-.124.117-.28.783-.288 1.455.007.66.164 1.345.288 1.455 1.105.563 2.292.83 3.733.83 1.442 0 2.63-.26 3.734-.83.124-.117.282-.782.29-1.455 0-.66-.16-1.345-.283-1.455zm-5.324 2.663h-1.14v-.336h.392v-1.668l-.39.124v-.357l.5-.172h.28v2.08h.358v.33zm1.448-1.64c0 .15-.034.35-.233.377.213.04.234.29.234.42v.356c0 .336-.178.514-.535.514h-.11c-.35 0-.536-.17-.536-.514v-.357c0-.13.027-.378.233-.42-.2-.033-.233-.225-.233-.376v-.295c0-.337.178-.515.535-.515h.11c.35 0 .534.172.534.515v.295zm1.434 1.173c0 .357-.192.5-.562.5h-.007c-.365 0-.564-.136-.564-.5v-.226h.384v.185c0 .165.062.206.18.206.115 0 .177-.04.177-.206v-.5c-.055.06-.123.11-.28.11-.276 0-.482-.138-.482-.502v-.55c0-.356.206-.5.57-.5h.007c.364 0 .57.137.57.5v1.483h.006zm1.435-1.2c0 .3-.2.432-.426.658-.2.193-.33.324-.33.46v.22h.762v.33h-1.147v-.563c0-.31.254-.508.494-.734.186-.178.268-.247.268-.377v-.234c0-.165-.082-.206-.192-.206s-.185.04-.185.206v.35h-.378v-.39c0-.358.2-.502.57-.502h.007c.363 0 .57.137.57.5v.282h-.014z"/></g></g></svg>