<svg enable-background="new 0 0 270.693 222.059" height="286.415" viewBox="0 0 270.693 222.059" width="349.144" xmlns="http://www.w3.org/2000/svg"><path clip-rule="evenodd" d="m0 0v76.861l130.775 140.555 4.306 4.643 4.256-4.701 131.356-142.271v-75.087z" fill="#010101" fill-rule="evenodd"/><g fill="#cc2031"><path clip-rule="evenodd" d="m6.523 6.789v58.696l22.86-3.918v-8.103l-14.453 1.832v-19.767h13.01v-8.884h-13.01v-10.974h14.761v-8.882z" fill-rule="evenodd"/><path d="m38.809 6.789v20.645l16.501 14.367v7.221l-8.973 2.081v-6.159l-7.827-6.538v21.59l24.62-3.919v-18.977l-16.793-13.849v-7.58h8.973v5.75l7.53 6.271v-20.903z"/><path d="m72.392 6.789v20.903l14.762 12.812v9.164l-7.821-.079v-5.17l-6.941-6.271v18.316h22.002v-20.672l-14.755-12.8v-7.321h7.515v4.441l7.546 6.274v-19.597z"/><path d="m112.661 35.269h13.576v-8.883h-13.576v-10.979h14.454v-8.618h-22.855v49.547h11.907l11.756-8.779-15.262.007z"/><path d="m135.805 44.557v-38.036h7.257l11.228 27.443v-27.175h7.523v49.652h-9.852l-9.205-27.966v20.725z"/><path d="m238.575 60.914v-54.393h7.805l10.438 32.111v-31.843h7.531v58.098l-9.282-1.424-8.962-34.988v33.487z"/><path d="m170.769 56.184v-49.395h26.936s.291 10.714-2.316 24.04c-2.917 14.89-8.104 25.355-8.104 25.355zm8.386-40.513v31.619h3.208s4.048-11.761 5.206-19.856c1.161-8.101.88-11.763.88-11.763z"/><path clip-rule="evenodd" d="m207.764 56.36s-4.795-11.156-4.795-25.016c0-13.841 4.922-24.555 4.922-24.555h18.809s4.926 12.27 4.926 26.119-5.782 26.321-5.782 26.321zm12.196-7.385s2.976-8.191 2.976-17.057c0-8.862-3.152-16.247-3.152-16.247h-4.958s-3.168 6.861-3.168 15.731c0 8.867 2.974 16.823 2.974 16.823z" fill-rule="evenodd"/><path d="m265.297 73.757-130.265 139.688-129.462-139.181 57.213-9.425h54.649l17.43-12.761 18.004 12.761h54.38z"/></g><path d="m82.48 131.212-46.573-47.353 14.738-2.493 52.373 26.144c-1.445 1.66-3.276 3.82-5.205 6.257.002-.003.005-.006.006-.009l-49.651-27.013 46.572 31.038c.037-.05.075-.099.112-.149-.374.508-.749 1.023-1.12 1.543-2.669 3.714-4.668 7.665-6.07 10.876z" fill="#bdbec0"/><path d="m134.863 193.303s-2.935-4.672-6.343-11.123c1.033-.758 2.966-1.664 6.343-1.664 3.067 0 5.168.8 6.478 1.561-3.428 6.503-6.388 11.226-6.388 11.226z" fill="#d2d3d4"/><path d="m177.63 141.685-6.216-1.549-12.03 3.111-3.869-5.056s-.774 10.869-6.61 27.16c-1.734 4.857-4.073 9.909-6.34 14.361-1.403-1.142-3.998-2.708-7.703-2.708-3.634 0-6.394 1.383-7.829 2.3-2.203-4.351-4.455-9.242-6.135-13.953-5.827-16.291-6.6-27.16-6.6-27.16l-3.887 5.056-12.026-3.111-6.218 1.549-3.103-2.72s2.733-9.311 8.538-17.459c5.828-8.152 12.414-15.134 12.414-15.134l11.262 5.822s2.331-5.055 4.652-9.311c2.329-4.272 4.273-8.152 4.273-8.152l-36.083-13.792h30.649l2.329 3.692 7.764-7.432h.09l7.754 7.432 2.329-3.692h30.66l-36.099 13.792s1.941 3.88 4.277 8.152c2.324 4.256 4.646 9.311 4.646 9.311l11.254-5.822s6.602 6.982 12.422 15.134c5.821 8.148 8.531 17.459 8.531 17.459z" fill="#bdbec0"/><path d="m182.143 130.052c-1.41-3.211-3.409-7.162-6.062-10.875-.336-.472-.675-.936-1.017-1.398l46.556-31.035-49.624 27.013c.096.124.196.255.294.38-2.042-2.591-3.984-4.883-5.503-6.628l51.737-26.064 15.385 2.413-46.58 47.353z" fill="#bdbec0"/><path clip-rule="evenodd" d="m143.012 111.034 4.412 6.611 15.275-8.032c-1.765-2.006-2.926-3.241-2.926-3.241l-11.254 5.823s-2.321-5.056-4.645-9.312c-2.337-4.272-4.278-8.151-4.278-8.151l3.096-10.109-7.739-7.424h-.09v45.177z" fill="#939598" fill-rule="evenodd"/><path d="m265.297 73.757-130.264 139.688-129.463-139.181 57.213-9.425h54.649l17.43-12.761 18.003 12.761h54.381zm-58.542-3.089h-58.621l-13.272-9.318-13.286 9.318h-58.221l-45.603 8.069 117.214 126.11 117.999-127.246z" fill="#939598"/><path clip-rule="evenodd" d="m179.039 134.251-3.043 2.772-5.822-1.933-10.86 2.716-6.596-8.539-.773 9.698-5.054-1.942 2.33 10.482s-2.33 4.659-5.433 8.148c-2.13 2.395-6.416 4.056-8.925 4.861v32.789h.09s9.221-14.705 13.952-27.952c5.837-16.291 6.61-27.16 6.61-27.16l3.87 5.056 12.03-3.112 6.216 1.55 3.096-2.72s-.551-1.892-1.688-4.714" fill="#939598" fill-rule="evenodd"/><path d="m42.243 82.771 52.496 35.012c2.992-4.064 6.078-7.748 8.278-10.273l-52.373-26.143z" fill="#939598"/><path clip-rule="evenodd" d="m175.066 117.783c.34.467.678.927 1.015 1.394.533.754 1.049 1.532 1.543 2.296l43.997-34.728z" fill="#939598" fill-rule="evenodd"/><path d="m134.863 61.35v-9.272l-17.431 12.745 4.265 5.531z" fill="#bdbec0"/><path d="m206.755 70.668.107.016v-5.845h-54.578l-.081-.224-4.303 5.376.234.677z" fill="#bdbec0"/><path d="m134.863 204.718-117.111-125.981 45.032-7.948v-5.949l-57.214 9.424 129.293 139.006z" fill="#bdbec0"/><path d="m133.718 148.546c-4.412-.483-7.273-3.759-8.675-5.87l-.936 3.983c.599 1.548 3.718 8.832 9.611 9.691z" fill="#010101"/><path d="m145.101 143.515c-1.959 2.047-5.12 4.583-9.045 5.03v7.785c4.772-.694 8.425-5.43 10.142-8.124z" fill="#010101"/><path clip-rule="evenodd" d="m134.863 190.587s2.62-3.984 3.289-5.24c.692-1.261 1.176-2.226 1.176-2.226s-.549-.487-2.241-.873c-1.646-.404-2.227-.277-2.227-.277z" fill="#010101" fill-rule="evenodd"/><path d="m241.861 81.576-24.481-4.038-52.552 26.894-4.669-3.492-8.923 3.878-3.878-7.376 47.355-20.566h-50.839l-8.922-7.378h-.089l-8.933 7.378h-50.827l47.343 20.566-3.883 7.376-8.926-3.878-4.659 3.492-54.554-26.822-22.888 4.239 51.823 55.562 6.215-1.162-1.547 6.594 5.432 5.056 9.302-2.717 8.934 3.492s4.651 9.31 11.245 21.73c6.604 12.425 15.923 27.164 15.923 27.164h.089s9.302-14.739 15.898-27.164c6.599-12.42 11.245-21.73 11.245-21.73l8.929-3.492 9.314 2.717 5.442-5.056-1.556-6.594 6.217 1.162zm-159.381 49.635-46.574-47.353 14.738-2.492 52.374 26.143c-1.445 1.66-3.276 3.82-5.205 6.257.002-.003.005-.006.006-.009l-49.652-27.013 46.572 31.038c.038-.05.076-.099.113-.149-.375.509-.75 1.023-1.12 1.544-2.669 3.713-4.668 7.664-6.07 10.875zm52.383 62.092s-2.936-4.672-6.343-11.123c1.032-.758 2.966-1.664 6.343-1.664 3.067 0 5.167.799 6.478 1.56-3.428 6.504-6.389 11.227-6.389 11.227zm42.767-51.618-6.215-1.55-12.031 3.112-3.869-5.056s-.773 10.869-6.61 27.16c-1.733 4.857-4.073 9.909-6.34 14.361-1.403-1.143-3.998-2.709-7.702-2.709-3.635 0-6.395 1.384-7.83 2.301-2.203-4.351-4.454-9.243-6.134-13.953-5.828-16.291-6.601-27.16-6.601-27.16l-3.887 5.056-12.026-3.112-6.218 1.55-3.103-2.72s2.733-9.311 8.538-17.459c5.828-8.152 12.414-15.134 12.414-15.134l11.262 5.822s2.331-5.055 4.652-9.311c2.33-4.272 4.274-8.152 4.274-8.152l-36.084-13.792h30.649l2.329 3.692 7.765-7.432h.089l7.754 7.432 2.33-3.692h30.659l-36.099 13.792s1.941 3.88 4.278 8.152c2.324 4.256 4.645 9.311 4.645 9.311l11.254-5.822s6.602 6.982 12.422 15.134c5.821 8.148 8.531 17.459 8.531 17.459zm4.513-11.633c-1.41-3.211-3.409-7.162-6.062-10.875-.336-.472-.675-.936-1.017-1.398l46.556-31.035-49.624 27.013c.096.124.196.255.294.38-2.042-2.591-3.984-4.883-5.503-6.628l51.737-26.064 15.385 2.413-46.58 47.353z" fill="#010101"/></svg>