<svg enable-background="new 0 0 27.2810059 27.1026001" height="315.192" viewBox="0 0 27.281 27.103" width="317.267" xmlns="http://www.w3.org/2000/svg" xmlns:xlink="http://www.w3.org/1999/xlink"><clipPath id="a"><path d="m0 0h27.281v27.102h-27.281z"/></clipPath><path clip-path="url(#a)" d="m13.639 0c-4.292 0-7.153.715-7.153.715v2.375 10.108c0 1.119.136 1.991 1.431 2.837.652.427 5.722 3.736 5.722 3.736s5.07-3.309 5.722-3.736c1.295-.846 1.431-1.718 1.431-2.837v-10.107-2.375s-2.861-.716-7.153-.716" fill="#a2acb4"/><path clip-path="url(#a)" d="m20.363 13.199c0 .534-.033.969-.196 1.354-.177.418-.507.775-1.04 1.124-.564.368-4.482 2.925-5.488 3.582-1.006-.657-4.923-3.214-5.487-3.582-.533-.349-.864-.706-1.041-1.124-.162-.385-.196-.82-.196-1.354v-10.199c.95-.187 3.411-.596 6.724-.596 3.314 0 5.774.409 6.724.596z" fill="#2a0d54"/><path clip-path="url(#a)" d="m10.921 12.913v.858h4.164l1.272-1.09v-3.113l-1.272-1.09h-.731v.859h.414l.731.626v2.323l-.731.627h-2.273v-3.576h.429v-.859h-2.003v.859h.715v3.576z" fill="#fff"/><path clip-path="url(#a)" d="m13.21 12.626h.858v-4.864h3.147v-.858h-3.147v-.337c.548-.18.943-.695.943-1.302 0-.758-.615-1.372-1.372-1.372s-1.371.614-1.371 1.372c0 .607.395 1.122.942 1.302v.337h-3.147v.858h3.147zm.429-7.889c.291 0 .528.237.528.528 0 .29-.237.527-.528.527s-.528-.237-.528-.527c0-.291.237-.528.528-.528" fill="#fff"/><path clip-path="url(#a)" d="m17.645 11.76v1.173c0 .409-.106.589-.487.837-.249.162-2.207 1.424-3.089 1.993v-1.706h-.859v1.706c-.882-.569-2.84-1.831-3.09-1.993-.381-.248-.486-.428-.486-.837v-1.173h-.859v1.445c0 .392.065.758.62 1.116s4.244 2.74 4.244 2.74 3.69-2.382 4.245-2.74.619-.724.619-1.116v-1.445z" fill="#fff"/><g fill="#2a0d54"><path clip-path="url(#a)" d="m9.063 1.903v-.848c.255-.032.51-.062.766-.088v.183c-.175.018-.348.037-.521.058v.159c.124-.014.247-.029.371-.042v.143c-.124.013-.247.027-.371.042v.169c.173-.02.346-.04.52-.058v.194c-.256.026-.511.056-.765.088"/><path clip-path="url(#a)" d="m10.796 1.754c-.183.014-.339-.027-.463-.095.033-.052.066-.105.099-.157.118.06.251.093.369.084.127-.01.178-.057.178-.107 0-.143-.604-.009-.604-.317 0-.153.17-.292.422-.312.182-.014.316.035.422.108-.038.047-.076.093-.114.14-.089-.055-.206-.088-.314-.08-.113.009-.18.053-.18.104 0 .136.61.018.61.32 0 .165-.183.293-.425.312"/><path clip-path="url(#a)" d="m12.214.984v.658c-.083.003-.166.007-.249.011v-.659c-.104.005-.209.011-.313.016v-.189c.291-.016.583-.029.874-.038v.19c-.104.003-.208.007-.312.011"/><path clip-path="url(#a)" d="m12.819 1.624v-.182c.06-.001.121-.003.181-.004v.182c-.06.001-.121.003-.181.004"/><path clip-path="url(#a)" d="m14.123 1.617v-.744c.078.001.113-.046.113-.102.039 0 .077.001.115.002v.848c-.076-.002-.152-.003-.228-.004"/><path clip-path="url(#a)" d="m15.289 1.679c-.154-.007-.273-.054-.374-.133.034-.044.067-.088.1-.131.077.056.171.091.26.096.148.006.214-.077.214-.199v-.049c-.064.053-.139.085-.243.081-.208-.009-.331-.118-.331-.264v-.017c0-.164.152-.298.387-.287.245.011.409.176.409.414v.098c0 .24-.162.403-.422.391m.199-.557c0-.088-.066-.165-.189-.171-.109-.005-.173.043-.173.119v.015c0 .075.057.128.168.133.086.004.145-.022.194-.062z"/><path clip-path="url(#a)" d="m16.608 1.762c-.154-.013-.272-.065-.373-.147.034-.043.067-.085.1-.128.076.059.17.099.259.106.148.012.214-.069.214-.191v-.049c-.063.051-.138.08-.243.072-.207-.017-.33-.129-.33-.276v-.016c0-.165.152-.293.386-.274.244.02.408.191.408.429v.098c0 .24-.161.397-.421.376m.199-.55c0-.088-.066-.168-.188-.178-.11-.008-.174.036-.174.113v.015c0 .075.058.13.168.139.086.007.146-.017.194-.055z"/><path clip-path="url(#a)" d="m18.097 1.689v.197c-.074-.01-.147-.018-.221-.027v-.196c-.153-.018-.306-.035-.458-.05v-.147c.157-.152.314-.303.471-.453.069.008.139.016.208.025v.49c.045.005.089.011.135.016v.162c-.046-.005-.09-.011-.135-.017m-.221-.45c-.08.078-.16.156-.24.235l.24.027z"/></g><path clip-path="url(#a)" d="m6.487 21.63h.934v.307h-.595v.18h.579v.301h-.579v.427h-.339z"/><path clip-path="url(#a)" d="m8.588 22.481h-.22v.364h-.331v-1.215h.617c.434 0 .508.19.508.418 0 .151-.038.312-.235.389l.222.408h-.364zm.054-.282c.131 0 .177-.026.177-.138 0-.116-.043-.142-.178-.142h-.273v.28z"/><path clip-path="url(#a)" d="m9.753 21.63h.967v.307h-.628v.147h.612v.297h-.612v.17h.634v.294h-.973z"/><path clip-path="url(#a)" d="m11.407 21.63h.444l.272.723.274-.723h.443v1.215h-.332v-.705l-.272.705h-.254l-.268-.7v.7h-.307z"/><path clip-path="url(#a)" d="m13.827 21.621h.346l.49 1.223h-.352l-.061-.156h-.518l-.06.157h-.331zm.315.787-.151-.387-.15.387z"/><path clip-path="url(#a)" d="m15.13 21.63h.364l.473.643v-.643h.325v1.215h-.313l-.525-.71v.71h-.324z"/><path clip-path="url(#a)" d="m17.197 21.936h-.403v-.306h1.147v.306h-.403v.909h-.341z"/><path clip-path="url(#a)" d="m18.441 21.63h.339v.921h.572v.294h-.911z"/><path clip-path="url(#a)" d="m19.819 21.63h.967v.307h-.628v.147h.612v.297h-.612v.17h.635v.294h-.974z"/><path clip-path="url(#a)" d="m21.697 26.106.532-.443v-1.12l-.482-.482h-2.438v.608h.426v.852.973h-.426v.608h1.035v-.973h.63l.669.973h.769v-.608h-.449zm-.202-1.437.126.126v.583l-.171.143h-1.106v-.852z" fill="#2a0d54"/><path clip-path="url(#a)" d="m1.766 24.061v.609h.426v1.824h-.426v.609h2.316l.725-.726v-1.59l-.725-.726zm2.433 2.064-.369.369h-1.03v-1.824h1.03l.369.369z" fill="#2a0d54"/><path clip-path="url(#a)" d="m6.19 24.061-.725.726v1.59l.725.725h1.348l.725-.725v-1.59l-.725-.726zm1.465 2.064-.369.369h-.844l-.369-.369v-1.087l.369-.369h.844l.369.37z" fill="#2a0d54"/><path clip-path="url(#a)" d="m25.514 25.034v-.491l-.482-.482h-1.59l-.483.482v.86l.483.483h1.338l.126.126v.356l-.126.126h-1.086l-.126-.126v-.239h-.609v.491l.483.482h1.59l.482-.482v-.86l-.482-.483h-1.338l-.126-.126v-.356l.126-.126h1.086l.126.126v.239z" fill="#2a0d54"/><path clip-path="url(#a)" d="m9.608 24.061-.725.726v1.59l.725.725h1.348l.726-.725v-.43h-.609v.178l-.369.369h-.844l-.369-.369v-1.087l.369-.369h.844l.369.37v.178h.609v-.43l-.726-.726z" fill="#2a0d54"/><path clip-path="url(#a)" d="m15.295 24.669v-.608h-.604l-1.403 1.263v-1.263h-1.034v.608h.425v1.825h-.414v.608h1.023v-.959l.395-.356.971 1.315h.641v-.608h-.334l-.824-1.116.787-.709z" fill="#2a0d54"/><path clip-path="url(#a)" d="m15.903 24.669h.487v1.825h-.487v.608h2.737v-.912h-.608v.304h-1.034v-.609h.973v-.608h-.973v-.608h1.034v.304h.608v-.912h-2.737z" fill="#2a0d54"/></svg>