<svg height="303.296" viewBox="0 0 440 404.75" width="329.711" xmlns="http://www.w3.org/2000/svg" xmlns:xlink="http://www.w3.org/1999/xlink"><clipPath id="a"><path d="m823.477 1684.48h3453.82v3589.43h-3453.82z"/></clipPath><g clip-path="url(#a)" transform="matrix(0 .1131 .1131 0 -173.372396 -85.94119)"><path d="m4006.11 3336.93-13.15 11.01c16.42 19.56 32.83 39.33 49.25 59.32l26.48-21.73c-16.5-20.08-32.97-39.98-49.43-59.62l-26.3 22.03 13.15-11.01-13.15 11.01c16.37 19.56 32.83 39.37 49.25 59.36l26.48-21.73c-16.5-20.16-33.01-40.02-49.43-59.66l-26.3 22.03zm58.23 70.37-13.29 10.84c5.62 6.84 11.28 13.9 16.99 20.91l8.66 10.71 12.5-6.31 19.03-9.58-13.45-16.51c-5.8-7.18-11.55-14.02-17.16-20.86l-26.57 21.64 13.29-10.84-13.29 10.8c5.8 7.19 11.54 14.03 17.16 20.86l13.29-10.8-7.71-15.28-.18.08 7.71 15.29 13.28-10.8c-5.62-6.93-11.28-13.98-16.98-20.99l-26.57 21.64zm-313.56-356.45 12.37-11.85c-12.54-13.11-25.09-25.91-37.58-38.67l-24.48 23.96c12.5 12.75 24.95 25.47 37.32 38.4l24.74-23.69-12.37 11.85 12.37-11.85c-12.54-13.11-25.09-25.91-37.58-38.67l-24.48 23.96c12.5 12.75 24.95 25.47 37.32 38.4l24.74-23.69zm60.23 63.97 12.58-11.62c-12.93-14.03-25.91-27.79-38.84-41.47l-24.91 23.52c12.93 13.68 25.82 27.35 38.58 41.2l25.17-23.25-12.58 11.62 12.58-11.62c-12.93-14.03-25.91-27.79-38.84-41.47l-24.91 23.52c12.93 13.68 25.82 27.35 38.58 41.2l25.17-23.25zm60.31 66.29 12.77-11.46c-13.5-15.07-27.05-30.01-40.55-44.77l-25.26 23.13c13.42 14.72 26.87 29.57 40.29 44.55l25.52-22.91-12.77 11.46 12.77-11.46c-13.5-15.07-27.05-30.01-40.55-44.77l-25.26 23.13c13.42 14.72 26.87 29.57 40.29 44.55l25.52-22.91zm60.63 68.8 12.93-11.23c-14.2-16.38-28.35-32.58-42.63-48.61l-25.66 22.74c14.16 15.98 28.27 32.05 42.42 48.34l25.87-22.47-12.93 11.23 12.93-11.23c-14.24-16.38-28.35-32.54-42.59-48.61l-25.65 22.74c14.11 15.94 28.17 32.05 42.37 48.34l25.87-22.47zm61.18 71.6 13.11-11.02c-15.15-18.03-30.31-35.8-45.42-53.39l-26.04 22.29c15.11 17.6 30.18 35.28 45.24 53.14l26.22-22.04-13.11 11.02 13.11-11.02c-15.15-18.03-30.31-35.8-45.42-53.39l-26.04 22.29c15.11 17.6 30.18 35.28 45.24 53.14l26.22-22.04zm-339.2-368.52-11.98 12.28c12.28 11.94 24.43 23.91 36.54 36.06l24.3-24.12c-12.28-12.42-24.61-24.48-36.89-36.5l-23.95 24.56 11.98-12.28-11.98 12.28c12.28 11.94 24.43 23.91 36.54 36.06l24.3-24.12c-12.28-12.42-24.61-24.48-36.89-36.5l-23.95 24.56zm-59.88-57.48-11.76 12.45c12.1 11.41 24.21 22.74 36.14 34.23l23.78-24.65c-12.19-11.75-24.39-23.16-36.41-34.49l-23.51 24.91 11.76-12.45-11.76 12.45c12.1 11.41 24.21 22.74 36.14 34.23l23.78-24.65c-12.19-11.75-24.39-23.16-36.41-34.49l-23.51 24.91zm-1217.25-667.92 3.52-16.77c-7.36-1.56-14.63-2.87-21.42-4.27l-6.97 33.54c7.45 1.57 14.63 2.83 21.25 4.27l7.14-33.54-3.52 16.77 3.61-16.77c-7.49-1.61-14.76-2.87-21.51-4.27l-6.97 33.54c7.4 1.57 14.59 2.87 21.34 4.27l7.14-33.54zm78.56 18.07 4.09-16.63c-8.97-2.23-17.81-4.14-26.34-6.14l-7.84 33.36c8.88 2.09 17.63 4 26 6.05l8.18-33.27-4.09 16.63 4.09-16.63c-8.97-2.23-17.81-4.14-26.34-6.14l-7.84 33.36c8.88 2.09 17.63 4 26 6.05l8.18-33.27zm76.86 20.47 4.66-16.5c-9.53-2.7-19.16-5.23-28.65-7.75l-8.8 33.09c9.5 2.53 18.95 5.05 28.13 7.67l9.32-33.01-4.66 16.5 4.66-16.5c-9.53-2.7-19.16-5.23-28.65-7.75l-8.8 33.09c9.5 2.53 18.95 5.05 28.13 7.67l9.32-33.01zm75.35 22.82 5.22-16.33c-9.93-3.18-19.86-6.18-29.7-9.19l-10.02 32.75c9.89 3.05 19.64 5.97 29.23 9.06l10.49-32.62-5.22 16.33 5.27-16.29c-10.02-3.26-19.95-6.27-29.75-9.23l-10.02 32.75c9.85 3.01 19.6 6.01 29.27 9.1l10.5-32.62zm73.81 25.13 5.79-16.12c-10.06-3.61-20.21-7.14-30.31-10.58l-11.06 32.41c10.02 3.44 19.99 6.87 29.79 10.4l11.58-32.23-5.79 16.12 5.79-16.12c-10.06-3.61-20.21-7.14-30.31-10.58l-11.06 32.41c10.02 3.44 19.99 6.87 29.79 10.4l11.58-32.23zm72.42 27.44 6.36-15.94c-10.19-4.01-20.38-7.97-30.61-11.85l-12.11 32.06c10.06 3.78 20.08 7.66 30.01 11.66l12.71-31.87-6.36 15.94 6.36-15.94c-10.19-4.01-20.38-7.97-30.61-11.85l-12.11 32.06c10.06 3.78 20.08 7.66 30.01 11.66l12.71-31.87zm71.08 29.74 6.83-15.72c-10.1-4.4-20.25-8.8-30.48-13.11l-13.33 31.62c10.06 4.22 20.03 8.53 30.14 12.93l13.67-31.44-6.83 15.72 6.83-15.72c-10.1-4.4-20.25-8.8-30.48-13.11l-13.33 31.62c10.06 4.22 20.03 8.53 30.14 12.93l13.67-31.44zm69.67 31.96 7.41-15.45c-10.02-4.8-20.12-9.59-30.35-14.29l-14.29 31.18c9.97 4.53 19.9 9.23 29.83 14.02l14.81-30.91-7.41 15.45 7.41-15.45c-10.02-4.8-20.12-9.59-30.35-14.29l-14.29 31.18c9.97 4.53 19.9 9.23 29.83 14.02l14.81-30.91zm-598.01-191.31 2.78-16.89-9.53-1.57-5.58 33.79 9.54 1.57 5.57-33.79-2.78 16.89 2.78-16.89-9.53-1.57-5.58 33.79 9.54 1.57 5.57-33.79zm666.56 225.54 7.93-15.19c-9.98-5.19-19.99-10.37-30.05-15.46l-15.42 30.65c9.89 4.93 19.73 10.02 29.62 15.2l15.85-30.39-7.93 15.19 7.93-15.19c-9.98-5.19-19.99-10.37-30.05-15.46l-15.42 30.65c9.89 4.93 19.73 10.02 29.62 15.2l15.85-30.39zm545.68 380.19 11.32-12.85c-12.5-11.01-25.04-21.68-37.41-32.27l-22.3 26.05c12.46 10.67 24.82 21.16 37.06 31.92l22.65-25.7-11.32 12.85 11.32-12.85c-12.5-11.01-25.04-21.68-37.41-32.27l-22.3 26.05c12.46 10.67 24.82 21.16 37.06 31.92l22.65-25.7zm60.97 55.05 11.63-12.59c-12.2-11.28-24.44-22.16-36.5-33.05l-22.91 25.52c12.15 10.89 24.21 21.68 36.15 32.7l23.26-25.17-11.63 12.59 11.63-12.59c-12.2-11.28-24.44-22.16-36.5-33.05l-22.91 25.52c12.15 10.89 24.21 21.68 36.15 32.7l23.26-25.17zm-122.42-107.92 11.02-13.11c-14.12-11.84-28.27-23.3-42.38-34.71l-21.51 26.66c14.11 11.41 28.09 22.69 41.85 34.27l22.04-26.22-11.02 13.11 11.02-13.11c-14.12-11.84-28.27-23.3-42.38-34.71l-21.51 26.66c14.11 11.41 28.09 22.69 41.85 34.27l22.04-26.22zm-85.19-68.76 10.54-13.55c-12.54-9.71-25.13-19.73-38.02-29.39l-20.64 27.35c12.46 9.36 24.96 19.24 37.59 29.09l21.07-27.05-10.54 13.55 10.54-13.55c-12.54-9.71-25.13-19.73-38.02-29.39l-20.64 27.35c12.46 9.36 24.96 19.24 37.59 29.09l21.07-27.05zm-70.19-53.13 10.1-13.85c-10.02-7.32-20.21-14.94-30.66-22.39l-19.86 27.96c10.02 7.1 20.03 14.63 30.31 22.13l20.21-27.7-10.1 13.85 10.1-13.85c-10.02-7.32-20.21-14.94-30.66-22.39l-19.86 27.96c10.02 7.1 20.03 14.63 30.31 22.13l20.21-27.7zm-261.39-168.93 8.4-14.94c-9.83-5.53-19.76-11.15-29.87-16.63l-16.38 30.13c9.76 5.31 19.6 10.85 29.45 16.38l16.8-29.88-8.4 14.94 8.4-14.94c-9.83-5.53-19.76-11.15-29.87-16.63l-16.38 30.13c9.76 5.31 19.6 10.85 29.45 16.38l16.8-29.88zm66.5 38.71 8.8-14.71c-9.76-5.84-19.65-11.9-29.83-17.82l-17.25 29.62c9.76 5.66 19.47 11.63 29.48 17.63l17.6-29.43-8.8 14.71 8.8-14.71c-9.76-5.84-19.65-11.9-29.83-17.82l-17.25 29.62c9.76 5.66 19.47 11.63 29.48 17.63l17.6-29.43zm65.46 40.98 9.32-14.37c-9.71-6.31-19.6-12.8-29.71-19.16l-18.2 29.09c9.67 6.01 19.38 12.41 29.27 18.82l18.64-28.75-9.32 14.37 9.32-14.37c-9.71-6.31-19.6-12.8-29.71-19.16l-18.2 29.09c9.67 6.01 19.38 12.41 29.27 18.82l18.64-28.75zm64.67 43.21 9.75-14.07c-9.75-6.75-19.6-13.72-29.79-20.47l-18.99 28.48c9.67 6.49 19.43 13.28 29.27 20.12l19.51-28.13-9.75 14.07 9.75-14.07c-9.75-6.75-19.6-13.72-29.79-20.47l-18.99 28.48c9.67 6.49 19.43 13.28 29.27 20.12l19.51-28.13zm-973.2 2307.24-2.88-16.89c-131.73 22.51-214.61 23.43-226.89 23.43h-1.65l-.18 17.11 15.99-6.23c-19.34-49.64-37.37-98.11-54.14-145.45l-4.31-12.06-12.8.69c-33.8 1.87-67.99 3.35-102.65 4.14l.4 17.12 16.15-5.71c-146.89-415.85-221.36-853.92-221.36-1302.26 0-448.17 74.47-886.23 221.36-1302.08l-16.15-5.71-.36 17.12c34.15.74 67.86 2.17 101.21 4.05l12.76.69 4.31-12.01c16.64-46.3 33.93-92.16 52.35-137.45l-15.89-6.44-.31 17.11c631.64 11.45 1181.71 369.08 1573.75 725.23 196.01 177.99 352.4 355.36 459.66 488.15 53.65 66.36 95.07 121.63 122.98 160.21 13.98 19.34 24.57 34.45 31.66 44.77 7.14 10.28 10.63 15.59 10.67 15.64l14.29-9.45-14.33-9.41c-.04.05-18.47 28.13-43.38 65.02-24.91 36.84-56.22 82.44-81.61 116.97l13.81 10.15-5.31-16.29c-56.18 18.38-113.5 32.88-171.41 44.16l-5.8 1.13-3.87 4.44c-24.87 28.7-49.78 56.75-74.69 84.36l-30.62 33.93 45.38-5.4c60.1-7.19 119.89-18.21 178.77-33.93l-4.44-16.55-13.54-10.49c-70.03 90.54-141.15 174.02-212.83 251.01l12.54 11.68-.87-17.12c-23.64 1.22-47.29 1.83-70.94 1.83-32.57 0-65.15-1.13-97.59-3.26l-7.62-.49-5.49 5.32c-22.65 22.12-45.38 43.9-68.16 65.11l-26.34 24.51 35.66 5.01c55.66 7.75 111.84 12.07 168.32 12.28l.09-17.11-12.19-12.06c-70.9 71.68-141.8 137.22-212.7 197.27l11.06 13.07 3.09-16.86c-51.21-9.36-101.82-21.68-151.64-36.4l-8.53-2.53-6.97 5.53c-21.51 16.99-43.16 33.67-64.89 49.95l-25.04 18.77 29.31 10.98c48.51 18.25 98.16 33.79 148.81 46.07l4.05-16.63-10.71-13.37c-75.34 60.18-150.25 113.92-223.85 162.35l9.41 14.33 7.18-15.55c-44.07-20.29-87.01-42.63-128.86-66.68l-8.8-5.05-8.66 5.27c-21.69 13.24-43.47 26.09-65.46 38.59l-23.95 13.63 22.82 15.46c40.11 27.13 81.65 52.52 124.86 75.69l8.1-15.11-8.97-14.59c-73.95 45.42-146.64 85.4-216.97 120.54l7.67 15.33 10.23-13.76c-38.63-28.7-75.82-58.92-111.75-90.37l-8.23-7.18-9.97 4.4c-21.56 9.54-43.16 18.81-64.98 27.65l-23.99 9.76 18.33 18.29c34.41 34.27 70.42 67.33 108.31 98.64l10.93-13.2-7.23-15.54c-81.61 37.88-160 69.19-233.69 95.1l5.67 16.16 12.67-11.54c-33.58-36.93-65.5-75.21-95.98-114.4l-7.14-9.15-11.2 3.23c-23.04 6.7-46.38 13.02-69.94 19.03l-23.77 6.05 13.89 20.25c28.82 42.03 59.48 83.14 92.32 122.86l13.2-10.94-5.23-16.33c-84.53 27-162.09 46.47-230.07 60.8l3.53 16.76 14.37-9.32c-28.66-44.37-55.31-89.92-80.35-136.26l-5.75-10.67-12.02 1.87c-23.08 3.7-46.42 7.01-70.07 10.15l-23.17 3.04 9.93 21.22c22.74 48.64 47.38 96.54 74.43 143.4l14.85-8.58-2.88-16.89 2.88 16.89 14.85-8.58c-26.52-45.9-50.74-92.93-73.12-140.79l-15.51 7.27 2.27 16.99c23.82-3.14 47.51-6.53 70.94-10.24l-2.7-16.94-15.07 8.15c25.39 47.03 52.48 93.37 81.74 138.61l6.36 9.89 11.54-2.44c69.03-14.5 147.72-34.32 233.47-61.67l24.13-7.7-16.16-19.56c-32.05-38.85-62.1-79.08-90.49-120.41l-14.11 9.71 4.22 16.59c23.91-6.09 47.6-12.5 71.07-19.29l-4.79-16.46-13.54 10.54c31.01 39.8 63.45 78.69 97.72 116.4l7.62 8.41 10.76-3.79c74.69-26.26 154.04-57.92 236.78-96.33l24.6-11.45-20.9-17.29c-37.02-30.62-72.25-62.89-105.96-96.55l-12.1 12.15 6.44 15.89c22.26-9.01 44.21-18.46 65.94-28.09l-6.93-15.67-11.27 12.89c36.53 31.96 74.42 62.8 113.83 92.1l8.45 6.27 9.45-4.7c71.2-35.58 144.76-75.99 219.58-122.02l25.39-15.59-26.26-14.12c-42.07-22.56-82.66-47.33-121.81-73.86l-9.63 14.2 8.5 14.9c22.25-12.68 44.37-25.7 66.32-39.11l-8.93-14.63-8.53 14.85c42.72 24.56 86.53 47.34 131.56 68.06l8.67 4.01 7.92-5.23c74.47-48.94 150.25-103.38 226.46-164.26l27.31-21.78-33.97-8.23c-49.26-11.93-97.51-27.09-144.85-44.85l-6.05 16.02 10.28 13.72c21.99-16.46 43.9-33.31 65.58-50.56l-10.62-13.41-4.88 16.41c50.95 15.07 102.69 27.66 155.21 37.28l7.97 1.48 6.18-5.27c71.69-60.66 143.37-126.9 214.96-199.28l28.7-29.05-40.8-.17c-54.83-.17-109.53-4.4-163.8-11.98l-2.35 16.99 11.67 12.54c23.04-21.47 45.95-43.42 68.77-65.63l-11.98-12.28-1.13 17.12c33.19 2.13 66.5 3.3 99.86 3.3 24.22 0 48.43-.61 72.68-1.87l6.97-.35 4.71-5.09c72.37-77.78 144.19-162.05 214.82-253.37l31.05-40.16-49.03 13.11c-57.14 15.25-115.28 25.96-173.98 32.97l2.05 17.03 12.71 11.5c25.09-27.79 50.08-56.01 75.13-84.88l-12.94-11.24 3.27 16.81c59.14-11.54 117.84-26.3 175.5-45.2l5.23-1.7 3.26-4.44c51.79-70.47 125.95-183.35 126.04-183.48l6.18-9.45-6.23-9.4c-.48-.74-235.21-356.24-630.46-715.26-395.26-358.8-951.51-722.01-1596.22-734.07l-11.76-.22-4.44 10.89c-18.59 45.82-36.06 92.11-52.78 138.75l16.11 5.79.96-17.11c-33.71-1.88-67.76-3.31-102.43-4.05l-12.37-.31-4.14 11.72c-148.19 419.51-223.36 861.49-223.32 1313.49-.04 452.17 75.13 894.16 223.32 1313.67l4.14 11.71 12.42-.3c35.1-.79 69.63-2.27 103.77-4.14l-.95-17.12-16.16 5.75c16.94 47.61 35.06 96.42 54.48 146.42l4.22 10.8 11.59.09 2 .04c13.94 0 98.73-1 232.64-23.91l24.26-4.13-12.28-21.35z" fill="#fff"/><path d="m1425.24 2652.37-217.53 54.74c-50.73 13.02-98.25 16.59-98.25 16.59v2.4s48.69 3.66 99.43 14.42l216.35 48.07zm-555.865 233.65v-304.11l616.095-183.78h-616.095v-284.73h309.595v-110h-309.595v-284.77h800.785v284.77h-315.43v110h315.43v479.35l-98.46 24.52v204.46l60.88 13.2c-14.33 88.89-25.65 178.42-34.01 268.53z" fill="#4d2004"/><path d="m1425.24 2652.37-2.09-8.32-217.53 54.75c-24.95 6.4-49.25 10.49-67.24 12.97-17.99 2.53-29.52 3.36-29.57 3.4l-7.92.56v18.34l7.92.57c.05 0 11.98.91 30.31 3.13 18.34 2.27 42.99 5.84 67.98 11.15l226.72 50.38v-157.95l-10.67 2.7 2.09 8.32h-8.58v125.51l-205.9-45.73c-51.52-10.93-100.42-14.58-100.64-14.58l-.66 8.53h8.59v-2.4h-8.59l.66 8.54c.26 0 48.12-3.57 99.73-16.81l217.48-54.74-2.09-8.32h-8.58zm-547.283 233.65v-297.71l609.953-181.95-2.44-16.81h-607.513v-267.57h309.593v-127.16h-309.593v-267.61h783.633v267.61h-315.43v127.16h315.43v464.07l-98.47 24.51v218.1l67.63 14.68 1.83-8.41-8.45-1.35c-14.37 89.06-25.74 178.77-34.1 269.09l8.54.79 2.44-8.23-729.194-217.45-4.878 16.47 739.202 220.4.97-10.41c8.35-89.88 19.64-179.25 33.96-267.96l1.27-8.01-62.06-13.46v-190.83l98.46-24.52v-494.64h-315.42v-92.84h315.42v-301.93h-817.943v301.93h309.593v92.84h-309.593v301.89h565.883l-565.883 168.8v310.51z" fill="#fff"/><path d="m1168.52 5059.96c-32.62-67.2-52.39-89.24-86.14-89.24-30.27 0-44.25 23.26-44.25 64.8 0 46.43 16.29 89.24 32.62 118.55l-164.137 57.48c-25.609-45.2-48.863-117.32-48.863-221.23 0-182.08 121.023-297 268.83-297 78 0 168.8 34.22 228.15 156.47 31.4 65.98 52.4 86.75 82.62 86.75 25.61 0 43.11-23.22 43.11-65.98 0-48.9-22.12-101.47-38.41-123.42l90.41-29.74-298.79-141.36-364.295 188.17v-287.21l351.485-151.5v-2.49h-351.485v-519.76l367.385-70.5c45.51-8.54 89.32-10.89 89.32-10.89v-2.4s-43.81-1.26-89.32-9.84l-367.385-73.95v-228.41l367.385-77.44c45.51-8.66 89.32-11.23 89.32-11.23v-2.44s-43.81-2.22-89.32-10.67l-367.385-67.07v-289.12l724.835 205.12c-8.14 102.43-12.45 205.51-12.76 309.11l-175.98 43.94c-38.45 9.54-77.34 11.93-77.34 11.93v2.4s40.02 3.62 77.34 13.16l177.2 46.59c2.57 101.82 8.97 203.03 19.08 303.59l-544.07 153.16h562.45c13.28 95.11 29.96 189.61 50.03 283.2v1.52h-379.44v2.49l379.44 141.75v315.3l-1.56-.75c8.7 40.86 13.19 89.72 13.19 147.38 0 184.56-116.41 310.5-265.34 310.5-93.16 0-172.29-22.03-247.93-179.72" fill="#4d2004"/><path d="m1176.23 5056.21c-16.46-33.88-29.75-56.79-44.16-71.99-14.24-15.28-30.92-22.25-49.69-22.08-17.29-.21-32.01 7.32-40.63 20.69-8.67 13.24-12.15 31.01-12.2 52.69.05 48.48 16.86 92.46 33.71 122.73l7.49-4.18-2.83-8.11-164.139 57.49 2.832 8.1 7.446-4.22c-24.782-43.77-47.731-114.37-47.731-217.01.348-178.16 117.149-288.12 260.252-288.43 75.56.31 162.09 32.18 220.45 151.64 15.85 33.27 29.17 55.61 43.29 70.33 13.98 14.77 29.91 21.43 47.03 21.26 15.46.13 29.44-7.49 38.24-20.73 8.92-13.16 13.41-31.32 13.45-53.83-.22-51.56-22.51-104.56-40.11-128.51l-6.88 5.09 2.7 8.15 110.79-36.45-322.04-152.39-355.543 183.65v-267.43l351.493-151.51v-16.73h-351.493v-504.08l360.413-69.2c22.38-4.18 44.51-6.88 60.97-8.49 16.46-1.66 27.18-2.22 27.22-2.22l8.1-.44v-18.86l-8.32-.26c-.04 0-10.71-.3-27.13-1.65-16.46-1.39-38.54-3.84-60.88-8.06l-1.57 8.45 1.7-8.41-360.503-72.55v-214.43l360.593-76-1.79-8.41 1.61 8.45c22.43-4.31 44.51-7.05 61.01-8.79 16.47-1.7 27.18-2.31 27.22-2.31l8.06-.48v-18.68l-8.14-.44c-.05 0-10.72-.52-27.22-2.13-16.46-1.57-38.59-4.23-60.97-8.4l-360.373-65.77v-270.66l713.903 202.07 2.35-8.27-8.53-.7c-8.19 102.65-12.5 205.95-12.8 309.77l8.57.04-2.09-8.32-175.98 43.94c-18.73 4.66-37.75 7.58-52.04 9.37-14.33 1.74-23.73 2.31-23.73 2.31l-8.06.52v18.29l7.79.7c.05 0 9.76.87 24.26 2.96 14.46 2.05 33.53 5.31 51.74 9.97l177.16 46.6 2.17-8.32-8.58.22c2.57 102.04 9.02 203.46 19.12 304.24l8.54-.87-2.31-8.28-544.06 153.16 2.3 16.86h562.45v-8.58l-8.5 1.17c13.33 95.33 30.01 190.05 50.13 283.81l8.4-1.78h-8.57v1.52h8.57v-8.58h-388.02v17.03l379.45 141.75v309.34h8.57l3.66-7.76-1.57-.74-15.67-7.4 3.61 16.94c8.58 40.07 13.02 88.36 13.02 145.59-.35 181.03-113.14 301.8-256.76 301.93-45.99 0-87.06-5.4-126.04-29.45-38.97-24.07-76.73-67.41-114.14-145.41l-15.5 7.41c38.23 79.7 77.86 126.2 120.63 152.6 42.81 26.38 87.88 32.01 135.05 32.01 76.9.04 145.8-32.67 194.96-88.98 49.26-56.31 78.96-136.04 78.96-230.11 0-58.1-4.53-107.52-13.37-149.16l-8.4 1.78-3.66 7.76 1.57.74 12.23 5.79v-334.8l-385.02-143.85-3 8.06h8.58v-2.49h-8.58v8.58h388.02v-11.02l-.17-.87c-20.03-93.41-36.71-187.69-49.95-282.59l-1.05-7.4h-507.74l491.19-138.27-.74-7.19c-10.06-100.34-16.46-201.32-19.03-302.93l-.17-6.44-183.43-48.25c-38.24-9.76-78.52-13.33-78.74-13.37l-.78 8.53h8.58v-2.4h-8.58l.52 8.59c.3-.05 39.5-2.44 78.87-12.2l182.51-45.55v-6.66c.31-103.39 4.62-206.25 12.72-308.46l.57-7.06-742.523-210.12v307.63l374.433 68.37c46.17 8.53 90.2 10.76 90.41 10.8l.44-8.58h-8.58v2.44h8.58l-.52-8.58c-.18.04-44.25 2.62-90.41 11.37l-.13.04-374.223 78.87v242.39l374.263 75.34.13.05c46.29 8.71 90.37 9.97 90.63 9.97l.26-8.58h-8.58v2.4h8.58l-.48-8.58c-.17.04-44.24 2.4-90.41 11.02l-374.393 71.85v535.44h360.063v-8.58h-8.57v2.49h8.57l-3.39-7.89-356.673 153.73v306.94l373.043-192.66 275.54 130.34-81.31 26.74 7.1 9.54c14.98 19.9 36.93 72.07 36.71 118.32.05 20.25-4.22 35.1-10.45 44.2-6.36 9.1-13.93 13.07-24.08 13.2-13.11-.17-22.78-3.88-34.67-16.03-11.8-12.15-24.69-33.18-40.19-65.84-60.41-125.08-155.47-161.66-235.91-161.36-76.12-.04-145.717 29.71-196.06 82.92-50.387 53.18-81.395 129.74-81.348 222.67 0 105.17 23.558 178.82 49.992 225.46l3.527 6.22 180.509-63.19-4.96-8.92c-15.81-28.35-31.57-69.99-31.53-114.37-.04-19.85 3.49-34.48 9.36-43.24 5.93-8.67 13.33-12.76 26.31-12.98 14.98.18 25.08 4.23 37.28 16.77 12.06 12.59 24.99 34.32 41.15 67.63z" fill="#fff"/><path d="m1864.88 2170.19c995.84 22.04 1610.1 498.73 2256.77 1307.97-646.67 809.23-1260.93 1285.79-2256.77 1307.79-147.55-417.69-222.37-857.71-222.37-1307.97 0-450.08 74.82-890.1 222.37-1307.79" fill="#fbbf15"/><path d="m2253.99 4904.09c-144.98 24.79-231.6 23.65-231.6 23.65-609.65-1564.9 87.58-1950.53 87.58-1950.53 74.99-350.49 291.61-629.69 630.2-523.6 102.35 32.05 197.19 105.74 269.57 204.25-39.97-23.52-83.87-31.49-131.82-20.43-115.54 26.87-192.53 181.87-182.34 414.55 15.89 362.5 81.26 469.33 81.26 469.33s-134.04-605.94 4.62-773.3c-10.15 41.63-15.55 84.4-15.55 128.47 0 363.07 244.92 657.59 817.34 657.59 208.12 0 372.69-39.06 498.25-105.91-609.83-751.27-1198.57-1203.71-2114.81-1253.87 16.64-46.47 34.06-92.59 52.57-138.14 1276.34 23.51 2212.7 1441.66 2212.7 1441.66s-74.21 112.92-125.51 182.73c-374.7 122.94-791.6 88.67-1145.05-106.83 314.74 233.25 712.04 299.19 1073.06 202.68-70.33 90.93-141.8 174.81-213.83 252.2-336.59 17.59-674.06-83.14-947.15-289.95 234.21 237.21 551.51 364.72 874.21 366.03-71.25 72.03-142.54 137.92-213.83 198.28-301.4-55.18-581.91-203.81-796.82-427.66 177.55 246.41 437.32 416.73 725.01 486.54-75.78 60.53-151.12 114.62-225.15 163.31-265.09-121.81-491.54-312.34-658.73-555.43 129.04 256.77 331.93 465.41 585.96 601.68-74.39 45.72-147.5 85.92-218.27 121.28-240.66-178.68-428.97-410.67-552.65-677.06 88.32 277.71 253.85 523.2 481.53 711.29-82.18 38.15-161.04 69.64-235.25 95.72-215.31-236.99-367.69-519.32-445.99-826.26 39.76 313.99 167.93 607.08 370.04 851.65-85.14 27.18-163.27 46.82-231.77 61.23-187.18-290.08-297.71-621.28-322.31-968.4-12.02 348.26 72.9 686.46 244.53 983.25" fill="#4d2004"/><path d="m3214.47 4505.79.04-.04" fill="#fbbf15"/><path d="m2364.56 2712.82c52.04-7.23 135.7 2.61 211.21 130.69 59.84 101.64 69.42 260.12 83.88 365.81 17.03 129.09 50.52 268.49 117.19 311.99-117.54-43.5-129.43-281.76-175.33-433.58-50.34-166.61-212.91-159.21-299.18-131.64-48.34 15.54-102.91 45.89-133.87 17.41-25.13-23.16-8.67-69.24-8.67-69.24 24.43-84.96 57.35-160.7 96.98-224.41 15.94 32.05 60.93 39.46 107.79 32.97" fill="#fbbf15"/><path d="m2347.05 2906.83c-16.46-2.61-27.69-20.56-24.21-39.89 9.02-50.35 48.21-88.89 48.21-88.89 5.83-6.31 14.02-8.44 19.47-4.74 5.79 3.96 6.35 13.28 1.69 21.42l.09.09s-7.75 13.29-11.59 27.61c-4.96 18.6 1.22 38.41 1.22 38.41h-.13c1.18 4.92 1.49 10.19.61 15.64-3.04 19.38-18.94 32.97-35.36 30.35" fill="#4d2004"/><path d="m2422.48 3559.81c0-117.19-89.02-213.65-203.07-225.33-.61 4.27-1.27 8.5-1.92 12.68-2 12.72-4.44 25.26-7.14 37.32 90.54 7.27 161.79 82.96 161.79 175.33 0 97.16-78.7 176.07-176.07 176.07-46.47 0-88.84-18.11-120.33-47.73-6.01 17.24-11.32 35.14-15.2 53.09 37.8 28.35 84.62 44.98 135.53 44.98 125.16 0 226.41-101.25 226.41-226.41m-115.14 0c0-50.34-40.94-91.28-91.5-91.28-12.28 0-24.09 2.4-34.8 6.79-13.02 30.1-27.7 57.79-43.29 82.44l-.12.13c-.49.88-3.67 5.97-8.5 14.5l5.49-.34c21.82 0 39.41 17.59 39.41 39.41 0 9.27-3.18 17.77-8.53 24.52 14.45 9.54 31.74 15.11 50.34 15.11 50.56 0 91.5-40.76 91.5-91.28m-100.39-160.78-.08.39zm-.95 3.83c-3.27 12.63-6.8 24.52-10.5 35.49l-.3.92-.74 2.21-1.05 2.93-.48 1.34-1.39 3.84-.4 1-1.56 4.09c5.92-14.98 11.54-32.62 16.42-51.82" fill="#4d2004"/><path d="m2422.48 3559.81c0-117.19-89.02-213.65-203.07-225.33-.61 4.27-1.27 8.5-1.92 12.68-2 12.72-4.44 25.26-7.14 37.32 90.54 7.27 161.79 82.96 161.79 175.33 0 97.16-78.7 176.07-176.07 176.07-46.47 0-88.84-18.11-120.33-47.73-6.01 17.24-11.32 35.14-15.2 53.09 37.8 28.35 84.62 44.98 135.53 44.98 125.16 0 226.41-101.25 226.41-226.41m-115.14 0c0-50.34-40.94-91.28-91.5-91.28-12.28 0-24.09 2.4-34.8 6.79-13.02 30.1-27.7 57.79-43.29 82.44l-.12.13c-.49.88-3.67 5.97-8.5 14.5l5.49-.34c21.82 0 39.41 17.59 39.41 39.41 0 9.27-3.18 17.77-8.53 24.52 14.45 9.54 31.74 15.11 50.34 15.11 50.56 0 91.5-40.76 91.5-91.28m-100.39-160.78-.08.39zm-.95 3.83c-3.27 12.63-6.8 24.52-10.5 35.49l-.3.92-.74 2.21-1.05 2.93-.48 1.34-1.39 3.84-.4 1-1.56 4.09c5.92-14.98 11.54-32.62 16.42-51.82" fill="#100f0d"/><path d="m2075.74 3688.11c16.11-46.3 37.58-87.58 50.52-110.71 8.14 42.03 45.2 73.69 89.58 73.69 50.56 0 91.5-40.76 91.5-91.28 0-50.34-40.94-91.28-91.5-91.28-12.41 0-24.21 2.4-34.97 6.88 3-6.71 5.92-13.71 8.71-20.73 7.8-19.64 14.98-43.89 20.73-70.2 90.54 7.23 161.83 82.92 161.83 175.33 0 97.16-78.7 176.07-176.07 176.07-46.47 0-88.89-18.16-120.33-47.77" fill="#fbbf15"/><path d="m2134.62 3572.05c21.82 0 39.41 17.59 39.41 39.41 0 21.86-17.59 39.46-39.41 39.46-15.2 0-28.53-8.54-35.01-21.3 11.32-24.43 22.21-44.46 29.43-57.23z" fill="#fff"/><path d="m2224.42 3265.33c0-42.72-6.84-80.87-24.08-103.56-109.57 219.92-174.07 460.97-188.66 712.03 11.11-9.45 32.01-37.58 46.07-118.5 11.11-65.01 43.64-132.12 63.59-168.97 2.87-5.27 5.48-9.97 7.7-13.94h.05c4.83-8.53 8.05-13.62 8.54-14.5l.12-.13c15.59-24.65 30.27-52.34 43.29-82.44l-.17.09c3-6.71 5.92-13.71 8.71-20.73l1.56-4.09.4-1 1.39-3.84.48-1.34 1.05-2.93.74-2.21.3-.92c5.05-14.94 9.75-31.75 13.85-49.6l.96-4.27c2.7-12.06 5.14-24.65 7.18-37.32 4.31-27.31 6.93-55.44 6.93-81.83" fill="#4d2004"/><path d="m2224.42 3265.33c0-42.72-6.84-80.87-24.08-103.56-109.57 219.92-174.07 460.97-188.66 712.03 11.11-9.45 32.01-37.58 46.07-118.5 11.11-65.01 43.64-132.12 63.59-168.97 2.87-5.27 5.48-9.97 7.7-13.94h.05c4.83-8.53 8.05-13.62 8.54-14.5l.12-.13c15.59-24.65 30.27-52.34 43.29-82.44l-.17.09c3-6.71 5.92-13.71 8.71-20.73l1.56-4.09.4-1 1.39-3.84.48-1.34 1.05-2.93.74-2.21.3-.92c5.05-14.94 9.75-31.75 13.85-49.6l.96-4.27c2.7-12.06 5.14-24.65 7.18-37.32 4.31-27.31 6.93-55.44 6.93-81.83" fill="#100f0d"/><path d="m2217.49 3347.16c-2.04 12.67-4.48 25.26-7.18 37.32h.04c2.7-12.06 5.14-24.6 7.14-37.32m-8.14 41.59c-4.1 17.85-8.8 34.66-13.85 49.6 3.7-10.97 7.23-22.86 10.5-35.49l.87-3.44.08-.39zm-14.15 50.52-.74 2.21zm-1.79 5.14-.48 1.34zm-1.87 5.18-.4 1zm-10.5 25.73c-13.02 30.1-27.7 57.79-43.29 82.44l-.12.13.12-.13c15.59-24.65 30.27-52.34 43.29-82.44" fill="#4d2004"/><path d="m2217.49 3347.16c-2.04 12.67-4.48 25.26-7.18 37.32h.04c2.7-12.06 5.14-24.6 7.14-37.32m-8.14 41.59c-4.1 17.85-8.8 34.66-13.85 49.6 3.7-10.97 7.23-22.86 10.5-35.49l.87-3.44.08-.39zm-14.15 50.52-.74 2.21zm-1.79 5.14-.48 1.34zm-1.87 5.18-.4 1zm-10.5 25.73c-13.02 30.1-27.7 57.79-43.29 82.44l-.12.13.12-.13c15.59-24.65 30.27-52.34 43.29-82.44" fill="#100f0d"/><path d="m2210.35 3384.48h-.04l-.96 4.27-2.4 10.28c1.18-4.8 2.31-9.63 3.4-14.55m-3.48 14.94-.87 3.44zm-17.29 55.26c-2.79 7.02-5.71 14.02-8.71 20.73l.17-.09c2.96-6.75 5.8-13.67 8.54-20.64" fill="#fbbf15"/><path d="m2210.35 3384.48h-.04l-.96 4.27-2.4 10.28c1.18-4.8 2.31-9.63 3.4-14.55m-3.48 14.94-.87 3.44zm-17.29 55.26c-2.79 7.02-5.71 14.02-8.71 20.73l.17-.09c2.96-6.75 5.8-13.67 8.54-20.64" fill="#100f0d"/><path d="m2129.09 3572.39h-.05c-2.22 3.97-4.83 8.67-7.7 13.94 2.87-5.31 5.48-9.97 7.75-13.94" fill="#100f0d"/><path d="m2921.69 2632.55c-14.2-.17-28.79 1.44-43.77 4.88l-5.1 1.31 5.1-1.31c14.98-3.44 29.57-5.05 43.77-4.88m-61.37 10.11-2.39.87zm-2.61.96c-97.59 36.93-163.05 170.97-163.05 367.73 0 13.28.31 26.83.92 40.63-.61-13.59-.87-26.96-.87-40.07 0-197.05 65.32-331.36 163-368.29m-126.07-192.58-2.31-.65zm-8.62-2.48-2.36-.65zm-8.63-2.31-2.31-.61zm-8.71-2.22-1.91-.44zm-8.93-2.05-1.35-.3zm-207.68 4.97-.83.26zm-6.71 2.13-1.74.57zm-6.66 2.22-2.36.83zm-6.49 2.27-2.83 1.04zm-6.19 2.35-3.48 1.39zm-5.83 2.31c-65.72 26.65-123.29 71.59-172.24 129.82l-2.79 3.4c49.61-59.84 108.05-106.05 175.03-133.22" fill="#fbbf15"/><path d="m2921.69 2632.55c-14.2-.17-28.79 1.44-43.77 4.88l-5.1 1.31 5.1-1.31c14.98-3.44 29.57-5.05 43.77-4.88m-61.37 10.11-2.39.87zm-2.61.96c-97.59 36.93-163.05 170.97-163.05 367.73 0 13.28.31 26.83.92 40.63-.61-13.59-.87-26.96-.87-40.07 0-197.05 65.32-331.36 163-368.29m-126.07-192.58-2.31-.65zm-8.62-2.48-2.36-.65zm-8.63-2.31-2.31-.61zm-8.71-2.22-1.91-.44zm-8.93-2.05-1.35-.3zm-207.68 4.97-.83.26zm-6.71 2.13-1.74.57zm-6.66 2.22-2.36.83zm-6.49 2.27-2.83 1.04zm-6.19 2.35-3.48 1.39zm-5.83 2.31c-65.72 26.65-123.29 71.59-172.24 129.82l-2.79 3.4c49.61-59.84 108.05-106.05 175.03-133.22" fill="#100f0d"/><path d="m3009.74 2657.86c-72.38-98.51-167.22-172.2-269.57-204.25l-8.53-2.57-2.31-.65-6.31-1.83-2.36-.65-6.27-1.66-2.31-.61-6.4-1.61-1.91-.44-7.02-1.61-1.35-.3-8.23-1.74c-60.66-12.28-117.06-11.8-169.06-.53-9.84 2.14-19.5 4.62-29.04 7.54l-.83.26-5.88 1.87-1.74.57-4.92 1.65-2.36.83-4.13 1.44-2.83 1.04-3.36 1.31-3.48 1.39-2.35.92c-66.98 27.17-125.42 73.38-175.03 133.22-7.88 10.1-30.05 40.93-30.05 68.54 0 5.27.79 10.41 2.62 15.24l2.04 4.66v-.04c15.94 32.05 60.93 39.46 107.79 32.97 7.27-1 15.24-1.7 23.69-1.75 51.65-.34 122.64 22.35 187.52 132.44 59.84 101.64 69.42 260.12 83.88 365.81 17.03 129.09 50.52 268.49 117.19 311.99l-.04-.08c-2.01-3.36-65.94-112.41-81.22-469.25-.61-13.8-.92-27.35-.92-40.63 0-196.76 65.46-330.8 163.05-367.73l.22-.09 2.39-.87c4.1-1.48 8.28-2.79 12.5-3.92l5.1-1.31c14.98-3.44 29.57-5.05 43.77-4.88 31.22.31 60.58 9.11 88.05 25.31" fill="#4d2004"/><path d="m3009.74 2657.86c-72.38-98.51-167.22-172.2-269.57-204.25l-8.53-2.57-2.31-.65-6.31-1.83-2.36-.65-6.27-1.66-2.31-.61-6.4-1.61-1.91-.44-7.02-1.61-1.35-.3-8.23-1.74c-60.66-12.28-117.06-11.8-169.06-.53-9.84 2.14-19.5 4.62-29.04 7.54l-.83.26-5.88 1.87-1.74.57-4.92 1.65-2.36.83-4.13 1.44-2.83 1.04-3.36 1.31-3.48 1.39-2.35.92c-66.98 27.17-125.42 73.38-175.03 133.22-7.88 10.1-30.05 40.93-30.05 68.54 0 5.27.79 10.41 2.62 15.24l2.04 4.66v-.04c15.94 32.05 60.93 39.46 107.79 32.97 7.27-1 15.24-1.7 23.69-1.75 51.65-.34 122.64 22.35 187.52 132.44 59.84 101.64 69.42 260.12 83.88 365.81 17.03 129.09 50.52 268.49 117.19 311.99l-.04-.08c-2.01-3.36-65.94-112.41-81.22-469.25-.61-13.8-.92-27.35-.92-40.63 0-196.76 65.46-330.8 163.05-367.73l.22-.09 2.39-.87c4.1-1.48 8.28-2.79 12.5-3.92l5.1-1.31c14.98-3.44 29.57-5.05 43.77-4.88 31.22.31 60.58 9.11 88.05 25.31" fill="#100f0d"/><path d="m2388.25 2711.07c-8.45.05-16.42.75-23.69 1.75-46.86 6.49-91.85-.92-107.79-32.97v.04c15.9 32.19 60.89 39.46 107.79 32.93 7.27-1 15.24-1.7 23.69-1.75" fill="#fbbf15"/><path d="m2388.25 2711.07c-8.45.05-16.42.75-23.69 1.75-46.86 6.49-91.85-.92-107.79-32.97v.04c15.9 32.19 60.89 39.46 107.79 32.93 7.27-1 15.24-1.7 23.69-1.75" fill="#100f0d"/><path d="m2225.86 2793.25c53.65-124.24 169.4-229.37 177.81-222.36 6.18 5.14-71.08 57.61-141.45 238.09-3.97 10.14-16.03 14.63-26.04 10.32-10.02-4.36-14.64-16.03-10.32-26.05" fill="#fff"/></g></svg>