<svg enable-background="new 0 0 36.267 39.035" height="328.074" viewBox="0 0 36.267 39.035" width="304.81" xmlns="http://www.w3.org/2000/svg" xmlns:xlink="http://www.w3.org/1999/xlink"><clipPath id="a"><path d="m0 0h36.267v39.035h-36.267z"/></clipPath><path clip-path="url(#a)" d="m18.054 39.021c-.009-.002-.218-.039-.383-.077-1.276-.294-4.546-1.698-7.788-4.909-1.816-1.798-3.352-3.897-4.566-6.239-1.438-2.775-2.425-5.902-2.936-9.296l-2.381-2.628v-11.03l.3-.105c.542-.189 1.1-.374 1.665-.551v-1.511l.259-.12c.057-.027 1.425-.655 4.08-1.286 2.434-.579 6.461-1.268 11.829-1.268 2.963 0 7.421.22 11.83 1.268 2.655.631 4.023 1.259 4.08 1.286l.259.12v1.511c.564.177 1.123.362 1.665.551l.3.105v11.026l-2.396 2.726c-.517 3.378-1.509 6.49-2.948 9.252-1.213 2.33-2.747 4.419-4.559 6.209-3.234 3.196-6.494 4.595-7.766 4.888-.166.038-.376.076-.385.078l-.08.014z" fill="#cc2031"/><path clip-path="url(#a)" d="m35.847 5.132c-.653-.228-1.308-.442-1.965-.644v-1.555s-5.413-2.512-15.721-2.512-15.721 2.512-15.721 2.512v1.555c-.657.202-1.312.416-1.965.644v10.539l2.357 2.602c2.154 14.72 12.573 19.656 14.967 20.207.156.036.362.073.362.073s.206-.037.364-.074c2.391-.551 12.766-5.468 14.951-20.109l2.371-2.699c0-3.514 0-7.025 0-10.539" fill="#0f1131"/><g fill="#cc2031"><path clip-path="url(#a)" d="m32.03 14.81c-.008-.002-.015-.004-.023-.006-.588 16.161-11.229 21.385-13.525 21.928-.139.033-.321.067-.321.067s-.181-.034-.32-.067c-2.294-.541-12.941-5.766-13.526-21.936-.008.002-.015.004-.023.006.205 16.894 11.212 22.307 13.549 22.859.139.032.32.066.32.066s.182-.034.321-.066c2.339-.554 13.34-5.966 13.548-22.851"/><path clip-path="url(#a)" d="m14.863 20.682 2.424 6.9.002-3.46-1.488-4.375h-.001l-.735-2.162h.001l-.203-.596h-1.76l.548.776v12.834l-.515.767h2.237l-.51-.767z"/><path clip-path="url(#a)" d="m12.739 26.645c-.302-.311-.565-.661-.769-1.044-.211-.396-.358-.829-.416-1.274-.074-.563-.014-1.138.174-1.674.139-.399.346-.773.599-1.112.268-.36.588-.68.938-.96.04-.032.08-.063.121-.094v-1.633c-.016.009-.033.017-.049.026-.141.084-.286.161-.427.245-.128.076-.249.162-.367.252-.22.168-.43.348-.628.542-.373.363-.701.772-.975 1.215-.262.423-.482.878-.649 1.347-.084.24-.165.48-.247.72-.07.202-.141.403-.215.604-.004.013-.016.033-.016.046 0 .016.014.04.02.055.026.071.052.143.079.215.022.062.043.125.065.188.096.279.192.558.289.837.131.38.295.75.488 1.103.247.452.546.876.893 1.258.181.199.375.386.578.561.219.188.447.368.694.515.138.082.28.157.418.24v-.001c.016.009.033.018.049.027v-1.633c-.229-.174-.447-.364-.647-.571"/><path clip-path="url(#a)" d="m20.146 28.519c-.6.132-1.213.201-1.826.21-.575.009-1.15-.034-1.716-.131-.501-.087-.996-.216-1.474-.391v1.385c.584.168 1.183.285 1.787.352.695.077 1.397.09 2.094.039.674-.05 1.343-.159 1.996-.332.064-.017.128-.035.192-.053v-1.383c-.344.124-.696.225-1.053.304"/><path clip-path="url(#a)" d="m17.289 19.014v-1.291c-.045.004-.09.008-.135.012-.56.05-1.116.142-1.661.278l.421 1.24c.451-.116.911-.195 1.375-.239"/><path clip-path="url(#a)" d="m22.678 17.764.548-.776h-1.76l-.202.596-.735 2.162-1.488 4.375.001 3.46 2.424-6.9v9.917l-.509.767h2.236l-.515-.767z"/><path clip-path="url(#a)" d="m23.927 21.291c.191.223.365.463.507.721.154-.141.307-.282.46-.423.208-.191.416-.382.623-.574.062-.056.123-.112.184-.169-.316-.263-.625-.535-.939-.801-.18-.153-.357-.309-.545-.453-.186-.144-.379-.279-.578-.405-.116-.074-.233-.144-.351-.214-.098-.057-.197-.115-.301-.162-.014-.007-.028-.014-.042-.021v1.607c.361.259.694.557.982.894"/><path clip-path="url(#a)" d="m24.604 25.847c-.057-.052-.113-.104-.17-.156-.307.556-.753 1.036-1.248 1.431-.079.063-.159.124-.241.183v1.607c.014-.007.028-.014.042-.021.198-.091.387-.211.572-.326.2-.124.395-.256.583-.398.191-.143.369-.298.551-.451.175-.148.349-.298.523-.447.161-.138.321-.278.484-.413-.135-.125-.27-.249-.405-.374-.231-.211-.461-.423-.691-.635"/><path clip-path="url(#a)" d="m18.161 31.365 1.019-1.086h-2.038z"/><path clip-path="url(#a)" d="m18.771 28.459v-9.445s.793.033 1.64.251l.427-1.256c-.521-.129-1.052-.219-1.587-.269-.161-.015-.322-.027-.483-.035l.003-1.555s.97.007 1.339.048c.368.04.976.245.976.245l.029-1.482h-4.078l.463.77.056.455v12.268c.432.03.703.026 1.215.005"/><path clip-path="url(#a)" d="m1.94 6.291c.544-.178 1.092-.346 1.642-.504.125 1.143.249 2.286.374 3.429.025.348.037.521.062.869.029-.363.044-.544.073-.907.131-1.214.263-2.429.395-3.644.554-.15 1.111-.291 1.67-.421v7.82c-.498.117-.747.179-1.243.308v-4.823c-.029.494-.044.74-.073 1.233-.136 1.239-.271 2.479-.406 3.718-.354.096-.53.145-.883.247-.134-1.16-.269-2.32-.404-3.48-.029-.481-.043-.721-.072-1.202v4.823c-.455.136-.682.207-1.135.354z"/><path clip-path="url(#a)" d="m6.673 4.995c.866-.193 1.737-.368 2.612-.516v1.277c-.525.09-.786.138-1.309.241v1.953c.51-.101.766-.148 1.277-.236v1.255c-.511.088-.767.136-1.277.236v2.122c.523-.104.784-.152 1.309-.242v1.214c-.875.148-1.746.323-2.612.516z"/><path clip-path="url(#a)" d="m9.807 4.392c.525-.085.788-.123 1.314-.195v6.607c.471-.064.707-.093 1.179-.146v1.214c-.833.099-1.663.212-2.493.34z"/><path clip-path="url(#a)" d="m12.757 4.002c.578-.061 1.158-.111 1.737-.151 1.281-.137 1.473.862 1.484 1.891.006.537.081 1.431-.502 1.744.717.231.555 1.43.555 1.98.001 1.081-.252 2.153-1.526 2.205-.583.04-1.166.09-1.748.151zm1.599 3.11c.341-.025.362-.184.362-1.028s-.01-1.024-.362-.998c-.12.008-.18.013-.299.022v2.026c.119-.009.179-.014.299-.022m.021 3.386c.363-.026.384-.269.384-1.103s-.021-1.044-.384-1.018c-.128.009-.192.014-.32.024v2.121c.128-.01.192-.015.32-.024"/><path clip-path="url(#a)" d="m20.369 9.375v-5.604c.53.022.794.037 1.324.073v5.635c0 .834.021 1.024.394 1.052s.395-.158.395-.992v-5.636c.515.043.773.067 1.288.123v5.604c.027 1.281-.275 2.214-1.715 2.123-1.419-.089-1.695-1.124-1.686-2.378"/><path clip-path="url(#a)" d="m24.238 4.078c.585.067 1.17.145 1.752.234 1.394.226 1.515 1.558 1.512 2.732-.002.713.072 1.794-.623 2.255.194 1.025.387 2.051.581 3.077-.511-.092-.767-.135-1.28-.214-.169-.912-.339-1.824-.508-2.736-.064-.009-.096-.014-.159-.023v2.66c-.51-.072-.764-.105-1.275-.165 0-2.607 0-5.213 0-7.82m1.582 4.156c.371.055.366-.307.381-1.314.006-.377.131-1.262-.381-1.398-.123-.018-.184-.027-.307-.045v2.713c.122.017.184.026.307.044"/><path clip-path="url(#a)" d="m27.905 4.638c.557.105.835.162 1.389.282.182.878.364 1.756.546 2.634.088.467.132.701.22 1.169v-3.63c.49.114.734.174 1.223.3v7.821c-.493-.128-.739-.188-1.234-.303-.234-1.059-.468-2.118-.702-3.177-.089-.433-.133-.65-.221-1.082v4.052c-.487-.104-.732-.153-1.221-.246z"/><path clip-path="url(#a)" d="m31.797 5.529c.861.233 1.718.485 2.567.762v1.277c-.511-.166-.767-.245-1.28-.398v1.953c.501.149.751.226 1.249.388v1.255c-.498-.161-.748-.239-1.249-.387v2.121c.513.152.769.232 1.28.398v1.213c-.849-.277-1.706-.528-2.567-.762z"/><path clip-path="url(#a)" d="m16.911 11.206c-.443-.528-.465-1.53-.465-3.578 0-1.963.022-2.965.433-3.514.253-.317.676-.454 1.309-.454s1.066.137 1.298.433c.433.538.443 1.541.443 3.535 0 2.185-.01 3.135-.454 3.62-.232.264-.654.359-1.287.359-.623 0-1.045-.116-1.277-.401m1.699-3.546c0-2.554 0-2.702-.422-2.702-.412 0-.412.148-.412 2.702 0 2.575 0 2.712.412 2.712.422 0 .422-.137.422-2.712"/></g></svg>