<svg enable-background="new 0 0 136.6701508 186.4689941" height="369.374" viewBox="0 0 136.67 186.469" width="270.728" xmlns="http://www.w3.org/2000/svg"><path d="m132.634 27.963-.227-.961-.883-.445c-.431-.217-7.184-3.51-23.624-5.909 1.498-2.662 2.494-5.927 3.016-9.885.231-1.759-.14-3.206-1.101-4.303-1.085-1.238-2.827-1.867-5.179-1.869-7.037-.007-11.213-.4-16.261-1.124-3.878-2.3-8.15-3.467-12.708-3.467-3.201 0-5.685.6-6.823.935-2.361-.58-4.833-.874-7.361-.874-7.243 0-12.972 2.382-14.636 3.152-.177.003-.357.003-.535.003-5.177 0-10.581-.323-14.079-.839-.256-.041-.5-.082-.733-.12-1.081-.18-2.014-.336-3.051-.336-.487 0-.962.034-1.454.106-.741.108-2.114.578-2.988 2.503-1.446 3.187-1.038 9.866 1.854 14.384.363.615.862 1.309 1.417 2.01-15.115 2.368-21.382 5.424-21.795 5.633l-.884.445-.227.961c-5.293 22.388-4.162 44.665 3.267 64.425 7.002 18.617 19.363 34.668 35.751 46.419 9.584 7.224 17.59 11.578 24.16 14.883l.941.474.947-.464c8.879-4.357 16.11-8.811 24.179-14.893 16.388-11.751 28.748-27.802 35.75-46.419 7.43-19.76 8.56-42.037 3.267-64.425" fill="#fff"/><path d="m93.61 75.091c.004-.001.009-.002 0 0"/><path d="m106.747 90.208c2.502 2.65 4.929 6.074 6.326 10.583.089.285.309 1.15.477 2.032 1.274-3.425 2.353-6.912 3.25-10.445-1.832-2.534-4.823-5.072-6.743-6.814-4.456-4.044-8.206-7.8-8.445-13.938-.028-.719-.136-1.999-.169-2.403.929-.981 1.545-1.727 2.167-2.651.891 1.075 1.804 1.911 2.367 2.475 3.175 3.179 4.159 6.371 6.351 10.219 1.146 2.01 3.416 4.994 5.744 7.488.339-1.717.639-3.443.9-5.175-3.001-2.822-6.772-7.687-8.194-10.438 2.815 2.515 6.05 5.241 8.709 6.594.583-4.96.858-9.962.858-14.963 0-10.67-.888-23.507-3.889-38.442-3.402-.704-7.485-1.406-12.317-2.023 1.938-2.171 3.859-5.637 4.674-11.821.354-2.699-1.283-3.77-4.179-3.773-7.092-.007-11.353-.388-16.988-1.207-9.441-5.824-18.738-2.364-18.738-2.364-11.383-3.065-21.57 2.19-21.57 2.19-5.313.045-11.346-.256-15.439-.86-1.868-.299-3.035-.572-4.597-.346-2.622.385-2.813 8.748.369 13.679.685 1.18 2.212 3.036 3.805 4.67-4.275.574-7.935 1.215-11.03 1.855-3.002 14.935-3.89 27.772-3.89 38.442 0 18.508 3.763 37.029 12.957 53.358-.712-7.162-.509-14.245.214-19.68.732-5.508 1.923-10.108 3.022-13.665 0 0-1.252 1.966-2.289 3.836 1.503-5.533 4.347-10.739 6.419-14.388 1.206 1.896 2.857 3.947 4.889 5.621-3.298 6.425-6.626 17.098-6.481 24.247.56-2.246 1.306-3.889 1.306-3.889-.926 10.235 2.252 24.462 7.211 33.069 2.447 4.346 5.216 8.138 8.946 11.525.948.621 1.883 1.217 2.806 1.79-4.087-11.782-2.454-18.213 4.159-34.211-4.826 4.825-8.568 6.856-10.849 14.63.117-1.912.468-3.706.858-4.642-2.647-3.159-4.47-6.942-5.424-12.398-.596.985-1.15 2.029-1.622 3.416.068-2.276.412-3.377 1.315-5.476-.027-.219-.058-.431-.083-.657-.569.951-1.11 1.854-1.317 2.634-2.243-6.591-3.279-16.938-1.129-24.539.553 11.283 3.799 18.234 9.285 24.099.47-.734.997-1.384 1.668-2.039-.517.853-.886 1.633-1.187 2.388-.437.942-.669 1.723-1.139 3.38 1.055-1.73 1.619-2.657 2.259-3.593 5.418-7.557 13.092-10.051 18.226-15.184 0 0-2.931 1.155-5.345 2.984 3.667-3.507 7.668-4.582 10.951-9.53.281-.421.62-.923.978-1.5.048.66-.067 1.551-.298 2.273 1.384-1.153 2.421-2.473 2.822-3.312-.059.827-.543 3.031-.873 4.045 1.38-1.203 2.176-2.706 2.771-3.867.366.278.71.966.867 1.56 1.22-.531 2.347-1.408 3.129-2.688.323.248.761.871.877 1.154.97-.689 1.816-1.847 2.09-3.082.158.241.334.53.415.797 1.007-.257 2.219-1.398 2.676-1.931 1.225-1.426 1.805-3.504 1.974-4.217 1.521-.683 3.02-1.613 4.408-2.668-.248.594-.432 1.298-.509 2.132-.014.149-.024.292-.035.435-.494 6.497 1.825 8.542 6.167 12.273 1.001.86 2.06 1.837 3.106 2.946"/><path d="m79.802 122.123c12.398-13.066 15.134-24.167 10.374-36.712.108 10.248-22.362 25.407-25.828 31.02 1.2-.898 5.296-3.451 6.148-4.019-3.113 2.491-4.802 4.083-6.96 7.285 2.119-2.102 4.08-3.172 5.762-4.324-8.381 7.337-10.851 19.434-8.35 32.413 2.508 1.412 4.95 2.694 7.365 3.914-.949-12.203 4.815-22.543 11.489-29.577"/><path d="m14.141 69.064c-1.023-17.071.793-31.208 3.104-44.023-1.154.271-2.212.541-3.167.8-8.03 36.107-2.765 68.774 14.095 93.087-8.372-14.265-13.163-31.076-14.032-49.864" fill="#ffd200"/><path d="m28.172 118.928c.01.017-.01-.017 0 0-16.859-24.313-22.124-56.98-14.094-93.087-5.329 1.449-7.641 2.611-7.641 2.611-9.847 41.651 3.486 78.106 29.272 101.436-2.782-3.477-5.274-7.1-7.537-10.96"/><path d="m122.866 69.064c1.023-17.071-.793-31.208-3.104-44.023 1.154.271 2.212.541 3.167.8 8.03 36.107 2.765 68.774-14.095 93.087 8.372-14.265 13.163-31.076 14.032-49.864" fill="#ffd200"/><path d="m108.834 118.928c-.01.017.01-.017 0 0 16.859-24.313 22.124-56.98 14.094-93.087 5.329 1.449 7.641 2.611 7.641 2.611 9.847 41.651-3.486 78.106-29.272 101.436 2.782-3.477 5.274-7.1 7.537-10.96"/><path d="m47.303 180.658c.304 0 .87.027 1.31.027h1.733c.343 0 .828 0 1.124-.044.008 0 .026.017.026.026-.062.26-.116.853-.143 1.329-.045.036-.215.045-.26.027-.045-.349-.108-.565-.189-.709-.081-.162-.215-.206-.341-.225-.208-.026-1.087-.026-1.231-.009-.044.009-.09.117-.09.153-.009.585 0 1.231 0 1.841 0 .035.037.072.054.072.234 0 .916.009 1.195-.008.189-.009.279-.109.351-.36.027-.089.045-.171.062-.288.036-.018.234-.018.27.01-.01.224-.046.547-.046.853 0 .233.019.61.027.872-.035.025-.234.034-.268.008-.064-.27-.054-.234-.091-.351-.044-.134-.126-.259-.324-.278-.153-.018-.906-.018-1.176-.018-.026 0-.054.054-.054.071v1.708c0 .134.073.27.189.295.17.028.584.054 1.032.054.487 0 .594-.043.764-.242.189-.198.36-.538.494-.862.046-.009.225.046.251.081-.026.17-.223 1.006-.377 1.303-.044.088-.099.143-.484.143-.782 0-1.635-.046-2.471-.046-.475 0-1.069.029-1.544.029-.018-.055-.018-.208 0-.243.287-.037.502-.063.628-.1.171-.054.253-.161.253-.457.027-.503.027-1.267.027-2.237 0-.683 0-1.401-.027-1.724-.019-.251-.055-.324-.243-.387-.127-.035-.288-.054-.44-.071-.028-.046-.008-.216.009-.243"/><path d="m54.725 185.723c.234.162.548.234.827.234.44 0 .762-.277.762-.745 0-.459-.196-.746-.978-1.23-.844-.548-1.383-.97-1.383-1.851 0-1.042.862-1.607 1.877-1.607.656 0 1.032.117 1.428.143-.063.351-.117.736-.153 1.303-.036.026-.207.035-.243.009-.08-.54-.178-.81-.412-.979-.207-.145-.413-.199-.692-.199-.485 0-.79.342-.79.783 0 .377.179.646.538.897.379.26.593.386.98.628.646.423.953.827.953 1.448 0 .969-.764 1.697-2.112 1.697-.584 0-1.149-.172-1.338-.28-.09-.134-.243-1.095-.261-1.391.027-.045.208-.09.242-.064.2.639.423.953.755 1.204"/><path d="m62.978 186.128c-.351 0-.792-.026-1.357-.026-.836 0-1.257.026-1.536.026-.036-.045-.036-.217 0-.243.198-.017.431-.045.556-.08.217-.054.289-.153.315-.576.036-.889.027-2.712.027-4.086 0-.017-.018-.063-.045-.063-.161-.017-.691-.017-.898 0-.207.018-.333.109-.449.305-.117.207-.242.494-.332.764-.027.027-.243-.009-.26-.062.071-.36.143-1.115.161-1.465 0-.018.053-.063.072-.054.288.098.592.117.808.117h3.189c.457 0 .709-.036.961-.107.028 0 .045.035.054.053-.09.333-.171.944-.207 1.518-.027.027-.242.037-.261.009-.045-.305-.107-.583-.188-.781-.09-.208-.179-.27-.359-.288-.242-.017-.88-.017-.979-.009-.018.009-.045.037-.045.071 0 1.258 0 3.61.027 4.214.009.224.053.358.243.432.152.043.214.043.512.088.035.026.026.217-.009.243"/><path d="m71.716 186.128c-.333 0-.908-.037-1.438-.037-.646 0-1.006.037-1.276.037-.025-.037-.035-.225 0-.251.226-.028.298-.037.459-.063.262-.063.288-.306.298-.585.017-.368.017-.897.026-1.75 0-.728 0-1.402-.026-1.644-.01-.153-.064-.307-.226-.333-.117-.027-.287-.053-.414-.071-.026-.046-.008-.225.019-.251.728-.037 1.392-.271 1.778-.432.027-.01.108.027.108.053-.027.368-.036.683-.036 1.42 0 .728 0 2.236.027 2.973.018.323.055.566.286.62.191.035.325.045.442.063.017.026.017.214-.027.251"/><path d="m77.063 182.051c0 .332-.196.656-.879 1.07-.009.017-.009.034 0 .043.7.449 1.104.818 1.104 1.463 0 .793-.746 1.564-1.931 1.564-1.267 0-1.724-.736-1.724-1.356 0-.377.243-.71 1.086-1.186.01 0 .018-.026 0-.036-.486-.341-.897-.755-.897-1.365 0-.44.206-.871.546-1.113.307-.243.729-.387 1.195-.387.872 0 1.5.512 1.5 1.303m-.781 3.161c0-.476-.305-.818-1.302-1.419-.009-.019-.036 0-.045.01-.243.26-.395.573-.395.915 0 .576.431 1.185 1.032 1.185.423 0 .71-.268.71-.691m-1.518-3.485c0 .468.251.728 1.168 1.277.009 0 .027 0 .045-.01.215-.27.297-.575.297-.881 0-.576-.306-1.095-.854-1.095-.394 0-.656.351-.656.709"/><path d="m82.597 182.051c0 .332-.195.656-.879 1.07-.009.017-.009.034 0 .043.701.449 1.104.818 1.104 1.463 0 .793-.745 1.564-1.93 1.564-1.267 0-1.724-.736-1.724-1.356 0-.377.243-.71 1.086-1.186.01 0 .018-.026 0-.036-.486-.341-.898-.755-.898-1.365 0-.44.207-.871.547-1.113.306-.243.729-.387 1.195-.387.871 0 1.499.512 1.499 1.303m-.78 3.161c0-.476-.305-.818-1.302-1.419-.009-.019-.036 0-.045.01-.243.26-.396.573-.396.915 0 .576.432 1.185 1.033 1.185.423 0 .71-.268.71-.691m-1.518-3.485c0 .468.251.728 1.167 1.277.009 0 .028 0 .046-.01.214-.27.297-.575.297-.881 0-.576-.306-1.095-.854-1.095-.395 0-.656.351-.656.709"/><path d="m87.715 180.811c0 .09-.189.584-.431.871-.1.117-.297.215-.44.215-.584 0-.981-.062-1.115-.062-.018 0-.071.019-.08.045-.072.161-.117.26-.171.422 0 .01.027.081.054.09.269.125 1.257.538 1.644.763.565.305.934.682.934 1.392 0 1.186-1.266 1.922-2.335 1.922-.531 0-.936-.188-1.159-.421-.063-.063-.144-.18-.144-.306 0-.144.161-.438.261-.575.017-.019.08-.045.106-.054.36.53.899.944 1.538.944.458 0 .736-.342.736-.773 0-.387-.144-.765-.692-1.113-.468-.315-1.339-.674-1.545-.799-.009-.055-.026-.234-.009-.297.163-.539.648-1.752.891-2.103.088-.117.168-.161.242-.161.143 0 .582.044 1.059.044.305 0 .385-.026.53-.143.035 0 .126.055.126.099"/><path d="m39.624 171.217c-.681 1.074-1.546 2.174-2.2 2.697-.786.629-1.546.707-2.201.707-4.349 0-5.763-4.06-5.763-6.994 0-4.505 1.781-6.627 4.533-6.627 1.072 0 2.043.182 2.88.655 1.049.602 1.205 1.441 1.572 3.117.053.185 1.179.079 1.31-.131 0-1.415.21-3.641.341-4.558-.996-.026-3.013-.471-5.527-.471-2.148 0-3.826.392-5.266 1.074-2.934 1.388-4.428 4.165-4.428 7.178 0 5.71 3.642 8.566 9.588 8.566 1.938 0 3.04-.394 3.878-.68.785-.447 1.964-2.595 2.358-3.748-.21-.34-.76-.707-1.075-.785"/><path d="m23.252 174.439c-.681-.21-.734-.734-.76-1.205-.052-1.023-.026-3.642-.026-6.052 0-2.253-.026-3.589.026-4.453.026-.472.026-.995.629-1.179.42-.132.97-.21 1.546-.289.13-.158.105-1.099 0-1.257-.681 0-1.546.078-4.349.078-1.912 0-3.222-.078-4.113-.078-.157.184-.157 1.073-.051 1.257.55.079.995.132 1.597.315.446.132.655.498.681 1.048.052 1.048.052 1.938.052 4.768 0 1.282 0 5.185-.052 5.814-.079.997-.235 1.207-.995 1.362-.132.029-.405.035-.581-.013-.589-.162-.821-.393-1.409-.982-1.153-1.152-3.448-4.117-4.008-5.186-.042-.079-.046-.17.026-.21 1.756-.759 3.066-1.912 3.066-3.981 0-2.306-1.886-4.192-5.24-4.192-.891 0-2.462.078-5.16.078-1.049 0-3.276-.078-3.931-.078-.183.104-.288 1.021-.103 1.257.575.105 1.178.211 1.492.315.472.106.682.419.732.995.053.943.053 2.777.053 5.343 0 1.626-.026 4.586-.078 5.423-.025.708-.208 1.076-.785 1.205-.342.079-.97.184-1.362.237-.21.13-.106 1.152.025 1.257.76 0 2.147-.079 4.244-.079 2.175 0 3.642.079 4.087.079.183 0 .236-1.231.079-1.257-.708-.105-.97-.132-1.573-.314-.497-.158-.655-.551-.681-1.128-.026-.837-.052-2.043-.052-3.641 0-.052.078-.183.131-.183.079 0 .498 0 .76.027.367.025.55.079.76.392.864 1.362 1.807 2.987 2.908 4.349.156.261.647.801 1.387 1.18 1.301.664 3.932.645 5.399.541.696-.022 1.582-.045 2.905-.045 2.305 0 3.458.053 4.269.079.185-.132.315-1.047.21-1.257-.602-.105-1.44-.237-1.755-.34m-14.014-6.865c-.418.236-1.702.314-2.776.314-.132 0-.184-.156-.184-.261 0-1.911 0-4.821.052-5.632 0-.105.105-.313.184-.393.105-.078.576-.13.838-.13 1.886 0 3.196 1.282 3.196 3.457 0 1.598-.576 2.278-1.31 2.645"/><path d="m81.665 174.413c-.682-.184-.865-.76-.89-1.388-.158-1.808-.368-8.201-.341-10.139 0-.576.079-1.048.681-1.258.366-.13.996-.21 1.754-.366.184-.131.132-1.205 0-1.258-1.309 0-2.462.079-6.286.079-.053.497-.263 1.048-.498 1.651-.761 1.859-2.881 6.287-3.615 7.649-.053.052-.132.077-.21 0-.786-1.495-2.515-5.161-3.562-7.493-.262-.55-.498-1.152-.577-1.807-1.964 0-4.793-.079-6.812-.079-.077.079-.182 1.1-.103 1.258.863.156 1.623.314 2.096.472.523.208.681.759.654 1.204-.078 1.886-.628 7.964-.864 9.981-.105.97-.394 1.388-1.154 1.598-.263.081-.731.144-1.16.208-.222.033-.561.034-.762.001-.757-.129-1.183-.202-1.507-.339-.471-.21-.55-.734-.576-1.206-.051-1.179-.051-3.3-.051-5.083 0-2.174-.026-3.458.025-5.16.026-.838.104-1.178.602-1.362.288-.158.892-.262 1.441-.314.183-.184.183-1.074 0-1.258-.969 0-1.729.079-4.034.079-2.148 0-2.829-.079-4.165-.079-.183.132-.21 1.127-.052 1.258.837.104 1.336.156 1.703.34.366.132.445.602.47.942.027 1.494.027 2.856.027 4.141 0 .051-.105.13-.183.156-.262.053-.943.053-2.829.053-2.567 0-2.96 0-3.195-.053-.053-.053-.08-.078-.132-.208 0-1.468 0-2.779.025-3.879 0-.628.08-1.02.603-1.23.263-.106.865-.21 1.363-.262.158-.131.158-1.1.026-1.258-.576 0-1.912.079-4.14.079-2.488 0-3.326-.079-4.007-.079-.131.105-.184 1.153-.053 1.258.471.052.995.131 1.52.288.551.158.628.472.654 1.31.027.786.027 2.305.027 4.898 0 2.359 0 4.795-.027 5.187-.052.918-.235 1.362-.943 1.546-.392.104-.707.183-1.309.288-.184.184-.106 1.126 0 1.257.445 0 1.781-.079 3.955-.079 2.803 0 4.061.079 4.533.079.155-.131.288-1.047.129-1.257-.576-.105-1.308-.236-1.649-.366-.602-.21-.682-.682-.682-1.31-.025-.944-.025-2.305-.025-3.981 0-.028.025-.131.052-.158.105-.054.366-.08 3.17-.08 1.179 0 2.488 0 2.986.026.079 0 .131.107.131.158 0 1.703.026 3.091-.027 4.349-.025.576-.208.943-.602 1.074-.419.13-.89.21-1.493.288-.183.21-.157 1.1.027 1.257.524 0 1.912-.079 4.138-.079 2.333 0 3.641.079 4.245.079h.232c.996 0 2.201-.079 3.25-.079 2.174 0 3.535.079 4.165.079.156-.157.234-1.126.078-1.257-.733-.105-1.284-.21-1.808-.366-.838-.262-.918-.655-.918-1.415 0-1.834.159-5.502.342-8.226.025-.052.158-.079.183-.052 1.651 3.745 3.825 8.801 4.532 11.003.105.052 1.283.078 1.388 0 .76-2.018 3.72-8.488 4.873-11.161.026-.026.105-.026.131 0-.052 3.093 0 6.419-.052 8.541-.026.995-.158 1.204-.576 1.362-.367.13-.839.182-1.493.314-.106.184-.132 1.1 0 1.257 1.439 0 2.515-.079 3.981-.079 2.541 0 3.85.079 4.794.079.182-.157.235-1.047.104-1.257-.707-.132-1.362-.262-1.728-.366"/><path d="m92.14 159.612c-2.435 0-4.453.734-5.947 1.781-2.461 1.755-3.168 4.454-3.168 6.627 0 2.018.55 4.323 2.226 6.025 1.441 1.442 3.354 2.385 6.549 2.385 2.62 0 5.266-1.023 7.099-3.327 1.101-1.441 1.625-3.379 1.625-5.344 0-4.349-2.881-8.147-8.384-8.147m2.28 14.539c-.55.496-1.258.706-1.886.706-1.074 0-1.808-.366-2.541-.943-1.781-1.518-2.437-4.453-2.437-6.68 0-2.41.446-4.61 1.911-5.606.499-.366 1.207-.524 1.861-.524.996 0 1.651.289 2.384.891 1.572 1.336 2.279 3.955 2.279 6.707 0 2.253-.366 4.349-1.571 5.449"/><path d="m133.919 161.655c-1.441-1.153-3.275-1.651-5.685-1.651-2.096 0-2.647.053-4.872.079-.761 0-3.497-.079-4.073-.079-.629 0-1.506.079-3.417.079-1.991 0-3.169-.079-3.746-.079-.078.053-.131 1.153 0 1.258.603.078 1.101.156 1.703.288.89.184 1.152.654 1.204 1.52.132 2.017.132 4.06.158 7.413-.053 0-.105.026-.158.026-1.623-1.807-5.082-6.182-7.282-8.907-.55-.68-.839-1.1-1.048-1.572-.524.027-1.519.053-2.384.053-2.043 0-3.065-.079-3.955-.079-.079.105-.106 1.178 0 1.31.786.079 1.336.262 1.808.446.68.235.89 1.021.89 1.598 0 2.777-.079 8.069-.236 9.509-.052.707-.288 1.284-.89 1.52-.602.208-1.022.287-1.651.392-.079.105-.131 1.1 0 1.257 1.127 0 2.645-.079 3.745-.079 1.207 0 2.437.079 3.642.079.157-.235.184-1.126.053-1.257-.734-.132-1.205-.21-1.651-.314-.706-.184-1.153-.602-1.206-1.782-.051-1.126-.104-5.344-.078-8.225 0-.027.053-.131.158-.027 2.331 2.882 7.1 9.196 9.091 11.762.392-.052 2.488-.104 2.906-.026-.025-1.02-.052-2.514-.052-3.718-.026-3.458.052-7.233.21-9.301.131-1.31.524-1.44 1.23-1.65.135-.04.334-.072.444-.099.233-.057.809-.046 1.064.007.272.055.599.105.743.144.707.21.76.524.839 1.257.053 1.231.027 2.462.027 5.344 0 2.07-.027 4.664-.054 5.134-.052.708-.366 1.102-.995 1.232-.576.104-.838.184-1.546.262-.157.026-.157.996 0 1.257h1.232c2.358.027 4.767.105 6.209.105 2.724 0 5.292-.418 7.44-2.122 1.623-1.283 2.934-3.326 2.934-6.445 0-2.436-1.049-4.557-2.751-5.919m-2.961 11.448c-.864 1.074-1.728 1.544-2.96 1.544-.471 0-1.573-.182-2.043-.654-.209-.208-.419-.576-.445-.864-.08-.76-.052-2.542-.052-5.03 0-2.356 0-5.423.026-6.313 0-.052.103-.262.21-.288.103-.053.524-.105.785-.105 1.075 0 2.41.235 3.353.943 1.702 1.204 2.594 3.407 2.594 5.659 0 2.566-.604 3.981-1.468 5.108"/><path d="m29.453 60.394c.429 2.836 1.237 5.496 2.464 7.751.974-2.093 2.727-3.736 4-4.602.061.219.104.365.172.577-1.118 1.141-2.025 2.472-2.857 3.971 1.087-1.288 2.137-2.102 3.22-2.936 1.653 4.244 4.693 6.937 8.011 8.757.787-4.043 2.211-7.538 3.968-9.251.081.139.19.343.271.474-1.275 2.027-1.656 3.086-2.181 5.178 1.068-1.815 1.91-2.956 2.915-4.067.933 1.306 1.834 2.208 2.666 3.039 2.985-2.985 9.253-3.115 12.653-3.447-3.973-3.187-18.749-.383-24.701-8.862.359-.689.826-1.308 1.554-2.084-1.498.9-4.081 3.215-5.648 5.085.353-.981.73-1.763 1.163-2.438-2.436-4.669-2.04-10.599-1.548-15.039.691-.51 1.426-.976 2.241-1.365-2.187.51-3.796 1.266-5.839 2.696-.768-5.826 1.664-12.154 3.647-16.472-.905.166-1.565.484-2.366.995 1.002-4.811 2.778-8.894 6.278-12.724-4.27 3.712-7.523 8.504-9.269 14.483.962-.481 1.361-.633 2.109-.836-.071.127-.199.325-.273.452-1.388.761-2.218 1.373-3.467 2.773 1.238-.8 1.958-1.178 2.768-1.502-3.114 5.572-5.942 11.494-4.592 20.192.849-1.054 2.188-2.082 2.875-2.409-.031.161-.053.326-.08.488-1.465 1.373-2.486 3.005-3.149 4.507.842-1.119 1.716-2.025 2.894-2.759-.376 3.137-.356 6.355.101 9.375" fill="#fff"/><path d="m92.872 52.862c-.162.894-.188 1.886-.15 2.603 1.749.463 3.778-2.226 4.659-6.243.792.675 1.538 1.377 2.377 2.354-.643-1.592-1.194-2.447-2.163-3.539.029-.193.139-.461.162-.658 0 0 .736.521 1.278 1.295.427-1.238.76-4.03.966-7.878-.665 1.29-1.836 2.267-3.008 2.852-.996 5.26-2.754 8.277-4.121 9.214" fill="#ffd200"/><path d="m100.314 29.342c0-1.204-.082-2.082-.385-3.116.284.086.715.292.942.407-.194-2.51-.009-3.826-.998-6.105-.032 1.298-.085 2.973-.897 3.698-.667.599-1.353 1.062-2.052 1.376 1.192.822 2.535 2.116 3.39 3.74" fill="#ffd200"/><path d="m40.065 51.195c.76-.661 1.548-1.056 2.438-1.348.045.091.094.179.142.269-1.479.98-2.384 1.806-3.628 3.473 1.595-1.173 2.907-1.851 4.251-2.459 2.751 3.966 8.65 7.13 15.214 7.968-.891-1.871-4.26-4.22-5.47-6.074-2.292-3.506-.945-7.649 1.038-10.151-4.759 2.11-6.004 3.583-6.621 6.827-5.735-5.615-6.443-19.743-5.438-27.545-3.187 5.788-5.733 9.968-5.733 18.131.924-.398 1.942-.786 3.055-.931-.602 3.099-.46 8.081.752 11.84" fill="#ffd200"/><g fill="#fff"><path d="m56.138 18.19c1.885 1.578 2.8 2.729 6.652 3.534.659.138 1.57.136 2.319.078-1.536 1.13-3.631 1.592-5.811 1.851-2.846.343-7.271-1.855-10.477-2.479-1.195-1.252-1.414-2.541-.855-3.388.232-.353.545-1.189 1.313-1.884.157-.002.32-.003.478.011 1.02.09 2.041.214 3.041.447 1.157.271 2.441 1.096 3.34 1.83"/><path d="m59.207 30.318c2.986.176 5.538.949 7.758 1.489.348.082.689.177 1.038.272 3.943 1.098 7.668 2.305 10.934 3.522 1.207.802-4.603-.668-10.901-2.383.121.557.411 1.09.947 1.564.586.52 1.006 1.011 1.317 1.478-1.706-.479-3.459-.889-5.185-1.162-2.173-.342-4.298-.47-6.236-.253 2.478.167 5.583.559 8.789 1.364.067.014.133.029.198.041.072.016.144.031.215.045 4.038.82 7.882 1.768 11.277 2.762 1.128.626-3.009.006-8.265-.979.421 1.653.191 2.889 3.095 3.781 3.574 1.098 9.158.515 11.382-.451 1.479-.642 3.028-2.018 3.303-2.622.1-.218.185-.41.261-.591-2.02-.652-1.324-3.049-3.616-4.47-1.644-1.017-1.657-2.003-2.518-3.633-.316-.602-.786-1.293-1.422-2.105-2.371-2.808-3.341-3.223-5.656-2.997-1.54.148-3.984.703-5.843 3.04-.57-.232-1.143-.452-1.718-.665-3.032-1.11-6.129-1.913-9.175-1.968 3.16.428 5.28 1.086 9.194 2.484 4.081 1.36 7.889 2.812 11.19 4.249 1.088.823-4.363-.776-10.445-2.766-.427.67-.828 1.445-1.027 2.233-.862-.253-1.723-.481-2.583-.672-2.138-.478-4.257-.734-6.308-.607"/><path d="m71.265 17.35c-.174-.091-.348-.197-.52-.31-.023.16-.065.332-.137.53-1.793.12-4.163-2.396-5.28-3.41-1.672-1.52-3.447-1.904-5.92-2.139-1.161.082-1.351-.309.064-.671 1.646-.239 3.052-.152 4.299.16-.873-.749-1.797-1.418-2.922-1.814-.851-.301-1.788-.664-2.693-.715-.548-.027-1.254.138-1.859.326-1.053.327-2.313.903-3.102 1.352.028 1.145-.395 2.289-.239 3.445.081.609-.052.996.466 1.331.307.198.616.524.917.685.316.173 1.025.071 1.548.044 1.267-.226 2.269-.668 3.339-.737 2.835-.186 5.567.219 7.406 1.546 1.806 1.395 4.042 2.774 4.601 3.075.201.109.479.355.807.335.208-.126.414-.246.62-.363.014-.117.018-.225.018-.314 0-.554-.3-1.78-1.413-2.356"/><path d="m96.249 15.078c-.124-.629-.356-1.663-.608-2.071-.525-.849-.973-1.46-1.535-2.029-1.02-.656-2.324-1.121-4.124-1.622-.838-.233-2.552-.399-2.866-.334-.523.101-.773.456-.948.807-.266.528.852 1.832 1.659 3.068.645-.887 1.499-1.297 3.098-1.434 1.162.038 1.173.389.299.534-.526.075-1.439.667-2.076 2.208-.425 1.03-.431 2.641-2.085 3.089-.148-.171-.259-.341-.338-.507-.22.359-.627 1.035-.295 1.706l.411.357c.152.077.305.161.463.252-.131-1.235 1.576-2.292 2.243-2.944 1.45-1.416 3.467-.916 4.393-.585.675.243 1.219.857 1.833 1.137.555.121.57-.528.655-.783.09-.271-.126-.576-.179-.849"/><path d="m71.476 70.383c-.051.84.315 1.817.858 2.755.536.924 1.314 1.702 2.19 1.994.178.684.238 1.311.178 2.027 1.218.292 2.088 0 3.161-.537.269.537.328 1.253.239 2.206 1.014-.088 1.67-.268 2.458-.844.047.457.018 1.143-.132 1.71.507-.747.745-1.284.867-1.955.102-.04.204-.083.307-.131.108.802.139 1.489-.07 2.801.775-1.402 1.043-2.207 1.192-3.519.093-.066.126-.036.22-.106.193.698.349 1.355.318 2.356 2.118-.417 3.19-1.505 3.961-3.278.334.325.791.879 1.077 1.416 1.789-.852 2.49-2.984 2.804-4.383.169-.758.333-2.124.168-2.651.184.076.358.165.527.259.716-1.491.349-3.576 1.242-4.832.714-1.007.172-2.006-.151-3.164-.299 6.109-2.587 3.437-3.147 3.144-2.019-1.055-9.163-.969-12.043-.192-1.195.322-2.087.504-2.757 1.152-2.062 1.99-2.756 1.204-3.127-.583-.055-.719-.143-1.333-.288-1.937-.014-.119-.029-.239-.043-.36.01.08.007.151.008.224.032 1.571-1.691 1.606-1.788 3.06-.014.201.002.429.06.693.163.609 1.78 1.783 1.711 2.675"/><path d="m64.534 18.303c-.557-.095-.968-.416-.918-.707.052-.296.545-.453 1.102-.356.561.097.972.413.921.707-.051.291-.545.454-1.105.356"/><path d="m92.71 17.034c.075.256-.262.583-.756.728-.49.143-.947.053-1.024-.205-.076-.259.259-.586.749-.73.494-.146.954-.053 1.031.207"/><path d="m97.277 22.645c.194-.654.679-1.376.735-1.992.057-.624-.219-1.678-.507-2.752-.006-.001-.011-.002-.017-.003-1.447-.334-1.803.08-2.35.754-1.046 1.288-1.236 1.616-2.425 2.217-.857.434-1.654.417-2.456.248 1.013.845 2.242 1.427 3.433 1.547 1.265.13 2.535.572 3.587-.019"/></g><path d="m98.074 16.094c.002.72.685 1.518.424 1.856-.232.082-.618.037-.992-.049.286 1.073.562 2.128.506 2.752-.056.615-.541 1.338-.735 1.991.016-.008.034-.015.05-.025.158-.093.306-.21.442-.354 1.305-1.405 1.849-2.127 1.684-3.691-.116-.416.976.099 1.735 1.427-.696-1.475-1.416-2.807-2.091-3.867-.244-.375-.45-.696-.647-1-.256-.246-.378.422-.376.96" fill="#ffd200"/><path d="m93.349 17.039c-.023-.078-.051-.152-.08-.226-.106-.007-.212-.012-.315-.015.233 1.045-.413 2.114-1.493 2.432-1.126.332-2.297-.276-2.615-1.358-.006-.018-.009-.037-.013-.056 0 .001-.001.001-.001.001-.235.232-.443.469-.567.71.002.003.002.005.003.007.412 1.404 1.882 2.203 3.286 1.791 1.403-.413 2.206-1.884 1.795-3.286" fill="#7e5300"/><path d="m66.533 17.743c-.262 1.385-1.636 2.298-3.085 2.045-1.458-.253-2.451-1.598-2.208-3.004.013-.063.028-.125.044-.185-.34.014-.652.041-.925.071-.06.174-.113.355-.145.544-.317 1.821.907 3.555 2.728 3.871 1.826.318 3.558-.907 3.875-2.727.024-.133.035-.265.042-.395-.109-.079-.218-.153-.326-.22" fill="#7e5300"/><path d="m76.271 63.098c-1.286.761-.937-.338-1.236-1.086-.514-1.285-1.529-2.423-1.736-5.288-.157-1.237-.227-3.293 1.051-3.678 1.984-.598 4.932 1.345 6.616 1.345 1.682 0 3.337-1.741 4.995-1.433 1.132.209 1.573 1.64 1.936 3.022.397 1.512.253 2.616.408 3.635.102.685.18.88.398 1.196-.017.024-.418.544-.434.568-.021-.022-.04-.039-.003.006-.16-.157-.373-.244-.599-.244-.232 0-.46.094-.641.261-.132.122-.25.286-.349.467-.107-.055-.228-.083-.354-.083-.203 0-.406.08-.567.226-.003.002-.003.002-.004.003-.133-.099-.295-.153-.468-.153-.189 0-.375.067-.526.19-.141-.123-.321-.19-.511-.19-.173 0-.341.055-.483.156-.005-.004-.009-.007-.012-.012-.146-.143-.339-.22-.546-.22-.137 0-.273.035-.397.104-.105-.167-.242-.336-.413-.505-.159-.157-.371-.244-.597-.244-.231 0-.458.094-.642.261-.066.063-.132.136-.19.219-.436-1.366-.676-2.369-.91-3.347-.082-.337-.162-.668-.25-1.012-.203-.81-.491-1.561-1.203-1.561-.836 0-1.147 1.015-1.331 1.606-.466 1.56-.891 4.193-1.002 5.791" fill="#d71920"/><path d="m77.416 44.131c0-.57 1.5-.924 2.173-.924.676 0 2.046.45 1.978 1.1-.658 2.924-.756 4.557-.998 6.457-.235 1.834-.87 1.739-1.54-.026-.593-1.561-1.199-3.37-1.613-6.607m5.243-.72c-.005-.173.498-.365.834-.365.338-.001.868.177.874.387-.006.39-.168.951-.718 1.493-.102.101-.247.088-.386-.037-.347-.321-.607-1.139-.604-1.478m1.962-.151c-.002-.108.31-.227.518-.227.207 0 .538.11.541.24-.004.241-.104.588-.445.925-.064.062-.155.055-.239-.023-.214-.198-.376-.706-.375-.915m1.217-.088c-.005-.109.307-.227.515-.228.208 0 .538.111.543.24-.007.241-.107.589-.446.925-.065.061-.154.056-.238-.024-.216-.198-.376-.704-.374-.913m1.214 0c-.004-.109.308-.227.517-.228.209 0 .537.111.542.24-.005.241-.105.589-.445.925-.065.061-.154.056-.238-.024-.217-.198-.377-.704-.376-.913m8.612 1.086c-.606 2.463-1.4 4.268-2.353 5.871-1.23 2.066-1.579 1.724-1.467.461.15-1.692.441-3.414.105-6.325 0-.513 1.139-1.011 1.86-1.011s1.936.427 1.855 1.004m-15.001 18.466c.125.537-.911.818-1.418.818s-1.666-.204-1.729-.673c-.052-2.669.273-4.16.539-5.448.308-1.458.75-1.535 1.134-.022.395 1.567.651 2.914 1.474 5.325m7.966.001c1.425-2.445 1.889-3.89 2.45-5.309.418-1.06.824-1.347.948.389.095 1.346.143 2.862-.375 4.932-.169.483-1.133.766-1.673.766-.544 0-1.556-.345-1.35-.778m1.728-19.679c.339-.001.868.177.874.387-.008.39-.169.951-.72 1.493-.102.101-.248.088-.385-.037-.348-.321-.606-1.139-.602-1.478-.007-.173.496-.365.833-.365m-2.089.214c-.004-.108.308-.227.516-.227.209 0 .538.11.543.24-.007.241-.107.588-.448.925-.062.062-.153.055-.239-.023-.214-.198-.375-.706-.372-.915m-1.48 19.945c-.004.113-.285.207-.464.207-.178 0-.445-.101-.442-.194-.001-.178.137-.611.32-.782.071-.068.151-.073.204-.02.293.288.378.584.382.789m-1.039.079c-.004.111-.284.204-.464.204-.178 0-.443-.102-.441-.194-.002-.18.135-.611.319-.783.073-.066.151-.072.205-.019.292.288.377.584.381.792m-1.42-.792c.292.288.377.584.381.792-.004.111-.285.204-.463.204-.179 0-.447-.102-.442-.194-.001-.18.135-.611.32-.783.072-.066.149-.072.204-.019m-.658.713c-.004.113-.286.207-.464.207s-.444-.101-.439-.194c-.003-.178.134-.611.319-.782.072-.068.148-.073.203-.02.291.288.376.584.381.789m-1.122-.135c-.005.18-.459.332-.747.332s-.719-.165-.714-.314c-.002-.286.219-.988.516-1.263.117-.108.242-.119.33-.032.47.464.608.944.615 1.277m4.924-1.245c.117-.108.241-.119.329-.032.47.464.608.944.615 1.277-.007.18-.461.332-.747.332-.288 0-.719-.165-.715-.314-.002-.286.22-.988.518-1.263" fill="#fff"/><path d="m113.55 102.823c-.168-.883-.387-1.746-.476-2.032-1.398-4.508-3.825-7.933-6.327-10.583-1.046-1.109-2.105-2.086-3.105-2.946-4.343-3.731-6.663-5.775-6.168-12.273.011-.143.021-.286.035-.435.077-.834.261-1.538.509-2.132-1.388 1.055-2.887 1.985-4.408 2.669-.156.67-.723 2.761-1.974 4.216 1.382 4.66 4.845 9.571 6.659 11.795-.962-1.922-1.236-3.092-1.993-5.223 2.803 3.644 6.101 8.788 6.402 14.127-1.775-1.875-3.623-3.451-4.926-4.094 2.464 5.557 2.201 9.122.685 14.456-3.03 10.67-8.301 12.337-14.888 23.768 1.532-1.67 2.88-2.954 4.43-3.927-3.148 3.501-6.08 9.175-6.036 14.485 15.574-11.475 25.674-25.997 31.581-41.871" fill="#ffd200"/><path d="m112.328 79.266c-2.193-3.848-3.177-7.04-6.351-10.219-.564-.564-1.476-1.4-2.368-2.475-.622.925-1.237 1.67-2.167 2.652.034.403.141 1.683.17 2.402.238 6.138 3.988 9.894 8.444 13.938 1.92 1.743 4.912 4.28 6.743 6.814.475-1.862.897-3.739 1.271-5.626-2.327-2.492-4.597-5.476-5.742-7.486" fill="#ffd200"/><path d="m110.778 71.141c1.421 2.751 5.192 7.614 8.193 10.437.193-1.279.366-2.559.517-3.843-2.661-1.354-5.894-4.079-8.71-6.594" fill="#ffd200"/><path d="m39.611 75.803c-1.071-1.165-1.989-2.395-2.734-3.567-2.071 3.648-4.915 8.853-6.417 14.385 1.037-1.87 2.288-3.836 2.288-3.836-1.098 3.559-2.29 8.157-3.021 13.665-.724 5.435-.926 12.517-.215 19.68 2.142 3.803 4.58 7.489 7.334 11.028-5.674-17.222-6.019-35.74 2.765-51.355" fill="#ffd200"/><path d="m70.094 82.613c-.671-.812-1.257-1.677-1.734-2.481-1.517-.691-2.789-1.38-3.717-2.099-1.7.902-3.463 2.125-5.615 3.819 1.407-1.713 2.981-3.172 4.766-4.433-.849-.668-1.544-1.389-2.099-2.132-1.731.818-3.275 1.441-5.117 2.905 1.358-1.98 2.399-2.591 4.471-3.978-.059-.105-.242-.339-.294-.445-2.871 1.032-5.211 2.286-6.773 3.675-.853-.852-1.871-2.226-2.777-3.627-.564 1.243-1.119 2.628-1.565 4.093-.32 1.186-.561 2.185-.64 2.637-.007.022-.014.045-.022.065-.035.197-.069.394-.1.591-.888-.129-2.482-.616-3.79-1.188-.477 3.982.054 9.115 1.945 14.257-.205-1.808-.222-2.779-.076-4.158.903 3.887 1.914 6.306 3.846 8.334 2.869-4.278 8.472-8.808 13.981-10.924-2.102.347-3.676.786-5.853 1.575 2.806-1.89 5.002-2.871 7.654-4.281 1.414-.753 2.613-1.513 3.509-2.205" fill="#ffd200"/><path d="m104.988 64.08c2.641-3.988 2.401-11.182 1.64-16.736.555.295 1.096.68 1.676 1.202-.57-1.12-1.048-1.713-1.875-2.473-.028-.183-.057-.464-.096-.658.492.348.861.637 1.198 1.005.402-4.832.254-8.628-1.28-12.956 0 0 .494-.076.942.103-.106-.311-.265-.767-.461-1.312-.691.375-1.413.695-2.219 1.001.158.82.294 1.665.399 2.509-1.368.002-2.862.349-4.394.874.005-.058.013-.116.016-.174.027-.721.018-1.344-.018-1.901-2.922.918-5.501 1.572-4.843.97 1.189-.579 2.481-1.126 3.826-1.624.092-.033.179-.07.271-.102.212-.076.425-.148.638-.22 2.292-.791 4.71-1.418 7.049-1.751-.298-.06-.606-.09-.915-.106-.323-.886-.716-1.939-1.123-2.993-.512.308-1.106.632-1.766.974.201.673.398 1.422.579 2.218-1.249.258-2.559.725-3.886 1.306-.136-.677-.336-1.248-.593-1.789-2.166.845-3.741 1.336-3.245.815 3.324-1.948 6.086-3.394 10.065-4.431.094-.023.181-.044.255-.065-.498-.052-1.301.002-1.755.081-.136-.343-.27-.682-.402-1.009-.05-.122-.336-.828-.386-.952l.386.051c-1.759-4.871-4.427-9.826-8.148-13.6 1.283 1.768 1.675 2.413 2.574 3.797 1.806 2.841 3.945 7.618 5.047 11.928-1.63.468-3.192 1.382-4.89 2.458-.121-.204-.249-.413-.386-.63-.298-.474-1.363-1.397-2.193-1.843.289.611.401 1.494.094 2.514-.548 1.826-1.413 2.852-2.44 4.099-.877 1.064-1.94 3.509-3.904 3.687-.013.202-.018.388-.018.498 0 1.192 1.34 2.796 2.073 3.147 1.421.677 1.677.727 3.355.349 1.682-.385 2.609-1.5 3.175-2.205.45-.558.846-1.21 1.123-1.902-2.994.767-5.716 1.297-5.017.71 1.289-.553 2.691-1.061 4.149-1.497.024-.008.047-.014.07-.021 2.414-.718 4.976-1.237 7.421-1.417-.528.313-1.109.561-1.731.783.155 1.665.163 3.263-.048 4.569.577.519 1.058 1.163 1.585 2.107-.406-.341-.811-.651-1.214-.935-1.411-1.032-2.423-1.532-4.011-1.807.895.42 1.675.966 2.393 1.555-.097 4.242-.672 10.301-2.05 13.347-.491-.688-.946-1.155-1.692-1.69-.015.059-.123.261-.139.32 1.046 1.233 1.596 2.113 2.222 3.83-.99-1.144-1.8-2.002-2.566-2.708-1.476 4.196-3.427 5.067-5.075 5.188 0 0 1.572 3.249.156 6.4-.113.251-.169.585-.202.949.418.85.303 1.36.614 2.376 2.619-1.094 5.686-4.274 7.479-6.808.79.722 1.55 1.498 2.57 2.638-.6-1.547-1.124-2.406-2.016-3.458.097-.152.169-.196.264-.351.705.518 1.121.903 1.693 1.766" fill="#fff"/><path d="m106.126 10.717c-2.534.303-5.335.028-7.573-1.192 1.89.059 3.286-.279 6.724-1.316-1.051.086-11.466.392-17.544-1.165-2.661-1.188-11.279-4.621-16.468-1.776-8.496-2.785-19.204.102-22.333 2.474-5.695 0-11.707-.411-15.105-1.517 2.766 1.939 4.951 2.262 6.611 2.621-4.175.17-7.169-.442-11.659-1.423 1.495 1.46 2.573 2.064 4.801 2.731-1.319.118-2.676.049-4.12-.21 1.715 1.414 6.061 3.761 9.757 2.128 1.068-.47 4.469-2.29 7.349-2.612-1.589.854-4.122 3.149-5.56 4.799-.05.081-.1.163-.148.247 1.326-.941 2.866-1.682 4.407-1.968-2.308 1.715-3.313 3.491-3.407 5.373.807-.864 1.427-1.756 2.344-2.042.217-.068.396.166.576.566.332.471.569 1.574 1.017 2.587.487 1.015 1.163 1.911 2.229 2.027.256.027.523.073.797.125-1.194-1.251-1.414-2.541-.855-3.388.234-.353.545-1.188 1.313-1.884-.48.005-.934.016-1.237-.406-.252-.346-.41-.793-.527-1.203-.118-.409-.53-1.145-.418-1.531.996.01 1.963.3 2.943.018 1.516-.434 1.124-1.974 2.942-3.254.144.379.203.756.213 1.133.79-.449 2.049-1.025 3.104-1.352.604-.188 1.31-.354 1.858-.326.905.051 1.841.414 2.693.715 1.124.396 2.049 1.065 2.922 1.814 2.605.651 4.505 2.3 6.389 4.127.43.448.668.816.585 1.403.172.113.346.219.519.31 1.114.576 1.413 1.801 1.413 2.356 0 .089-.004.197-.018.314 2.851-1.621 5.237-2.592 8.141-1.295-2.705-.205-5.348 1.189-7.547 3.069-1.468 1.254-4.504 4.019-6.789 4.129-.224-.994.136-1.506.867-2.2.95-.743 1.916-1.473 2.883-2.146-.527-.113-1.106-.102-1.735-.043-.817 1.126-2.025 1.76-2.795 2.131-2.674 1.214-4.036 1.773-9.096 1.383-3.217-.248-5.577.26-7.275.26-1.703 0-2.554-.386-3.529-1.233-.971-.85-1.412-2.098-1.898-3.553-.1 4.342 1.099 15.109 5.532 17.562.705-.498 2.055-.866 3.242-.851-1.739.836-3.597 2.504-4.628 4.545 4.021-3.502 7.066-4.385 12.077-4.402-2.079 3.569-2.534 6.633-2.45 9.665.051 1.893.302 3.349.704 4.533.791 2.516 2.126 5.084 3.786 6.974-.4-.919-.752-1.843-1.047-2.751h.001c1.185 1.261 2.592 2.58 4.084 4.618 1.895 2.603 3.17 2.988 4.517 6.599.097-1.454 1.82-1.489 1.789-3.06-.258-1.004-.681-2-1.398-3.433-1.36-2.716-6.034-12.107-6.229-17.848-.067-1.988 1.219-3.12 1.655-3.991.292-.585.299-1.137.186-1.695-2.397-.579-5.113-1.397-6.828-2.142 1.937-.217 4.062-.089 6.234.253-.24-.776-.402-1.631-.177-2.645.011-.043.024-.085.035-.129-2.094-.642-3.942-1.27-5.765-2.006 2.05-.127 4.171.129 6.308.606.394-.751.938-1.5 1.585-2.237-3.604-1.251-6.278-2.447-7.914-3.29 3.046.055 6.143.858 9.174 1.968.68-.657 1.497-1.35 2.352-2.007.785-.62 1.636-1.482 2.438-2.051 2.455-1.697 5.787-3.869 8.658-2.048-.471.023-.971.059-1.482.129-1.694.18-.687 2.66 1.228 4.634 1.037 1.07 2.043 2.595 3.243 4.314.797 1.135.875 1.486 1.752 1.752 1.494.455 3.107 1.181 2.759 2.098-.253.665-1.341.385-1.119 1.192.474 1.722 1.714 2.058 2.756 1.86.173-.051.344-.099.505-.143.164-.061.317-.135.455-.214.499-.332.717-.854 1.256-1.705.216-.527-.164-.496-.164-.946 0-.313.578-1.034 1.358-1.694.965-.817 1.569-2.446 1.569-3.148 0-.884.022-1.473-.36-2.101-1.491-2.111-5.426-4.507-5.91-4.874-1.34-1.018-2.611-1.161-4.046-1.259.743-.677 1.359-.625 1.936-.433-.435-.428-.659-.665-1.002-.903-1.213-.836-2.589-1.129-4.309-1.235 1.901-.878 2.981-.822 4.608.267l-.412-.357c-.331-.671.076-1.347.296-1.706-.244-.507-.201-.989-.065-1.413.398-1.084.736-1.885 1.166-2.476-.807-1.237-1.924-2.54-1.658-3.069.174-.351.425-.706.948-.806.314-.066 2.028.1 2.866.333 1.8.501 3.104.966 4.124 1.622-.117-.118-.242-.235-.371-.351-1.001-.802-2.208-1.608-3.72-2.437 1.837.82 4.041 1.823 5.296 2.456 2.43 1.224 4.33 3.12 8.562 2.871-1.096-.23-2.841-1.046-4.515-2.246.757.026 2.919.664 6.768-.554m-46.277 17.591c-1.516 1.111-3.838 2.034-6.081 1.61-.296.933-.17 2.573.534 4.474-3.788-1.693-6.076-4.541-6.319-6.682 2.433-1.168 7.584.551 11.866.598m31.65 1.304c.98.052 2.455.014 3.329-.422.048.644-2.322 1.708-2.83 1.741-.558.033-1.173-.399-1.705-.53-.695-.167-1.418-.331-1.855-.403-.351-.056-.834-.223-.887-.713 1.33.068 2.619.256 3.948.327m-29.349-23.616c3.833-.746 9.057-.204 10.957 1.256 1.493-1.052 4.102-1.732 8.531-.998-3.679.251-4.697.47-5.55 1.122 1.091-.245 2.272-.308 4.337.179-2.432.172-5.461.864-5.452 2.242-1.629-1.188-5.123-2.205-8.278-2.205 1.595-.476 2.794-.455 3.742-.216-1.966-.917-3.675-1.299-8.287-1.38m16.28 8.19c-1.796-1.873-4.042-3.115-8.413-3.842 2.379-.42 5.68.115 7.261 1.086 1.699-1.337 3.461-1.664 5.522-1.371-1.993.591-4.776 2.219-4.37 4.127" fill="#ffd200"/></svg>