<svg height="300" viewBox="0 0 331 400" width="249" xmlns="http://www.w3.org/2000/svg"><g fill="#010101"><path d="m7.53 2.76c3.34-1.13 7.07-.73 10.26.7-.01 2.32-.01 4.65.02 6.98-2.05-1.15-4.34-2.26-6.76-1.63-2.22.76-2.24 3.59-1.33 5.36 2.83 3.51 7.67 5.25 9.5 9.58 1.19 4.31.8 9.62-2.72 12.77-3.48 3.37-9.05 2.83-13.06.76.03-2.27.06-4.53.05-6.79 2.2 1.15 4.77 1.73 7.23 1.18 2.53-.52 2.59-4.04 1.26-5.71-2.78-2.87-6.77-4.53-8.82-8.12-2.55-5.11-1.03-12.44 4.37-15.08z"/><path d="m24.91 2.45c2.67-.04 5.33-.04 7.99-.01 1.32 3.86 2.7 7.69 4.03 11.54 1.54-3.83 2.87-7.74 4.37-11.58 2.61.01 5.22.01 7.82.06-2.76 6.16-5.68 12.26-8.32 18.48-.38 5.81-.12 11.66-.33 17.49-2.34-.01-4.69-.01-7.03-.01-.09-5.83.19-11.68-.11-17.51-2.68-6.21-5.64-12.3-8.42-18.46z"/><path d="m117.56 2.42c4.97-.01 9.94.01 14.92-.01-.01 2.37-.01 4.75-.01 7.13-2.4-.01-4.8-.01-7.2-.01.02 2.44.02 4.88.02 7.32 2.04-.01 4.08-.02 6.12-.03.03 2.27.04 4.55.05 6.82-2.11-.01-4.22-.02-6.33-.02v7.83h7.15c-.01 2.32-.01 4.64 0 6.97-4.91 0-9.81-.01-14.71 0 0-12 .03-24-.01-36z"/><path d="m188.18 4c3.5-2.76 8.57-2.2 12.42-.47-.03 2.3-.03 4.6.01 6.89-1.81-.84-3.63-1.99-5.71-1.75-2.64-.26-4.16 3.14-2.64 5.16 2.49 3.63 7 5.45 9.31 9.25 2.42 5.24.67 12.77-4.97 15.15-3.37 1.25-7.24.75-10.38-.91.03-2.26.04-4.51.03-6.77 2.42 1.12 5.23 1.82 7.84.91 2.07-1.18 1.9-4.35.25-5.82-2.91-2.83-6.99-4.62-8.78-8.48-1.81-4.37-.91-9.9 2.62-13.16z"/><path d="m208.98 2.77c2.46-.01 4.92-.01 7.38-.01 1.31 7.5 2.56 15.01 3.7 22.54 1.6-7.44 2.72-14.99 3.86-22.51 2.15-.02 4.31-.03 6.47-.05 1.58 7.55 2.67 15.2 4.56 22.68.62-7.59 1.95-15.09 2.84-22.65 2.64-.01 5.27-.01 7.9-.01-2.5 11.97-5.05 23.93-7.49 35.91-2.15 0-4.29 0-6.44-.01-1.54-7.92-2.59-15.95-4.67-23.75-1.04 8.02-3.12 15.86-4.69 23.79-2.17-.02-4.35-.04-6.52-.08-2.13-11.98-4.9-23.85-6.9-35.85z"/><path d="m316.75 2.74c3.43-1.08 7.29-.77 10.48.89-.05 2.31-.05 4.62.01 6.93-2.12-1.23-4.61-2.5-7.11-1.66-2.12.71-2.26 3.54-1.22 5.18 2.34 3 5.99 4.65 8.34 7.66 3.74 5.21 1.93 13.77-4.07 16.49-3.41 1.24-7.35.78-10.51-.95.03-2.24.03-4.48 0-6.73 2.59 1.18 5.83 2.04 8.47.56 1.3-1.6 1.11-4.41-.56-5.72-2.9-2.76-6.98-4.54-8.6-8.44-1.83-5.03-.42-11.79 4.77-14.21z"/><path d="m55.79 2.52c5.44.55 11.84-.53 16.26 3.45 4.1 3.39 4.77 9.06 5.08 14.02-.15 5.59-.81 11.96-5.38 15.82-4.53 3.58-10.66 2.56-16.03 2.66-.04-11.98.14-23.96.07-35.95m7.49 29.84c4.21-.96 6.38-5.26 6.39-9.3.5-5.23-.45-12.06-6.18-14.04-.6 7.76-.2 15.56-.21 23.34z"/><path d="m85.84 2.77c2.37-.02 4.74 0 7.11.04 2.41 6.31 5.28 12.44 7.56 18.79.43-6.27.11-12.56.21-18.83 2.54-.01 5.08-.01 7.63-.01.01 11.97-.02 23.94.01 35.91-2.26 0-4.51.01-6.77.04-2.73-6.54-5.77-12.97-8.05-19.69-.61 6.53-.17 13.09-.28 19.63-2.48.03-4.97.02-7.45-.05.05-11.94.01-23.88.03-35.83z"/><path d="m138.34 2.45c2.63-.03 5.27-.04 7.91-.05 1.37 3.85 2.87 7.65 3.91 11.61 1.78-3.77 3.11-7.73 4.62-11.61 2.61.01 5.23.02 7.85.06-2.25 4.51-4.18 9.17-6.29 13.74-4.03 6.75-1.12 14.91-2.51 22.28-2.35-.04-4.69-.08-7.02-.15-.02-5.78.17-11.57-.06-17.35-2.48-6.31-5.55-12.39-8.41-18.53z"/><path d="m248.69 38.66c2.99-11.95 5.42-24.05 8.52-35.97 2.59.07 5.18.08 7.78.11 2.63 11.99 5.47 23.93 8.4 35.84-2.6.02-5.2.03-7.8.06-.53-2.03-1.04-4.06-1.51-6.09-2.13-.02-4.24-.03-6.36-.04-.52 2.03-1.03 4.06-1.52 6.1-2.51 0-5.01 0-7.51-.01m12.22-24.81c-1.07 4.17-1.44 8.46-2.28 12.67 1.37.01 2.74.02 4.12.03-.71-4.22-1.37-8.44-1.84-12.7z"/><path d="m280.66 2.77c2.26 0 4.53-.01 6.8-.06 2.84 6.18 5.18 12.57 7.86 18.82.26-6.25.04-12.51.12-18.77h7.43c.02 11.97-.01 23.94.02 35.91-2.25.01-4.5-.01-6.75-.04-2.73-6.62-5.44-13.25-8.31-19.8.03 6.61.01 13.23.02 19.85-2.41-.01-4.81-.01-7.21-.02.03-11.96 0-23.92.02-35.89z"/></g><path d="m3.44 57.68c40.54 0 81.07-.02 121.6.01 13.49 26.38 26.99 52.77 40.57 79.11 13.37-26.37 26.65-52.79 40.04-79.16 40.68.08 81.37.01 122.06.04-54.38 113.38-108.63 226.82-162.66 340.37-9.09-19.71-18.31-39.36-27.61-58.97 2-12.09 9.88-21.99 17.46-31.18 6-7.37 13.23-13.83 17.83-22.26 5.19-9.1 7.88-20.08 5.55-30.46-1.91-8.74-7.48-16.65-15.07-21.37-8.86-4.81-19.64-5.31-29.24-2.56-7.93 2.06-15.41 7.26-18.48 15.09 2.05.82 3.2-1.42 4.61-2.41.64.23 1.93.69 2.57.92-1.11 2.7-3.24 5.14-3.3 8.17 1.49 2.28 4.24 3.66 6.77 4.52 4.34 1.05 7.09-3.09 9.84-5.64 3.34-3.84 9.2-4.07 13.69-2.39 4.25 1.96 7.37 5.97 8.58 10.46 2.14 6.87-.1 14.39-4.04 20.17-4.3 6.04-10.15 10.73-16.18 14.93-5.94 4.22-10.48 10.04-14.18 16.25-.42-1.52-1.35-3.22-.13-4.62 6.46-10.75 18.53-16.12 26.66-25.34 3.52-4.29 6.28-9.61 6.05-15.3.04-5.02-1.61-10.63-6.12-13.39-2.88-2.08-6.64-1.4-9.94-1.06-3.99 1.23-5.76 5.7-9.47 7.42-1.75.47-3.58.25-5.37.33-6.67 6.45-12.95 13.48-20.84 18.5.53-8.49 4.74-16.18 7.16-24.22 2.77 2.68.99 6.89.88 10.25 2.19-2.4 3.83-5.22 5.05-8.22-1.88-2.17-6.12-3.31-5.61-6.74 1.65-7.65 7.33-14.03 14.2-17.54 7.86-4.07 17.03-4.7 25.69-3.74 6.59.87 13.38 3.3 17.88 8.4 4.69 5.19 8.73 11.19 10.56 18.01 2.31 9.15 1.09 19.03-3 27.51-6.77 15.9-22.14 26.01-29.21 41.73-1.12 2.8-2.44 6.24-.59 9.03 2.14 3.04 7.09 4.02 9.84 1.23 4.52-4.38 7.14-10.25 10.1-15.71 5.25-9.68 9.89-19.78 16.6-28.58 7.33-10.25 16.59-19.08 27.09-26.02 7.15-4.7 15.14-7.83 23.05-10.96-3.78-17.96-1.92-37.95 8.48-53.46-7.65.05-15.5.59-22.68 3.46-6.24 2.27-11.8 6.1-16.64 10.61-3.23-6.05-6.64-12.05-11.23-17.21-14.06-15.97-35.11-24.09-55.89-26.32 9.39 11.32 13.3 26.46 12.24 40.99-9.47-8.26-21.38-14.46-34.1-15.18 4.86 8.96 5.26 19.53 5.84 29.5-8.32-7.75-18.89-12.63-29.88-15.21 2.14 11.38 4.93 23.28 2.01 34.78-6.09-11.94-11.67-24.15-17.52-36.22-24.01-50.04-47.56-100.3-71.57-150.35z" fill="#ed171f"/></svg>