<svg enable-background="new 0 0 64 55.5" height="294.48" viewBox="0 0 64 55.5" width="339.581" xmlns="http://www.w3.org/2000/svg" xmlns:xlink="http://www.w3.org/1999/xlink"><mask id="a" height="12.4" maskUnits="userSpaceOnUse" width="10.8" x="-8.6" y="-12.6"><path d="m2.2-12.6v12.4h-10.8v-12.4z" fill="#fff"/></mask><mask id="b" height="12.6" maskUnits="userSpaceOnUse" width="11.2" x="-8.4" y="-12.5"><path d="m-8.4.1h11.1v-12.6h-11.1z" fill="#fff"/></mask><g fill="#003087"><path d="m46.3 12.7s1.3 0 1.7.1c0 0 .3-.4 1.1-.8-.1.1-1.5-.2-2.8.7"/><path d="m50.8 22.6c1.1-3.2-3.1-3.6-3.1-3.6-2.1-2.7-16.3-1.7-16.3-1.7 5.1-2.7 14.5-5.7 14.5-5.7-.6-.7-2.3-1.5-2.3-1.5.5-.2.9-.3 1.4-.5 0 0-2.4-1.5-6.1-2.5 0 0 1 .5 3.1 2.3 0 0-4.5-2.1-12.8-1.7 0 0 1.9.7 5 2.5 0 0 .5-.4 1.4-.6-.1 1.1 1.4 2.1 3.3 2.3.7.1 1.4 0 2-.2 0 0-1 1.1-3.1 1.1-2.6 0-3.4-1.4-3.4-1.4s-3.7 1.1-6 2.3c0 0 2.4-.2 5.2-.1 0 0-8.3 3.1-20.1 14.2 0 0-1.9-5.8 2-10.3 0 0 1.3-1.1 6.9-2.9 0 0-8.1 1.7-12.9 3.3 0 0 1.2-4.6 7.1-7.4 0 0 1.9-.6 7.1-1.2 0 0-5.2-.4-11.9.2 0 0 3.5-4.1 8.9-5.2 0 0 .6-.1 4-.1 0 0-3.1-1-7.7-2.1 0 0 18.7-1.5 30.5 6.8 0 0-.6.2-1.3.4 0 0 5.4 1.9 7.5 4.8 2.8 3.8-2.9 8.5-2.9 8.5m-13.2-2c1.8-1 3.6-2.1 3.6-2.1 3.8-.1 5.3.7 5.3.7-4.7.2-8.9 1.4-8.9 1.4m-7.7 10.1c-2.9-1.5-3.6-3.6-3.6-3.6 4-5.7 10-6.1 10-6.1-4.6 4.3-6.4 9.7-6.4 9.7m-9 1.6s-2.9-2.8-3.5-6.2c0 0 5.8-7.3 15.7-6.5 0 0-7.5 3.7-12.2 12.7m28.1-23.5s.6-.2 1.2-.4c0 0-13.3-11.1-39.8-7.9 0 0 3.4 1.4 6.3 3 0 0-4.6 1.4-9.3 7.7 0 0 .6 0 4.2-.1 0 0-3.8 2.7-5.2 9.6 0 0 2.1-.8 5.4-1.6 0 0-2.5 4.4.8 12.5 0 0 1.4-1.7 3.3-3.5 0 0 1.2 4.4 5.6 7.4 0 0 1.6-3.8 3.5-6.3 0 0 1.5 2.7 5.8 4 4.3-12.7 15.2-12.2 15.2-12.2 5.5-.1 2.1 4.3 2.1 4.3s6.9-2 8.1-8.3c0 0 1-4.4-7.2-8.2m-31.8 41.7-.4-1.9-.2-1.2-.5 1.2-1 1.9zm4.4 4.6c-.7.1-1.5.2-2.2.2-.4 0-.8 0-1.1-.1l-.4-1.9h-4.1l-1 1.9c-.5.1-1 .1-1.5.1-.6 0-1.2-.1-1.7-.2l6-11.7c.6-.1 1.2-.1 1.7-.1.6 0 1.1 0 1.6.1-.1 0 2.7 11.7 2.7 11.7zm20.8-1.4c-.1.5-.2 1-.3 1.5h-7.9l1.6-11.8c.6-.1 1.1-.1 1.7-.1s1.1.1 1.6.1l-1.2 8.8h4.6c0 .5 0 1-.1 1.5"/><path d="m-8.6-1.6c.2-1.1.9-2.2 1.8-2.7.7.6 2 1 3.4 1 1.1 0 1.5-.2 1.5-.6.1-.4-.1-.6-2-1.1-2-.5-3.6-1.3-3.3-3.7s2.5-3.9 5.4-3.9c2.1 0 3.5.7 4.1 1.2-.2 1-.8 2.1-1.9 2.7-.6-.5-1.6-.9-2.9-.9-1 0-1.5.2-1.5.6-.1.4.1.6 2.2 1.1s3.4 1.5 3.2 3.5c-.3 2.7-2.3 4.2-5.3 4.2-2.5 0-4-.8-4.7-1.4" mask="url(#a)" transform="translate(61.77 55.698)"/><path d="m52.1 52.3h-4.9l.2-1.6h4.2c.2-.5.3-1 .3-1.4.1-.5.1-1 0-1.5h-4.2l.2-1.5h4.7c.2-.5.3-1 .3-1.5.1-.5.1-1 0-1.5h-9.5l1.3 1.5-1.4 10.3h8.2c.2-.5.3-1 .3-1.5.3-.4.4-.9.3-1.3m-43.5 0h-4.9l.2-1.6h4.2c.2-.5.3-1 .3-1.4.1-.5.1-1 0-1.5h-4.1l.2-1.5h4.7c.2-.5.3-1 .3-1.5.1-.5.1-1 0-1.5h-9.4l1.3 1.5-1.4 10.4h8.2c.2-.5.3-1 .3-1.5.1-.5.1-1 .1-1.4"/><path d="m-2.4-7.3c-.4.7-.6 1.6-.6 2.4h1.9l-.3 1.8c-.3.1-.6.1-1 .1-1.7 0-2.6-1.2-2.4-3.2.3-2 1.5-3.1 3.2-3.1.8 0 1.5.2 2.1.6 1-.5 1.9-1.7 2.2-2.8-.8-.6-2.1-1-3.8-1-4 0-6.8 2.7-7.3 6.4s1.5 6.2 5.5 6.2c2.2 0 3.5-.5 4.4-.9l.9-6.5z" mask="url(#b)" transform="translate(30.668 55.447)"/><path d="m15.3 37.2c-.1 0-.2 0-.3 0h-.1v.1c-.2 1.2-.6 2.4-1.1 3.5-.1-.9-.3-2-.3-3.3v-.1h-.1c-.2 0-.4-.1-.6-.1s-.4 0-.6.1c-.2.9-.6 2.2-1.1 3.3-.2-1.1-.2-2.3-.2-3.5v-.1h-.1c-.1 0-.2 0-.3 0-.3 0-.6 0-.9.1h-.1v.1c.1 1.8.3 3.3.7 4.6.2 0 .4.1.6.1s.4 0 .6-.1c.3-.4.8-1.3 1.1-2.3.1.7.1 1.5.3 2.3.2 0 .4.1.6.1s.4 0 .6-.1c.9-1.4 1.4-3 1.9-4.6v-.1h-.1c.3 0-.2 0-.5 0zm4.9 0h-3.1l-.6 4.8h3.1c.1-.3.2-.6.1-1v-.1h-1.9l.1-.8h1.6c.1-.3.2-.6.1-.9v-.1h-1.6l.1-.7h1.8c.4-.5.4-.7.3-1.2zm2.8-.1c-.6 0-1.2.2-1.5.6-.3.3-.4.7-.4 1.1 0 1 .8 1.2 1.3 1.4.4.1.6.2.7.4 0 .1 0 .2-.1.2 0 .1-.2.2-.5.2-.5 0-.9-.2-1.2-.4-.3.2-.6.5-.6.9.2.2.8.6 1.8.6.6 0 1.2-.2 1.5-.5s.4-.7.4-1.2c0-1-.8-1.3-1.4-1.5-.3-.1-.6-.2-.6-.4 0-.1 0-.1.1-.2s.3-.1.5-.1c.5 0 .9.2 1 .3.3-.2.5-.5.6-.9-.1-.1-.6-.5-1.6-.5zm6.2.1h-3.7c-.1.3-.2.6-.1 1v.1h1.2l-.5 3.7h.1c.2 0 .3.1.5.1s.4 0 .6-.1h.1l.5-3.7h1.2c.1-.3.1-.6.1-1.1zm5.1-.2c-.7 0-1.4.3-1.9.8-.5.6-.8 1.4-.8 2.2.1 1.3.9 2 2.2 2 .6 0 1.1-.2 1.5-.5 0-.4-.2-.7-.5-.9-.2.2-.4.3-.8.3-.6 0-1-.4-1-1s.1-1 .4-1.4c.2-.2.5-.3.8-.3s.5.1.7.3c.3-.2.6-.5.7-.9-.1-.3-.6-.6-1.3-.6zm4.4.1c-.7 0-1.3.3-1.8.7-.5.5-.8 1.3-.7 2.3.1 1.3.9 2.1 2.1 2.1.7 0 1.3-.3 1.8-.7.5-.5.8-1.3.7-2.3 0-1.3-.9-2.1-2.1-2.1zm.4 3.6c-.2.2-.4.3-.7.3-.6 0-.9-.4-.9-1s.1-1.1.4-1.4c.2-.2.4-.3.7-.3.7 0 .9.6.9 1 0 .6-.1 1.1-.4 1.4zm5.3-3.5c-.2 0-.4 0-.5 0-.2 0-.4 0-.6 0l-2.3 4.7h.1c.1.1.3.1.6.1h.5l.4-.9h1.4l.2.9h.4c.2 0 .4 0 .7-.1h.1zm-1.4 2.9.5-1 .1-.2v.2l.2 1zm5.5-3c-.6 0-1.2.2-1.5.6-.3.3-.4.7-.4 1.1 0 1 .8 1.2 1.3 1.4.4.1.6.2.7.4 0 .1 0 .2-.1.2 0 .1-.2.2-.5.2-.5 0-.9-.2-1.2-.4-.3.2-.6.5-.6.9.2.2.8.6 1.8.6.6 0 1.2-.2 1.5-.5s.4-.7.4-1.2c0-1-.8-1.3-1.4-1.5-.3-.1-.6-.2-.6-.4 0-.1 0-.1.1-.2s.3-.1.5-.1c.5 0 .9.2 1 .3.3-.2.5-.5.6-.9-.1-.1-.6-.5-1.6-.5zm6.2.2-3.7-.1c-.1.3-.2.6-.1 1v.1h1.2l-.5 3.7h.1c.2 0 .3.1.5.1s.4 0 .6-.1h.1l.5-3.7h1.2c.1-.3.1-.6.1-1z"/></g><path d="m37.5 10.2c-.7-.2-.7-.8-.7-.8s.9-.1 2.3.1c-.1 0-1 .3-1.6.7" fill="#fff"/><path d="m53.6 14.1c2.9 3.8-2.8 8.5-2.8 8.5 1.1-3.2-3.1-3.6-3.1-3.6-2.1-2.7-16.3-1.7-16.3-1.7 5.1-2.7 14.5-5.7 14.5-5.7-.6-.7-2.3-1.5-2.3-1.5.5-.2.9-.3 1.4-.5 0 0-2.4-1.5-6.1-2.5 0 0 1 .5 3.1 2.3 0 0-4.5-2.1-12.8-1.7 0 0 1.9.7 5 2.5 0 0 .5-.4 1.4-.6-.1 1.1 1.4 2.1 3.3 2.3.7.1 1.4 0 2-.2 0 0-1 1.1-3.1 1.1-2.6 0-3.4-1.4-3.4-1.4s-3.7 1.1-6 2.3c0 0 2.4-.2 5.2-.1 0 0-8.3 3.1-20.1 14.2 0 0-1.9-5.8 2-10.3 0 0 1.3-1.1 6.9-2.9 0 0-8.1 1.7-12.9 3.3 0 0 1.2-4.6 7.1-7.4 0 0 1.9-.6 7.1-1.2 0 0-5.2-.4-11.9.2 0 0 3.5-4.1 8.9-5.2 0 0 .6-.1 4-.1 0 0-3.1-1-7.7-2.1 0 0 18.7-1.5 30.5 6.8 0 0-.6.2-1.3.4-.1 0 5.3 1.9 7.4 4.8m-5.7-1.3s.3-.4 1.1-.8c0 0-1.4-.2-2.7.6 0 .1 1.3.1 1.6.2m-10.3 7.8s4.2-1.1 8.9-1.4c0 0-1.5-.8-5.3-.7 0 0-1.8 1.1-3.6 2.1m-7.7 10.1s1.8-5.3 6.3-9.6c0 0-6 .4-10 6.1 0-.1.7 2 3.7 3.5m-12.5-4.6s5.8-7.3 15.7-6.5c0 0-7.6 3.7-12.2 12.7 0 0-2.9-2.8-3.5-6.2" fill="#f2a900"/></svg>